<?xml version="1.0" encoding="UTF-8" standalone="no"?>
<!DOCTYPE svg PUBLIC "-//W3C//DTD SVG 1.1//EN"
 "http://www.w3.org/Graphics/SVG/1.1/DTD/svg11.dtd">
<!-- Generated by graphviz version 2.43.0 (0)
 -->
<!-- Title: src/lagr/cs_lagr_print.cpp Pages: 1 -->
<svg width="1538pt" height="252pt"
 viewBox="0.00 0.00 1538.00 252.00" xmlns="http://www.w3.org/2000/svg" xmlns:xlink="http://www.w3.org/1999/xlink">
<g id="graph0" class="graph" transform="scale(1 1) rotate(0) translate(4 248)">
<title>src/lagr/cs_lagr_print.cpp</title>
<polygon fill="white" stroke="transparent" points="-4,4 -4,-248 1534,-248 1534,4 -4,4"/>
<!-- Node1 -->
<g id="node1" class="node">
<title>Node1</title>
<g id="a_node1"><a xlink:title=" ">
<polygon fill="#bfbfbf" stroke="black" points="1031,-224.5 1031,-243.5 1157,-243.5 1157,-224.5 1031,-224.5"/>
<text text-anchor="middle" x="1094" y="-231.5" font-family="Helvetica,sans-Serif" font-size="10.00">src/lagr/cs_lagr_print.cpp</text>
</a>
</g>
</g>
<!-- Node2 -->
<g id="node2" class="node">
<title>Node2</title>
<g id="a_node2"><a xlink:href="cs__defs_8h.html" target="_top" xlink:title=" ">
<polygon fill="white" stroke="black" points="540.5,-56.5 540.5,-75.5 623.5,-75.5 623.5,-56.5 540.5,-56.5"/>
<text text-anchor="middle" x="582" y="-63.5" font-family="Helvetica,sans-Serif" font-size="10.00">base/cs_defs.h</text>
</a>
</g>
</g>
<!-- Node1&#45;&gt;Node2 -->
<g id="edge1" class="edge">
<title>Node1&#45;&gt;Node2</title>
<path fill="none" stroke="midnightblue" d="M1048.33,-224.43C1007.91,-216.42 947.51,-203.39 896,-188 827.82,-167.62 810.95,-161.07 746,-132 728.58,-124.2 725.47,-119.67 708,-112 678.71,-99.14 644.47,-87.09 619.08,-78.71"/>
<polygon fill="midnightblue" stroke="midnightblue" points="620.06,-75.34 609.47,-75.57 617.89,-82 620.06,-75.34"/>
</g>
<!-- Node4 -->
<g id="node4" class="node">
<title>Node4</title>
<g id="a_node4"><a xlink:title=" ">
<polygon fill="white" stroke="#bfbfbf" points="935,-0.5 935,-19.5 983,-19.5 983,-0.5 935,-0.5"/>
<text text-anchor="middle" x="959" y="-7.5" font-family="Helvetica,sans-Serif" font-size="10.00">stdlib.h</text>
</a>
</g>
</g>
<!-- Node1&#45;&gt;Node4 -->
<g id="edge7" class="edge">
<title>Node1&#45;&gt;Node4</title>
<path fill="none" stroke="midnightblue" d="M1108.37,-224.27C1119.94,-216.37 1135.47,-203.6 1143,-188 1168.54,-135.07 1187.51,-102.06 1151,-56 1131.69,-31.64 1043.17,-19.2 993.34,-14.02"/>
<polygon fill="midnightblue" stroke="midnightblue" points="993.63,-10.53 983.34,-13.03 992.94,-17.5 993.63,-10.53"/>
</g>
<!-- Node5 -->
<g id="node5" class="node">
<title>Node5</title>
<g id="a_node5"><a xlink:title=" ">
<polygon fill="white" stroke="#bfbfbf" points="1217,-168.5 1217,-187.5 1265,-187.5 1265,-168.5 1217,-168.5"/>
<text text-anchor="middle" x="1241" y="-175.5" font-family="Helvetica,sans-Serif" font-size="10.00">limits.h</text>
</a>
</g>
</g>
<!-- Node1&#45;&gt;Node5 -->
<g id="edge4" class="edge">
<title>Node1&#45;&gt;Node5</title>
<path fill="none" stroke="midnightblue" d="M1117.29,-224.44C1141.81,-215.44 1180.6,-201.19 1208.2,-191.05"/>
<polygon fill="midnightblue" stroke="midnightblue" points="1209.64,-194.25 1217.82,-187.52 1207.22,-187.68 1209.64,-194.25"/>
</g>
<!-- Node6 -->
<g id="node6" class="node">
<title>Node6</title>
<g id="a_node6"><a xlink:title=" ">
<polygon fill="white" stroke="#bfbfbf" points="810,-56.5 810,-75.5 856,-75.5 856,-56.5 810,-56.5"/>
<text text-anchor="middle" x="833" y="-63.5" font-family="Helvetica,sans-Serif" font-size="10.00">stdio.h</text>
</a>
</g>
</g>
<!-- Node1&#45;&gt;Node6 -->
<g id="edge5" class="edge">
<title>Node1&#45;&gt;Node6</title>
<path fill="none" stroke="midnightblue" d="M1030.88,-226.66C996.64,-220.81 954.92,-209.57 923,-188 883.55,-161.34 854.73,-111.5 841.35,-84.86"/>
<polygon fill="midnightblue" stroke="midnightblue" points="844.36,-83.05 836.84,-75.59 838.07,-86.11 844.36,-83.05"/>
</g>
<!-- Node7 -->
<g id="node7" class="node">
<title>Node7</title>
<g id="a_node7"><a xlink:title=" ">
<polygon fill="white" stroke="#bfbfbf" points="1283,-168.5 1283,-187.5 1335,-187.5 1335,-168.5 1283,-168.5"/>
<text text-anchor="middle" x="1309" y="-175.5" font-family="Helvetica,sans-Serif" font-size="10.00">stddef.h</text>
</a>
</g>
</g>
<!-- Node1&#45;&gt;Node7 -->
<g id="edge6" class="edge">
<title>Node1&#45;&gt;Node7</title>
<path fill="none" stroke="midnightblue" d="M1128.52,-224.44C1162.79,-215.93 1217.07,-202.41 1272.93,-188.26"/>
<polygon fill="midnightblue" stroke="midnightblue" points="1273.8,-191.65 1282.63,-185.8 1272.08,-184.87 1273.8,-191.65"/>
</g>
<!-- Node8 -->
<g id="node8" class="node">
<title>Node8</title>
<g id="a_node8"><a xlink:title=" ">
<polygon fill="white" stroke="#bfbfbf" points="1092.5,-56.5 1092.5,-75.5 1141.5,-75.5 1141.5,-56.5 1092.5,-56.5"/>
<text text-anchor="middle" x="1117" y="-63.5" font-family="Helvetica,sans-Serif" font-size="10.00">string.h</text>
</a>
</g>
</g>
<!-- Node1&#45;&gt;Node8 -->
<g id="edge8" class="edge">
<title>Node1&#45;&gt;Node8</title>
<path fill="none" stroke="midnightblue" d="M1103.02,-224.34C1111.07,-215.93 1122.3,-202.36 1127,-188 1138.43,-153.08 1129.66,-109.62 1122.9,-85.43"/>
<polygon fill="midnightblue" stroke="midnightblue" points="1126.23,-84.36 1120.01,-75.78 1119.52,-86.36 1126.23,-84.36"/>
</g>
<!-- Node9 -->
<g id="node9" class="node">
<title>Node9</title>
<g id="a_node9"><a xlink:title=" ">
<polygon fill="white" stroke="#bfbfbf" points="1353.5,-168.5 1353.5,-187.5 1400.5,-187.5 1400.5,-168.5 1353.5,-168.5"/>
<text text-anchor="middle" x="1377" y="-175.5" font-family="Helvetica,sans-Serif" font-size="10.00">math.h</text>
</a>
</g>
</g>
<!-- Node1&#45;&gt;Node9 -->
<g id="edge9" class="edge">
<title>Node1&#45;&gt;Node9</title>
<path fill="none" stroke="midnightblue" d="M1149.39,-224.47C1198.06,-216.65 1270.95,-204.15 1343.5,-187.94"/>
<polygon fill="midnightblue" stroke="midnightblue" points="1344.29,-191.36 1353.27,-185.74 1342.74,-184.53 1344.29,-191.36"/>
</g>
<!-- Node10 -->
<g id="node10" class="node">
<title>Node10</title>
<g id="a_node10"><a xlink:title=" ">
<polygon fill="white" stroke="#bfbfbf" points="1418.5,-168.5 1418.5,-187.5 1467.5,-187.5 1467.5,-168.5 1418.5,-168.5"/>
<text text-anchor="middle" x="1443" y="-175.5" font-family="Helvetica,sans-Serif" font-size="10.00">ctype.h</text>
</a>
</g>
</g>
<!-- Node1&#45;&gt;Node10 -->
<g id="edge10" class="edge">
<title>Node1&#45;&gt;Node10</title>
<path fill="none" stroke="midnightblue" d="M1157.05,-226.37C1218.87,-219.34 1315.92,-206.89 1408.15,-188.19"/>
<polygon fill="midnightblue" stroke="midnightblue" points="1409.12,-191.56 1418.21,-186.12 1407.71,-184.7 1409.12,-191.56"/>
</g>
<!-- Node11 -->
<g id="node11" class="node">
<title>Node11</title>
<g id="a_node11"><a xlink:title=" ">
<polygon fill="white" stroke="#bfbfbf" points="1486,-168.5 1486,-187.5 1530,-187.5 1530,-168.5 1486,-168.5"/>
<text text-anchor="middle" x="1508" y="-175.5" font-family="Helvetica,sans-Serif" font-size="10.00">float.h</text>
</a>
</g>
</g>
<!-- Node1&#45;&gt;Node11 -->
<g id="edge11" class="edge">
<title>Node1&#45;&gt;Node11</title>
<path fill="none" stroke="midnightblue" d="M1157.2,-228.8C1231.46,-223.14 1358.43,-211.23 1475.88,-187.93"/>
<polygon fill="midnightblue" stroke="midnightblue" points="1476.65,-191.34 1485.76,-185.94 1475.26,-184.48 1476.65,-191.34"/>
</g>
<!-- Node12 -->
<g id="node12" class="node">
<title>Node12</title>
<g id="a_node12"><a xlink:title=" ">
<polygon fill="white" stroke="#bfbfbf" points="1003,-56.5 1003,-75.5 1055,-75.5 1055,-56.5 1003,-56.5"/>
<text text-anchor="middle" x="1029" y="-63.5" font-family="Helvetica,sans-Serif" font-size="10.00">assert.h</text>
</a>
</g>
</g>
<!-- Node1&#45;&gt;Node12 -->
<g id="edge12" class="edge">
<title>Node1&#45;&gt;Node12</title>
<path fill="none" stroke="midnightblue" d="M1096.54,-224.45C1102.19,-203.73 1113.79,-149.77 1094,-112 1086.72,-98.11 1072.99,-87.65 1060.02,-80.33"/>
<polygon fill="midnightblue" stroke="midnightblue" points="1061.3,-77.05 1050.81,-75.55 1058.07,-83.27 1061.3,-77.05"/>
</g>
<!-- Node13 -->
<g id="node13" class="node">
<title>Node13</title>
<g id="a_node13"><a xlink:href="cs__parall_8h.html" target="_top" xlink:title=" ">
<polygon fill="white" stroke="black" points="128,-168.5 128,-187.5 216,-187.5 216,-168.5 128,-168.5"/>
<text text-anchor="middle" x="172" y="-175.5" font-family="Helvetica,sans-Serif" font-size="10.00">base/cs_parall.h</text>
</a>
</g>
</g>
<!-- Node1&#45;&gt;Node13 -->
<g id="edge13" class="edge">
<title>Node1&#45;&gt;Node13</title>
<path fill="none" stroke="midnightblue" d="M1030.91,-229.61C897.23,-222.39 575.6,-204.75 306,-188 279.73,-186.37 250.58,-184.43 226.19,-182.76"/>
<polygon fill="midnightblue" stroke="midnightblue" points="226.27,-179.26 216.05,-182.07 225.79,-186.24 226.27,-179.26"/>
</g>
<!-- Node16 -->
<g id="node16" class="node">
<title>Node16</title>
<g id="a_node16"><a xlink:href="cs__time__step_8h.html" target="_top" xlink:title=" ">
<polygon fill="white" stroke="black" points="200.5,-112.5 200.5,-131.5 307.5,-131.5 307.5,-112.5 200.5,-112.5"/>
<text text-anchor="middle" x="254" y="-119.5" font-family="Helvetica,sans-Serif" font-size="10.00">base/cs_time_step.h</text>
</a>
</g>
</g>
<!-- Node1&#45;&gt;Node16 -->
<g id="edge18" class="edge">
<title>Node1&#45;&gt;Node16</title>
<path fill="none" stroke="midnightblue" d="M1030.84,-231.47C924.28,-228.13 702.24,-217.91 517,-188 435.77,-174.89 342.74,-149.34 291.97,-134.48"/>
<polygon fill="midnightblue" stroke="midnightblue" points="292.68,-131.04 282.1,-131.57 290.7,-137.75 292.68,-131.04"/>
</g>
<!-- Node17 -->
<g id="node17" class="node">
<title>Node17</title>
<g id="a_node17"><a xlink:href="cs__lagr_8h.html" target="_top" xlink:title=" ">
<polygon fill="white" stroke="black" points="613.5,-168.5 613.5,-187.5 688.5,-187.5 688.5,-168.5 613.5,-168.5"/>
<text text-anchor="middle" x="651" y="-175.5" font-family="Helvetica,sans-Serif" font-size="10.00">lagr/cs_lagr.h</text>
</a>
</g>
</g>
<!-- Node1&#45;&gt;Node17 -->
<g id="edge20" class="edge">
<title>Node1&#45;&gt;Node17</title>
<path fill="none" stroke="midnightblue" d="M1030.9,-226.07C955.28,-217.64 824.77,-202.71 713,-188 708.33,-187.38 703.46,-186.72 698.59,-186.04"/>
<polygon fill="midnightblue" stroke="midnightblue" points="699.08,-182.57 688.68,-184.63 698.09,-189.5 699.08,-182.57"/>
</g>
<!-- Node21 -->
<g id="node21" class="node">
<title>Node21</title>
<g id="a_node21"><a xlink:href="cs__lagr__particle_8h.html" target="_top" xlink:title=" ">
<polygon fill="white" stroke="black" points="973,-112.5 973,-131.5 1085,-131.5 1085,-112.5 973,-112.5"/>
<text text-anchor="middle" x="1029" y="-119.5" font-family="Helvetica,sans-Serif" font-size="10.00">lagr/cs_lagr_particle.h</text>
</a>
</g>
</g>
<!-- Node1&#45;&gt;Node21 -->
<g id="edge30" class="edge">
<title>Node1&#45;&gt;Node21</title>
<path fill="none" stroke="midnightblue" d="M1088.87,-224.15C1081.6,-211.62 1067.86,-188.02 1056,-168 1050.59,-158.87 1044.52,-148.74 1039.5,-140.4"/>
<polygon fill="midnightblue" stroke="midnightblue" points="1042.36,-138.37 1034.21,-131.61 1036.37,-141.98 1042.36,-138.37"/>
</g>
<!-- Node22 -->
<g id="node22" class="node">
<title>Node22</title>
<g id="a_node22"><a xlink:href="cs__lagr__tracking_8h.html" target="_top" xlink:title=" ">
<polygon fill="white" stroke="black" points="931.5,-168.5 931.5,-187.5 1046.5,-187.5 1046.5,-168.5 931.5,-168.5"/>
<text text-anchor="middle" x="989" y="-175.5" font-family="Helvetica,sans-Serif" font-size="10.00">lagr/cs_lagr_tracking.h</text>
</a>
</g>
</g>
<!-- Node1&#45;&gt;Node22 -->
<g id="edge34" class="edge">
<title>Node1&#45;&gt;Node22</title>
<path fill="none" stroke="midnightblue" d="M1077.13,-224.32C1060.29,-215.66 1034.19,-202.24 1014.76,-192.25"/>
<polygon fill="midnightblue" stroke="midnightblue" points="1016.32,-189.12 1005.83,-187.65 1013.12,-195.34 1016.32,-189.12"/>
</g>
<!-- Node23 -->
<g id="node23" class="node">
<title>Node23</title>
<g id="a_node23"><a xlink:href="cs__lagr__print_8h.html" target="_top" xlink:title=" ">
<polygon fill="white" stroke="black" points="325.5,-112.5 325.5,-131.5 424.5,-131.5 424.5,-112.5 325.5,-112.5"/>
<text text-anchor="middle" x="375" y="-119.5" font-family="Helvetica,sans-Serif" font-size="10.00">lagr/cs_lagr_print.h</text>
</a>
</g>
</g>
<!-- Node1&#45;&gt;Node23 -->
<g id="edge37" class="edge">
<title>Node1&#45;&gt;Node23</title>
<path fill="none" stroke="midnightblue" d="M1030.97,-230.9C937.34,-226.94 756.3,-216.09 605,-188 534.22,-174.86 453.75,-149.68 409.22,-134.81"/>
<polygon fill="midnightblue" stroke="midnightblue" points="410.09,-131.41 399.49,-131.53 407.85,-138.04 410.09,-131.41"/>
</g>
<!-- Node3 -->
<g id="node3" class="node">
<title>Node3</title>
<g id="a_node3"><a xlink:title=" ">
<polygon fill="white" stroke="#bfbfbf" points="536.5,-0.5 536.5,-19.5 627.5,-19.5 627.5,-0.5 536.5,-0.5"/>
<text text-anchor="middle" x="582" y="-7.5" font-family="Helvetica,sans-Serif" font-size="10.00">base/cs_config.h</text>
</a>
</g>
</g>
<!-- Node2&#45;&gt;Node3 -->
<g id="edge2" class="edge">
<title>Node2&#45;&gt;Node3</title>
<path fill="none" stroke="midnightblue" d="M582,-56.08C582,-49.01 582,-38.86 582,-29.99"/>
<polygon fill="midnightblue" stroke="midnightblue" points="585.5,-29.75 582,-19.75 578.5,-29.75 585.5,-29.75"/>
</g>
<!-- Node2&#45;&gt;Node4 -->
<g id="edge3" class="edge">
<title>Node2&#45;&gt;Node4</title>
<path fill="none" stroke="midnightblue" d="M623.79,-59.01C698.91,-48.25 855.42,-25.84 924.71,-15.91"/>
<polygon fill="midnightblue" stroke="midnightblue" points="925.27,-19.37 934.67,-14.48 924.28,-12.44 925.27,-19.37"/>
</g>
<!-- Node13&#45;&gt;Node2 -->
<g id="edge14" class="edge">
<title>Node13&#45;&gt;Node2</title>
<path fill="none" stroke="midnightblue" d="M171.73,-168.24C171.83,-154.02 174.28,-126.1 191,-112 241.1,-69.76 435.63,-65.55 530.03,-66.1"/>
<polygon fill="midnightblue" stroke="midnightblue" points="530.18,-69.6 540.21,-66.18 530.24,-62.6 530.18,-69.6"/>
</g>
<!-- Node14 -->
<g id="node14" class="node">
<title>Node14</title>
<g id="a_node14"><a xlink:href="cs__execution__context_8h.html" target="_top" xlink:title=" ">
<polygon fill="white" stroke="black" points="0,-112.5 0,-131.5 144,-131.5 144,-112.5 0,-112.5"/>
<text text-anchor="middle" x="72" y="-119.5" font-family="Helvetica,sans-Serif" font-size="10.00">base/cs_execution_context.h</text>
</a>
</g>
</g>
<!-- Node13&#45;&gt;Node14 -->
<g id="edge15" class="edge">
<title>Node13&#45;&gt;Node14</title>
<path fill="none" stroke="midnightblue" d="M155.93,-168.32C140.04,-159.74 115.49,-146.49 97.04,-136.52"/>
<polygon fill="midnightblue" stroke="midnightblue" points="98.49,-133.33 88.03,-131.65 95.16,-139.49 98.49,-133.33"/>
</g>
<!-- Node14&#45;&gt;Node2 -->
<g id="edge16" class="edge">
<title>Node14&#45;&gt;Node2</title>
<path fill="none" stroke="midnightblue" d="M144.26,-113.35C248.51,-102.31 438.6,-82.18 530.09,-72.5"/>
<polygon fill="midnightblue" stroke="midnightblue" points="530.64,-75.96 540.22,-71.42 529.9,-69 530.64,-75.96"/>
</g>
<!-- Node15 -->
<g id="node15" class="node">
<title>Node15</title>
<g id="a_node15"><a xlink:title=" ">
<polygon fill="white" stroke="#bfbfbf" points="52,-56.5 52,-75.5 92,-75.5 92,-56.5 52,-56.5"/>
<text text-anchor="middle" x="72" y="-63.5" font-family="Helvetica,sans-Serif" font-size="10.00">utility</text>
</a>
</g>
</g>
<!-- Node14&#45;&gt;Node15 -->
<g id="edge17" class="edge">
<title>Node14&#45;&gt;Node15</title>
<path fill="none" stroke="midnightblue" d="M72,-112.08C72,-105.01 72,-94.86 72,-85.99"/>
<polygon fill="midnightblue" stroke="midnightblue" points="75.5,-85.75 72,-75.75 68.5,-85.75 75.5,-85.75"/>
</g>
<!-- Node16&#45;&gt;Node2 -->
<g id="edge19" class="edge">
<title>Node16&#45;&gt;Node2</title>
<path fill="none" stroke="midnightblue" d="M305.97,-112.44C367.36,-102.34 468.86,-85.63 530.18,-75.53"/>
<polygon fill="midnightblue" stroke="midnightblue" points="531.11,-78.93 540.41,-73.85 529.97,-72.02 531.11,-78.93"/>
</g>
<!-- Node17&#45;&gt;Node2 -->
<g id="edge21" class="edge">
<title>Node17&#45;&gt;Node2</title>
<path fill="none" stroke="midnightblue" d="M613.16,-172.84C566.15,-166.81 490.04,-153.88 473,-132 452.81,-106.07 493.16,-88.29 530.35,-77.96"/>
<polygon fill="midnightblue" stroke="midnightblue" points="531.42,-81.3 540.2,-75.37 529.64,-74.53 531.42,-81.3"/>
</g>
<!-- Node17&#45;&gt;Node12 -->
<g id="edge22" class="edge">
<title>Node17&#45;&gt;Node12</title>
<path fill="none" stroke="midnightblue" d="M688.77,-169.93C729.07,-162.05 794.6,-148.25 850,-132 902.98,-116.46 963.02,-93.53 998.36,-79.47"/>
<polygon fill="midnightblue" stroke="midnightblue" points="1000.09,-82.54 1008.07,-75.58 997.48,-76.05 1000.09,-82.54"/>
</g>
<!-- Node18 -->
<g id="node18" class="node">
<title>Node18</title>
<g id="a_node18"><a xlink:href="cs__base_8h.html" target="_top" xlink:title=" ">
<polygon fill="white" stroke="black" points="755,-112.5 755,-131.5 841,-131.5 841,-112.5 755,-112.5"/>
<text text-anchor="middle" x="798" y="-119.5" font-family="Helvetica,sans-Serif" font-size="10.00">base/cs_base.h</text>
</a>
</g>
</g>
<!-- Node17&#45;&gt;Node18 -->
<g id="edge23" class="edge">
<title>Node17&#45;&gt;Node18</title>
<path fill="none" stroke="midnightblue" d="M674.29,-168.44C698.81,-159.44 737.6,-145.19 765.2,-135.05"/>
<polygon fill="midnightblue" stroke="midnightblue" points="766.64,-138.25 774.82,-131.52 764.22,-131.68 766.64,-138.25"/>
</g>
<!-- Node19 -->
<g id="node19" class="node">
<title>Node19</title>
<g id="a_node19"><a xlink:href="cs__field_8h.html" target="_top" xlink:title=" ">
<polygon fill="white" stroke="black" points="481.5,-112.5 481.5,-131.5 564.5,-131.5 564.5,-112.5 481.5,-112.5"/>
<text text-anchor="middle" x="523" y="-119.5" font-family="Helvetica,sans-Serif" font-size="10.00">base/cs_field.h</text>
</a>
</g>
</g>
<!-- Node17&#45;&gt;Node19 -->
<g id="edge26" class="edge">
<title>Node17&#45;&gt;Node19</title>
<path fill="none" stroke="midnightblue" d="M630.72,-168.44C609.65,-159.56 576.48,-145.56 552.51,-135.45"/>
<polygon fill="midnightblue" stroke="midnightblue" points="553.76,-132.18 543.19,-131.52 551.04,-138.63 553.76,-132.18"/>
</g>
<!-- Node20 -->
<g id="node20" class="node">
<title>Node20</title>
<g id="a_node20"><a xlink:href="cs__lagr__injection_8h.html" target="_top" xlink:title=" ">
<polygon fill="white" stroke="black" points="583,-112.5 583,-131.5 699,-131.5 699,-112.5 583,-112.5"/>
<text text-anchor="middle" x="641" y="-119.5" font-family="Helvetica,sans-Serif" font-size="10.00">lagr/cs_lagr_injection.h</text>
</a>
</g>
</g>
<!-- Node17&#45;&gt;Node20 -->
<g id="edge28" class="edge">
<title>Node17&#45;&gt;Node20</title>
<path fill="none" stroke="midnightblue" d="M649.35,-168.08C648.02,-160.93 646.12,-150.64 644.46,-141.69"/>
<polygon fill="midnightblue" stroke="midnightblue" points="647.88,-140.95 642.62,-131.75 641,-142.22 647.88,-140.95"/>
</g>
<!-- Node18&#45;&gt;Node2 -->
<g id="edge24" class="edge">
<title>Node18&#45;&gt;Node2</title>
<path fill="none" stroke="midnightblue" d="M763.77,-112.44C726.49,-103.12 666.73,-88.18 625.99,-78"/>
<polygon fill="midnightblue" stroke="midnightblue" points="626.62,-74.55 616.07,-75.52 624.92,-81.34 626.62,-74.55"/>
</g>
<!-- Node18&#45;&gt;Node6 -->
<g id="edge25" class="edge">
<title>Node18&#45;&gt;Node6</title>
<path fill="none" stroke="midnightblue" d="M803.78,-112.08C808.67,-104.53 815.83,-93.49 821.83,-84.23"/>
<polygon fill="midnightblue" stroke="midnightblue" points="824.83,-86.05 827.33,-75.75 818.95,-82.24 824.83,-86.05"/>
</g>
<!-- Node19&#45;&gt;Node2 -->
<g id="edge27" class="edge">
<title>Node19&#45;&gt;Node2</title>
<path fill="none" stroke="midnightblue" d="M532.48,-112.32C541.2,-104.34 554.34,-92.31 564.9,-82.65"/>
<polygon fill="midnightblue" stroke="midnightblue" points="567.33,-85.17 572.35,-75.83 562.61,-80 567.33,-85.17"/>
</g>
<!-- Node20&#45;&gt;Node2 -->
<g id="edge29" class="edge">
<title>Node20&#45;&gt;Node2</title>
<path fill="none" stroke="midnightblue" d="M631.52,-112.32C622.8,-104.34 609.66,-92.31 599.1,-82.65"/>
<polygon fill="midnightblue" stroke="midnightblue" points="601.39,-80 591.65,-75.83 596.67,-85.17 601.39,-80"/>
</g>
<!-- Node21&#45;&gt;Node2 -->
<g id="edge31" class="edge">
<title>Node21&#45;&gt;Node2</title>
<path fill="none" stroke="midnightblue" d="M972.84,-113.73C968.16,-113.14 963.5,-112.56 959,-112 842.88,-97.6 706.52,-81.54 633.83,-73.04"/>
<polygon fill="midnightblue" stroke="midnightblue" points="633.91,-69.52 623.58,-71.84 633.1,-76.47 633.91,-69.52"/>
</g>
<!-- Node21&#45;&gt;Node8 -->
<g id="edge33" class="edge">
<title>Node21&#45;&gt;Node8</title>
<path fill="none" stroke="midnightblue" d="M1043.14,-112.32C1056.87,-103.9 1077.94,-90.97 1094.06,-81.07"/>
<polygon fill="midnightblue" stroke="midnightblue" points="1096.2,-83.87 1102.9,-75.65 1092.54,-77.9 1096.2,-83.87"/>
</g>
<!-- Node21&#45;&gt;Node12 -->
<g id="edge32" class="edge">
<title>Node21&#45;&gt;Node12</title>
<path fill="none" stroke="midnightblue" d="M1029,-112.08C1029,-105.01 1029,-94.86 1029,-85.99"/>
<polygon fill="midnightblue" stroke="midnightblue" points="1032.5,-85.75 1029,-75.75 1025.5,-85.75 1032.5,-85.75"/>
</g>
<!-- Node22&#45;&gt;Node2 -->
<g id="edge35" class="edge">
<title>Node22&#45;&gt;Node2</title>
<path fill="none" stroke="midnightblue" d="M974.12,-168.38C949.25,-154.37 897.31,-126.73 850,-112 776.79,-89.2 688.52,-77.21 633.82,-71.5"/>
<polygon fill="midnightblue" stroke="midnightblue" points="633.97,-68 623.67,-70.47 633.27,-74.96 633.97,-68"/>
</g>
<!-- Node22&#45;&gt;Node21 -->
<g id="edge36" class="edge">
<title>Node22&#45;&gt;Node21</title>
<path fill="none" stroke="midnightblue" d="M995.61,-168.08C1001.26,-160.46 1009.54,-149.26 1016.45,-139.94"/>
<polygon fill="midnightblue" stroke="midnightblue" points="1019.38,-141.87 1022.52,-131.75 1013.75,-137.7 1019.38,-141.87"/>
</g>
<!-- Node23&#45;&gt;Node2 -->
<g id="edge38" class="edge">
<title>Node23&#45;&gt;Node2</title>
<path fill="none" stroke="midnightblue" d="M407.8,-112.44C443.38,-103.16 500.31,-88.31 539.35,-78.13"/>
<polygon fill="midnightblue" stroke="midnightblue" points="540.56,-81.43 549.35,-75.52 538.79,-74.65 540.56,-81.43"/>
</g>
</g>
</svg>
