<?xml version="1.0" encoding="UTF-8" standalone="no"?>
<!DOCTYPE svg PUBLIC "-//W3C//DTD SVG 1.1//EN"
 "http://www.w3.org/Graphics/SVG/1.1/DTD/svg11.dtd">
<!-- Generated by graphviz version 2.43.0 (0)
 -->
<!-- Title: src/base/cs_field_pointer.cpp Pages: 1 -->
<svg width="668pt" height="252pt"
 viewBox="0.00 0.00 668.00 252.00" xmlns="http://www.w3.org/2000/svg" xmlns:xlink="http://www.w3.org/1999/xlink">
<g id="graph0" class="graph" transform="scale(1 1) rotate(0) translate(4 248)">
<title>src/base/cs_field_pointer.cpp</title>
<polygon fill="white" stroke="transparent" points="-4,4 -4,-248 664,-248 664,4 -4,4"/>
<!-- Node1 -->
<g id="node1" class="node">
<title>Node1</title>
<g id="a_node1"><a xlink:title=" ">
<polygon fill="#bfbfbf" stroke="black" points="245.5,-224.5 245.5,-243.5 389.5,-243.5 389.5,-224.5 245.5,-224.5"/>
<text text-anchor="middle" x="317.5" y="-231.5" font-family="Helvetica,sans-Serif" font-size="10.00">src/base/cs_field_pointer.cpp</text>
</a>
</g>
</g>
<!-- Node2 -->
<g id="node2" class="node">
<title>Node2</title>
<g id="a_node2"><a xlink:href="cs__defs_8h.html" target="_top" xlink:title=" ">
<polygon fill="white" stroke="black" points="195,-56.5 195,-75.5 278,-75.5 278,-56.5 195,-56.5"/>
<text text-anchor="middle" x="236.5" y="-63.5" font-family="Helvetica,sans-Serif" font-size="10.00">base/cs_defs.h</text>
</a>
</g>
</g>
<!-- Node1&#45;&gt;Node2 -->
<g id="edge1" class="edge">
<title>Node1&#45;&gt;Node2</title>
<path fill="none" stroke="midnightblue" d="M311.84,-224.44C305.92,-215.43 296.4,-200.82 288.5,-188 273.34,-163.41 266.97,-158.51 255.5,-132 248.93,-116.83 243.85,-98.71 240.6,-85.46"/>
<polygon fill="midnightblue" stroke="midnightblue" points="243.99,-84.59 238.31,-75.65 237.17,-86.18 243.99,-84.59"/>
</g>
<!-- Node4 -->
<g id="node4" class="node">
<title>Node4</title>
<g id="a_node4"><a xlink:title=" ">
<polygon fill="white" stroke="#bfbfbf" points="362.5,-0.5 362.5,-19.5 410.5,-19.5 410.5,-0.5 362.5,-0.5"/>
<text text-anchor="middle" x="386.5" y="-7.5" font-family="Helvetica,sans-Serif" font-size="10.00">stdlib.h</text>
</a>
</g>
</g>
<!-- Node1&#45;&gt;Node4 -->
<g id="edge6" class="edge">
<title>Node1&#45;&gt;Node4</title>
<path fill="none" stroke="midnightblue" d="M372.64,-224.42C394.1,-218.09 416.59,-207.1 429.5,-188 463.98,-136.99 421.14,-61.19 398.65,-27.81"/>
<polygon fill="midnightblue" stroke="midnightblue" points="401.51,-25.79 392.92,-19.58 395.76,-29.79 401.51,-25.79"/>
</g>
<!-- Node5 -->
<g id="node5" class="node">
<title>Node5</title>
<g id="a_node5"><a xlink:title=" ">
<polygon fill="white" stroke="#bfbfbf" points="476.5,-168.5 476.5,-187.5 528.5,-187.5 528.5,-168.5 476.5,-168.5"/>
<text text-anchor="middle" x="502.5" y="-175.5" font-family="Helvetica,sans-Serif" font-size="10.00">assert.h</text>
</a>
</g>
</g>
<!-- Node1&#45;&gt;Node5 -->
<g id="edge4" class="edge">
<title>Node1&#45;&gt;Node5</title>
<path fill="none" stroke="midnightblue" d="M346.81,-224.44C379.27,-214.97 431.61,-199.69 466.52,-189.5"/>
<polygon fill="midnightblue" stroke="midnightblue" points="467.7,-192.81 476.31,-186.64 465.73,-186.09 467.7,-192.81"/>
</g>
<!-- Node6 -->
<g id="node6" class="node">
<title>Node6</title>
<g id="a_node6"><a xlink:title=" ">
<polygon fill="white" stroke="#bfbfbf" points="546.5,-168.5 546.5,-187.5 592.5,-187.5 592.5,-168.5 546.5,-168.5"/>
<text text-anchor="middle" x="569.5" y="-175.5" font-family="Helvetica,sans-Serif" font-size="10.00">stdio.h</text>
</a>
</g>
</g>
<!-- Node1&#45;&gt;Node6 -->
<g id="edge5" class="edge">
<title>Node1&#45;&gt;Node6</title>
<path fill="none" stroke="midnightblue" d="M364.07,-224.49C406.57,-216.49 471.31,-203.75 536.45,-188.12"/>
<polygon fill="midnightblue" stroke="midnightblue" points="537.59,-191.44 546.48,-185.69 535.94,-184.64 537.59,-191.44"/>
</g>
<!-- Node7 -->
<g id="node7" class="node">
<title>Node7</title>
<g id="a_node7"><a xlink:title=" ">
<polygon fill="white" stroke="#bfbfbf" points="611,-168.5 611,-187.5 660,-187.5 660,-168.5 611,-168.5"/>
<text text-anchor="middle" x="635.5" y="-175.5" font-family="Helvetica,sans-Serif" font-size="10.00">string.h</text>
</a>
</g>
</g>
<!-- Node1&#45;&gt;Node7 -->
<g id="edge7" class="edge">
<title>Node1&#45;&gt;Node7</title>
<path fill="none" stroke="midnightblue" d="M383.56,-224.47C438.97,-216.88 520.37,-204.69 600.42,-188.04"/>
<polygon fill="midnightblue" stroke="midnightblue" points="601.62,-191.37 610.69,-185.88 600.18,-184.52 601.62,-191.37"/>
</g>
<!-- Node8 -->
<g id="node8" class="node">
<title>Node8</title>
<g id="a_node8"><a xlink:href="bft__error_8h.html" target="_top" xlink:title=" ">
<polygon fill="white" stroke="black" points="95,-112.5 95,-131.5 170,-131.5 170,-112.5 95,-112.5"/>
<text text-anchor="middle" x="132.5" y="-119.5" font-family="Helvetica,sans-Serif" font-size="10.00">bft/bft_error.h</text>
</a>
</g>
</g>
<!-- Node1&#45;&gt;Node8 -->
<g id="edge8" class="edge">
<title>Node1&#45;&gt;Node8</title>
<path fill="none" stroke="midnightblue" d="M245.26,-226.55C193.45,-220.25 130,-208.53 113.5,-188 102.39,-174.17 110.98,-154.05 119.91,-139.87"/>
<polygon fill="midnightblue" stroke="midnightblue" points="122.86,-141.76 125.62,-131.53 117.08,-137.8 122.86,-141.76"/>
</g>
<!-- Node10 -->
<g id="node10" class="node">
<title>Node10</title>
<g id="a_node10"><a xlink:href="bft__printf_8h.html" target="_top" xlink:title=" ">
<polygon fill="white" stroke="black" points="0,-112.5 0,-131.5 77,-131.5 77,-112.5 0,-112.5"/>
<text text-anchor="middle" x="38.5" y="-119.5" font-family="Helvetica,sans-Serif" font-size="10.00">bft/bft_printf.h</text>
</a>
</g>
</g>
<!-- Node1&#45;&gt;Node10 -->
<g id="edge11" class="edge">
<title>Node1&#45;&gt;Node10</title>
<path fill="none" stroke="midnightblue" d="M245.45,-227.99C202.45,-222.58 147.95,-211.34 104.5,-188 82.47,-176.17 62.86,-154.73 50.85,-139.72"/>
<polygon fill="midnightblue" stroke="midnightblue" points="53.57,-137.53 44.69,-131.75 48.03,-141.8 53.57,-137.53"/>
</g>
<!-- Node11 -->
<g id="node11" class="node">
<title>Node11</title>
<g id="a_node11"><a xlink:href="cs__field_8h.html" target="_top" xlink:title=" ">
<polygon fill="white" stroke="black" points="265,-112.5 265,-131.5 348,-131.5 348,-112.5 265,-112.5"/>
<text text-anchor="middle" x="306.5" y="-119.5" font-family="Helvetica,sans-Serif" font-size="10.00">base/cs_field.h</text>
</a>
</g>
</g>
<!-- Node1&#45;&gt;Node11 -->
<g id="edge14" class="edge">
<title>Node1&#45;&gt;Node11</title>
<path fill="none" stroke="midnightblue" d="M311.13,-224.23C305.24,-215.53 296.89,-201.57 293.5,-188 289.62,-172.47 293.79,-154.64 298.41,-141.58"/>
<polygon fill="midnightblue" stroke="midnightblue" points="301.82,-142.48 302.23,-131.89 295.31,-139.91 301.82,-142.48"/>
</g>
<!-- Node12 -->
<g id="node12" class="node">
<title>Node12</title>
<g id="a_node12"><a xlink:href="cs__mem_8h.html" target="_top" xlink:title=" ">
<polygon fill="white" stroke="black" points="122.5,-168.5 122.5,-187.5 208.5,-187.5 208.5,-168.5 122.5,-168.5"/>
<text text-anchor="middle" x="165.5" y="-175.5" font-family="Helvetica,sans-Serif" font-size="10.00">base/cs_mem.h</text>
</a>
</g>
</g>
<!-- Node1&#45;&gt;Node12 -->
<g id="edge16" class="edge">
<title>Node1&#45;&gt;Node12</title>
<path fill="none" stroke="midnightblue" d="M293.42,-224.44C267.96,-215.4 227.61,-201.06 199.04,-190.92"/>
<polygon fill="midnightblue" stroke="midnightblue" points="200.07,-187.57 189.47,-187.52 197.72,-194.16 200.07,-187.57"/>
</g>
<!-- Node13 -->
<g id="node13" class="node">
<title>Node13</title>
<g id="a_node13"><a xlink:href="cs__field__pointer_8h.html" target="_top" xlink:title=" ">
<polygon fill="white" stroke="black" points="303,-168.5 303,-187.5 420,-187.5 420,-168.5 303,-168.5"/>
<text text-anchor="middle" x="361.5" y="-175.5" font-family="Helvetica,sans-Serif" font-size="10.00">base/cs_field_pointer.h</text>
</a>
</g>
</g>
<!-- Node1&#45;&gt;Node13 -->
<g id="edge19" class="edge">
<title>Node1&#45;&gt;Node13</title>
<path fill="none" stroke="midnightblue" d="M324.77,-224.08C331.04,-216.38 340.29,-205.03 347.93,-195.65"/>
<polygon fill="midnightblue" stroke="midnightblue" points="350.77,-197.71 354.37,-187.75 345.34,-193.29 350.77,-197.71"/>
</g>
<!-- Node3 -->
<g id="node3" class="node">
<title>Node3</title>
<g id="a_node3"><a xlink:title=" ">
<polygon fill="white" stroke="#bfbfbf" points="191,-0.5 191,-19.5 282,-19.5 282,-0.5 191,-0.5"/>
<text text-anchor="middle" x="236.5" y="-7.5" font-family="Helvetica,sans-Serif" font-size="10.00">base/cs_config.h</text>
</a>
</g>
</g>
<!-- Node2&#45;&gt;Node3 -->
<g id="edge2" class="edge">
<title>Node2&#45;&gt;Node3</title>
<path fill="none" stroke="midnightblue" d="M236.5,-56.08C236.5,-49.01 236.5,-38.86 236.5,-29.99"/>
<polygon fill="midnightblue" stroke="midnightblue" points="240,-29.75 236.5,-19.75 233,-29.75 240,-29.75"/>
</g>
<!-- Node2&#45;&gt;Node4 -->
<g id="edge3" class="edge">
<title>Node2&#45;&gt;Node4</title>
<path fill="none" stroke="midnightblue" d="M260.27,-56.44C285.39,-47.4 325.21,-33.06 353.4,-22.92"/>
<polygon fill="midnightblue" stroke="midnightblue" points="354.62,-26.2 362.84,-19.52 352.25,-19.61 354.62,-26.2"/>
</g>
<!-- Node8&#45;&gt;Node2 -->
<g id="edge9" class="edge">
<title>Node8&#45;&gt;Node2</title>
<path fill="none" stroke="midnightblue" d="M149.21,-112.32C165.81,-103.7 191.5,-90.36 210.72,-80.39"/>
<polygon fill="midnightblue" stroke="midnightblue" points="212.57,-83.37 219.83,-75.65 209.34,-77.16 212.57,-83.37"/>
</g>
<!-- Node9 -->
<g id="node9" class="node">
<title>Node9</title>
<g id="a_node9"><a xlink:title=" ">
<polygon fill="white" stroke="#bfbfbf" points="59.5,-56.5 59.5,-75.5 111.5,-75.5 111.5,-56.5 59.5,-56.5"/>
<text text-anchor="middle" x="85.5" y="-63.5" font-family="Helvetica,sans-Serif" font-size="10.00">stdarg.h</text>
</a>
</g>
</g>
<!-- Node8&#45;&gt;Node9 -->
<g id="edge10" class="edge">
<title>Node8&#45;&gt;Node9</title>
<path fill="none" stroke="midnightblue" d="M124.74,-112.08C117.96,-104.3 107.96,-92.8 99.74,-83.37"/>
<polygon fill="midnightblue" stroke="midnightblue" points="102.32,-81 93.12,-75.75 97.04,-85.59 102.32,-81"/>
</g>
<!-- Node10&#45;&gt;Node2 -->
<g id="edge12" class="edge">
<title>Node10&#45;&gt;Node2</title>
<path fill="none" stroke="midnightblue" d="M69.87,-112.44C103.76,-103.2 157.9,-88.44 195.22,-78.26"/>
<polygon fill="midnightblue" stroke="midnightblue" points="196.55,-81.52 205.27,-75.52 194.7,-74.77 196.55,-81.52"/>
</g>
<!-- Node10&#45;&gt;Node9 -->
<g id="edge13" class="edge">
<title>Node10&#45;&gt;Node9</title>
<path fill="none" stroke="midnightblue" d="M46.26,-112.08C53.04,-104.3 63.04,-92.8 71.26,-83.37"/>
<polygon fill="midnightblue" stroke="midnightblue" points="73.96,-85.59 77.88,-75.75 68.68,-81 73.96,-85.59"/>
</g>
<!-- Node11&#45;&gt;Node2 -->
<g id="edge15" class="edge">
<title>Node11&#45;&gt;Node2</title>
<path fill="none" stroke="midnightblue" d="M295.25,-112.32C284.7,-104.18 268.7,-91.84 256.06,-82.09"/>
<polygon fill="midnightblue" stroke="midnightblue" points="258.01,-79.17 247.95,-75.83 253.73,-84.71 258.01,-79.17"/>
</g>
<!-- Node12&#45;&gt;Node2 -->
<g id="edge17" class="edge">
<title>Node12&#45;&gt;Node2</title>
<path fill="none" stroke="midnightblue" d="M171.07,-168.37C182.74,-150.3 209.92,-108.18 225.33,-84.31"/>
<polygon fill="midnightblue" stroke="midnightblue" points="228.47,-85.89 230.95,-75.59 222.59,-82.1 228.47,-85.89"/>
</g>
<!-- Node12&#45;&gt;Node8 -->
<g id="edge18" class="edge">
<title>Node12&#45;&gt;Node8</title>
<path fill="none" stroke="midnightblue" d="M160.05,-168.08C155.49,-160.61 148.83,-149.72 143.21,-140.52"/>
<polygon fill="midnightblue" stroke="midnightblue" points="146.05,-138.46 137.85,-131.75 140.08,-142.11 146.05,-138.46"/>
</g>
<!-- Node13&#45;&gt;Node2 -->
<g id="edge20" class="edge">
<title>Node13&#45;&gt;Node2</title>
<path fill="none" stroke="midnightblue" d="M363.5,-168.42C366.12,-154.94 369.01,-128.65 356.5,-112 340.35,-90.5 312.7,-79.27 288.02,-73.41"/>
<polygon fill="midnightblue" stroke="midnightblue" points="288.53,-69.94 278.02,-71.28 287.07,-76.79 288.53,-69.94"/>
</g>
<!-- Node13&#45;&gt;Node11 -->
<g id="edge21" class="edge">
<title>Node13&#45;&gt;Node11</title>
<path fill="none" stroke="midnightblue" d="M352.42,-168.08C344.33,-160.14 332.3,-148.34 322.59,-138.8"/>
<polygon fill="midnightblue" stroke="midnightblue" points="325,-136.26 315.41,-131.75 320.1,-141.25 325,-136.26"/>
</g>
</g>
</svg>
