<?xml version="1.0" encoding="UTF-8" standalone="no"?>
<!DOCTYPE svg PUBLIC "-//W3C//DTD SVG 1.1//EN"
 "http://www.w3.org/Graphics/SVG/1.1/DTD/svg11.dtd">
<!-- Generated by graphviz version 2.43.0 (0)
 -->
<!-- Title: src/alge/cs_sles_amgx.cpp Pages: 1 -->
<svg width="1619pt" height="588pt"
 viewBox="0.00 0.00 1618.50 588.00" xmlns="http://www.w3.org/2000/svg" xmlns:xlink="http://www.w3.org/1999/xlink">
<g id="graph0" class="graph" transform="scale(1 1) rotate(0) translate(4 584)">
<title>src/alge/cs_sles_amgx.cpp</title>
<polygon fill="white" stroke="transparent" points="-4,4 -4,-584 1614.5,-584 1614.5,4 -4,4"/>
<!-- Node1 -->
<g id="node1" class="node">
<title>Node1</title>
<g id="a_node1"><a xlink:title="handling of AmgX&#45;based linear solvers">
<polygon fill="#bfbfbf" stroke="black" points="968,-560.5 968,-579.5 1104,-579.5 1104,-560.5 968,-560.5"/>
<text text-anchor="middle" x="1036" y="-567.5" font-family="Helvetica,sans-Serif" font-size="10.00">src/alge/cs_sles_amgx.cpp</text>
</a>
</g>
</g>
<!-- Node2 -->
<g id="node2" class="node">
<title>Node2</title>
<g id="a_node2"><a xlink:href="cs__defs_8h.html" target="_top" xlink:title=" ">
<polygon fill="white" stroke="black" points="549.5,-56.5 549.5,-75.5 632.5,-75.5 632.5,-56.5 549.5,-56.5"/>
<text text-anchor="middle" x="591" y="-63.5" font-family="Helvetica,sans-Serif" font-size="10.00">base/cs_defs.h</text>
</a>
</g>
</g>
<!-- Node1&#45;&gt;Node2 -->
<g id="edge1" class="edge">
<title>Node1&#45;&gt;Node2</title>
<path fill="none" stroke="midnightblue" d="M1052.24,-560.5C1078.42,-545.75 1129.01,-512.67 1149,-468 1204.06,-344.93 1192.97,-269.3 1104,-168 1094.02,-156.64 994.57,-116.03 980,-112 862.34,-79.48 718.37,-70.44 642.87,-67.94"/>
<polygon fill="midnightblue" stroke="midnightblue" points="642.78,-64.44 632.68,-67.63 642.57,-71.43 642.78,-64.44"/>
</g>
<!-- Node4 -->
<g id="node4" class="node">
<title>Node4</title>
<g id="a_node4"><a xlink:title=" ">
<polygon fill="white" stroke="#bfbfbf" points="972,-0.5 972,-19.5 1020,-19.5 1020,-0.5 972,-0.5"/>
<text text-anchor="middle" x="996" y="-7.5" font-family="Helvetica,sans-Serif" font-size="10.00">stdlib.h</text>
</a>
</g>
</g>
<!-- Node1&#45;&gt;Node4 -->
<g id="edge6" class="edge">
<title>Node1&#45;&gt;Node4</title>
<path fill="none" stroke="midnightblue" d="M1104.15,-561.59C1163.63,-554.12 1244.59,-541.24 1272,-524 1302.4,-504.88 1320,-494.91 1320,-459 1320,-459 1320,-459 1320,-121 1320,-76.89 1284.79,-75.04 1245,-56 1173.94,-21.98 1080.24,-13.54 1030.5,-11.54"/>
<polygon fill="midnightblue" stroke="midnightblue" points="1030.39,-8.03 1020.28,-11.19 1030.16,-15.03 1030.39,-8.03"/>
</g>
<!-- Node5 -->
<g id="node5" class="node">
<title>Node5</title>
<g id="a_node5"><a xlink:title=" ">
<polygon fill="white" stroke="#bfbfbf" points="1184,-56.5 1184,-75.5 1236,-75.5 1236,-56.5 1184,-56.5"/>
<text text-anchor="middle" x="1210" y="-63.5" font-family="Helvetica,sans-Serif" font-size="10.00">stdarg.h</text>
</a>
</g>
</g>
<!-- Node1&#45;&gt;Node5 -->
<g id="edge4" class="edge">
<title>Node1&#45;&gt;Node5</title>
<path fill="none" stroke="midnightblue" d="M1104.2,-566.72C1177,-560.2 1282,-537.25 1282,-459 1282,-459 1282,-459 1282,-177 1282,-137.94 1249.82,-101.94 1228.49,-82.37"/>
<polygon fill="midnightblue" stroke="midnightblue" points="1230.75,-79.7 1220.94,-75.7 1226.12,-84.94 1230.75,-79.7"/>
</g>
<!-- Node6 -->
<g id="node6" class="node">
<title>Node6</title>
<g id="a_node6"><a xlink:title=" ">
<polygon fill="white" stroke="#bfbfbf" points="635,-168.5 635,-187.5 681,-187.5 681,-168.5 635,-168.5"/>
<text text-anchor="middle" x="658" y="-175.5" font-family="Helvetica,sans-Serif" font-size="10.00">stdio.h</text>
</a>
</g>
</g>
<!-- Node1&#45;&gt;Node6 -->
<g id="edge5" class="edge">
<title>Node1&#45;&gt;Node6</title>
<path fill="none" stroke="midnightblue" d="M998.56,-560.5C951.83,-547.42 878,-517.49 878,-459 878,-459 878,-459 878,-401 878,-369.37 784.57,-243.23 761,-224 740.37,-207.18 712.49,-195.51 690.93,-188.27"/>
<polygon fill="midnightblue" stroke="midnightblue" points="691.81,-184.88 681.22,-185.17 689.68,-191.55 691.81,-184.88"/>
</g>
<!-- Node7 -->
<g id="node7" class="node">
<title>Node7</title>
<g id="a_node7"><a xlink:title=" ">
<polygon fill="white" stroke="#bfbfbf" points="1348.5,-504.5 1348.5,-523.5 1397.5,-523.5 1397.5,-504.5 1348.5,-504.5"/>
<text text-anchor="middle" x="1373" y="-511.5" font-family="Helvetica,sans-Serif" font-size="10.00">string.h</text>
</a>
</g>
</g>
<!-- Node1&#45;&gt;Node7 -->
<g id="edge7" class="edge">
<title>Node1&#45;&gt;Node7</title>
<path fill="none" stroke="midnightblue" d="M1102.23,-560.49C1162.79,-552.35 1254.72,-539.11 1334,-524 1335.45,-523.72 1336.93,-523.43 1338.42,-523.13"/>
<polygon fill="midnightblue" stroke="midnightblue" points="1339.26,-526.53 1348.3,-521 1337.79,-519.68 1339.26,-526.53"/>
</g>
<!-- Node8 -->
<g id="node8" class="node">
<title>Node8</title>
<g id="a_node8"><a xlink:title=" ">
<polygon fill="white" stroke="#bfbfbf" points="1416,-504.5 1416,-523.5 1468,-523.5 1468,-504.5 1416,-504.5"/>
<text text-anchor="middle" x="1442" y="-511.5" font-family="Helvetica,sans-Serif" font-size="10.00">assert.h</text>
</a>
</g>
</g>
<!-- Node1&#45;&gt;Node8 -->
<g id="edge8" class="edge">
<title>Node1&#45;&gt;Node8</title>
<path fill="none" stroke="midnightblue" d="M1104.11,-563.44C1176.65,-556.9 1294.93,-544.51 1405.7,-524.03"/>
<polygon fill="midnightblue" stroke="midnightblue" points="1406.53,-527.44 1415.71,-522.15 1405.24,-520.56 1406.53,-527.44"/>
</g>
<!-- Node9 -->
<g id="node9" class="node">
<title>Node9</title>
<g id="a_node9"><a xlink:title=" ">
<polygon fill="white" stroke="#bfbfbf" points="1486.5,-504.5 1486.5,-523.5 1533.5,-523.5 1533.5,-504.5 1486.5,-504.5"/>
<text text-anchor="middle" x="1510" y="-511.5" font-family="Helvetica,sans-Serif" font-size="10.00">math.h</text>
</a>
</g>
</g>
<!-- Node1&#45;&gt;Node9 -->
<g id="edge9" class="edge">
<title>Node1&#45;&gt;Node9</title>
<path fill="none" stroke="midnightblue" d="M1104.11,-565.53C1189.14,-560.43 1339.06,-548.88 1476.45,-523.79"/>
<polygon fill="midnightblue" stroke="midnightblue" points="1477.12,-527.23 1486.31,-521.96 1475.84,-520.34 1477.12,-527.23"/>
</g>
<!-- Node10 -->
<g id="node10" class="node">
<title>Node10</title>
<g id="a_node10"><a xlink:title=" ">
<polygon fill="white" stroke="#bfbfbf" points="1551.5,-504.5 1551.5,-523.5 1610.5,-523.5 1610.5,-504.5 1551.5,-504.5"/>
<text text-anchor="middle" x="1581" y="-511.5" font-family="Helvetica,sans-Serif" font-size="10.00">amgx_c.h</text>
</a>
</g>
</g>
<!-- Node1&#45;&gt;Node10 -->
<g id="edge10" class="edge">
<title>Node1&#45;&gt;Node10</title>
<path fill="none" stroke="midnightblue" d="M1104.04,-566.08C1199.71,-561.28 1379.51,-549.74 1541.09,-524.11"/>
<polygon fill="midnightblue" stroke="midnightblue" points="1541.89,-527.53 1551.21,-522.48 1540.78,-520.62 1541.89,-527.53"/>
</g>
<!-- Node11 -->
<g id="node11" class="node">
<title>Node11</title>
<g id="a_node11"><a xlink:href="bft__error_8h.html" target="_top" xlink:title=" ">
<polygon fill="white" stroke="black" points="1045.5,-112.5 1045.5,-131.5 1120.5,-131.5 1120.5,-112.5 1045.5,-112.5"/>
<text text-anchor="middle" x="1083" y="-119.5" font-family="Helvetica,sans-Serif" font-size="10.00">bft/bft_error.h</text>
</a>
</g>
</g>
<!-- Node1&#45;&gt;Node11 -->
<g id="edge11" class="edge">
<title>Node1&#45;&gt;Node11</title>
<path fill="none" stroke="midnightblue" d="M1104.37,-561.19C1131.42,-554.98 1161.01,-543.88 1182,-524 1204.36,-502.83 1206,-489.8 1206,-459 1206,-459 1206,-459 1206,-233 1206,-184.48 1152.16,-152.01 1115.73,-135.6"/>
<polygon fill="midnightblue" stroke="midnightblue" points="1116.99,-132.33 1106.42,-131.58 1114.22,-138.76 1116.99,-132.33"/>
</g>
<!-- Node12 -->
<g id="node12" class="node">
<title>Node12</title>
<g id="a_node12"><a xlink:href="bft__printf_8h.html" target="_top" xlink:title=" ">
<polygon fill="white" stroke="black" points="1138.5,-112.5 1138.5,-131.5 1215.5,-131.5 1215.5,-112.5 1138.5,-112.5"/>
<text text-anchor="middle" x="1177" y="-119.5" font-family="Helvetica,sans-Serif" font-size="10.00">bft/bft_printf.h</text>
</a>
</g>
</g>
<!-- Node1&#45;&gt;Node12 -->
<g id="edge14" class="edge">
<title>Node1&#45;&gt;Node12</title>
<path fill="none" stroke="midnightblue" d="M1104.11,-561.36C1164.77,-550.32 1244,-523.54 1244,-459 1244,-459 1244,-459 1244,-233 1244,-194.7 1214.01,-158.42 1194.16,-138.59"/>
<polygon fill="midnightblue" stroke="midnightblue" points="1196.52,-136 1186.89,-131.6 1191.67,-141.05 1196.52,-136"/>
</g>
<!-- Node13 -->
<g id="node13" class="node">
<title>Node13</title>
<g id="a_node13"><a xlink:href="cs__base_8h.html" target="_top" xlink:title=" ">
<polygon fill="white" stroke="black" points="666,-224.5 666,-243.5 752,-243.5 752,-224.5 666,-224.5"/>
<text text-anchor="middle" x="709" y="-231.5" font-family="Helvetica,sans-Serif" font-size="10.00">base/cs_base.h</text>
</a>
</g>
</g>
<!-- Node1&#45;&gt;Node13 -->
<g id="edge17" class="edge">
<title>Node1&#45;&gt;Node13</title>
<path fill="none" stroke="midnightblue" d="M967.74,-565.83C932.93,-560.89 892.13,-549.5 864,-524 841.19,-503.32 840,-489.8 840,-459 840,-459 840,-459 840,-401 840,-332.13 769.65,-275.05 732.06,-249.47"/>
<polygon fill="midnightblue" stroke="midnightblue" points="733.54,-246.25 723.27,-243.65 729.68,-252.09 733.54,-246.25"/>
</g>
<!-- Node14 -->
<g id="node14" class="node">
<title>Node14</title>
<g id="a_node14"><a xlink:href="cs__log_8h.html" target="_top" xlink:title=" ">
<polygon fill="white" stroke="black" points="865.5,-280.5 865.5,-299.5 942.5,-299.5 942.5,-280.5 865.5,-280.5"/>
<text text-anchor="middle" x="904" y="-287.5" font-family="Helvetica,sans-Serif" font-size="10.00">base/cs_log.h</text>
</a>
</g>
</g>
<!-- Node1&#45;&gt;Node14 -->
<g id="edge20" class="edge">
<title>Node1&#45;&gt;Node14</title>
<path fill="none" stroke="midnightblue" d="M1002.74,-560.46C982.21,-553.64 956.69,-542.16 940,-524 919.17,-501.32 916,-489.8 916,-459 916,-459 916,-459 916,-401 916,-368.76 910.84,-331.51 907.29,-309.68"/>
<polygon fill="midnightblue" stroke="midnightblue" points="910.69,-308.8 905.57,-299.52 903.79,-309.97 910.69,-308.8"/>
</g>
<!-- Node15 -->
<g id="node15" class="node">
<title>Node15</title>
<g id="a_node15"><a xlink:href="cs__timer_8h.html" target="_top" xlink:title=" ">
<polygon fill="white" stroke="black" points="955,-224.5 955,-243.5 1041,-243.5 1041,-224.5 955,-224.5"/>
<text text-anchor="middle" x="998" y="-231.5" font-family="Helvetica,sans-Serif" font-size="10.00">base/cs_timer.h</text>
</a>
</g>
</g>
<!-- Node1&#45;&gt;Node15 -->
<g id="edge70" class="edge">
<title>Node1&#45;&gt;Node15</title>
<path fill="none" stroke="midnightblue" d="M1033.31,-560.46C1028,-543.2 1016.24,-502.83 1011,-468 999.11,-388.87 997.83,-293.15 997.86,-253.54"/>
<polygon fill="midnightblue" stroke="midnightblue" points="1001.36,-253.54 997.9,-243.52 994.36,-253.51 1001.36,-253.54"/>
</g>
<!-- Node16 -->
<g id="node16" class="node">
<title>Node16</title>
<g id="a_node16"><a xlink:href="cs__fp__exception_8h.html" target="_top" xlink:title=" ">
<polygon fill="white" stroke="black" points="1020,-448.5 1020,-467.5 1140,-467.5 1140,-448.5 1020,-448.5"/>
<text text-anchor="middle" x="1080" y="-455.5" font-family="Helvetica,sans-Serif" font-size="10.00">base/cs_fp_exception.h</text>
</a>
</g>
</g>
<!-- Node1&#45;&gt;Node16 -->
<g id="edge25" class="edge">
<title>Node1&#45;&gt;Node16</title>
<path fill="none" stroke="midnightblue" d="M1039.45,-560.37C1046.62,-542.46 1063.23,-500.92 1072.82,-476.95"/>
<polygon fill="midnightblue" stroke="midnightblue" points="1076.1,-478.18 1076.56,-467.59 1069.6,-475.58 1076.1,-478.18"/>
</g>
<!-- Node17 -->
<g id="node17" class="node">
<title>Node17</title>
<g id="a_node17"><a xlink:href="cs__halo_8h.html" target="_top" xlink:title=" ">
<polygon fill="white" stroke="black" points="271.5,-280.5 271.5,-299.5 354.5,-299.5 354.5,-280.5 271.5,-280.5"/>
<text text-anchor="middle" x="313" y="-287.5" font-family="Helvetica,sans-Serif" font-size="10.00">base/cs_halo.h</text>
</a>
</g>
</g>
<!-- Node1&#45;&gt;Node17 -->
<g id="edge27" class="edge">
<title>Node1&#45;&gt;Node17</title>
<path fill="none" stroke="midnightblue" d="M967.99,-567.59C762.17,-562.41 160,-540.33 160,-459 160,-459 160,-459 160,-401 160,-347.21 223.12,-317.13 268.28,-302.5"/>
<polygon fill="midnightblue" stroke="midnightblue" points="269.38,-305.83 277.9,-299.53 267.31,-299.14 269.38,-305.83"/>
</g>
<!-- Node19 -->
<g id="node19" class="node">
<title>Node19</title>
<g id="a_node19"><a xlink:href="cs__mem_8h.html" target="_top" xlink:title=" ">
<polygon fill="white" stroke="black" points="884,-168.5 884,-187.5 970,-187.5 970,-168.5 884,-168.5"/>
<text text-anchor="middle" x="927" y="-175.5" font-family="Helvetica,sans-Serif" font-size="10.00">base/cs_mem.h</text>
</a>
</g>
</g>
<!-- Node1&#45;&gt;Node19 -->
<g id="edge47" class="edge">
<title>Node1&#45;&gt;Node19</title>
<path fill="none" stroke="midnightblue" d="M1031.31,-560.24C1026.68,-551.32 1019.64,-536.99 1015,-524 1003.67,-492.29 947.87,-264.62 931.52,-197.55"/>
<polygon fill="midnightblue" stroke="midnightblue" points="934.86,-196.48 929.09,-187.59 928.06,-198.13 934.86,-196.48"/>
</g>
<!-- Node25 -->
<g id="node25" class="node">
<title>Node25</title>
<g id="a_node25"><a xlink:href="cs__matrix_8h.html" target="_top" xlink:title=" ">
<polygon fill="white" stroke="black" points="539.5,-392.5 539.5,-411.5 628.5,-411.5 628.5,-392.5 539.5,-392.5"/>
<text text-anchor="middle" x="584" y="-399.5" font-family="Helvetica,sans-Serif" font-size="10.00">alge/cs_matrix.h</text>
</a>
</g>
</g>
<!-- Node1&#45;&gt;Node25 -->
<g id="edge48" class="edge">
<title>Node1&#45;&gt;Node25</title>
<path fill="none" stroke="midnightblue" d="M967.89,-566.21C879.63,-561.59 731.42,-550.13 684,-524 640.19,-499.86 607.79,-448.13 592.97,-420.79"/>
<polygon fill="midnightblue" stroke="midnightblue" points="595.9,-418.84 588.16,-411.61 589.7,-422.09 595.9,-418.84"/>
</g>
<!-- Node28 -->
<g id="node28" class="node">
<title>Node28</title>
<g id="a_node28"><a xlink:href="cs__matrix__default_8h.html" target="_top" xlink:title=" ">
<polygon fill="white" stroke="black" points="257.5,-448.5 257.5,-467.5 380.5,-467.5 380.5,-448.5 257.5,-448.5"/>
<text text-anchor="middle" x="319" y="-455.5" font-family="Helvetica,sans-Serif" font-size="10.00">alge/cs_matrix_default.h</text>
</a>
</g>
</g>
<!-- Node1&#45;&gt;Node28 -->
<g id="edge59" class="edge">
<title>Node1&#45;&gt;Node28</title>
<path fill="none" stroke="midnightblue" d="M967.68,-565.06C879.5,-559.3 721.51,-546.73 588,-524 505.41,-509.94 410.52,-484.88 358.41,-470.32"/>
<polygon fill="midnightblue" stroke="midnightblue" points="359.15,-466.89 348.58,-467.56 357.26,-473.63 359.15,-466.89"/>
</g>
<!-- Node31 -->
<g id="node31" class="node">
<title>Node31</title>
<g id="a_node31"><a xlink:href="cs__sles_8h.html" target="_top" xlink:title=" ">
<polygon fill="white" stroke="black" points="681,-448.5 681,-467.5 761,-467.5 761,-448.5 681,-448.5"/>
<text text-anchor="middle" x="721" y="-455.5" font-family="Helvetica,sans-Serif" font-size="10.00">alge/cs_sles.h</text>
</a>
</g>
</g>
<!-- Node1&#45;&gt;Node31 -->
<g id="edge71" class="edge">
<title>Node1&#45;&gt;Node31</title>
<path fill="none" stroke="midnightblue" d="M967.97,-564.83C873.16,-558.31 710.82,-544.32 693,-524 680.67,-509.95 692.89,-489.64 704.83,-475.48"/>
<polygon fill="midnightblue" stroke="midnightblue" points="707.53,-477.71 711.64,-467.94 702.34,-473.01 707.53,-477.71"/>
</g>
<!-- Node32 -->
<g id="node32" class="node">
<title>Node32</title>
<g id="a_node32"><a xlink:href="cs__sles__amgx_8h.html" target="_top" xlink:title=" ">
<polygon fill="white" stroke="black" points="702.5,-504.5 702.5,-523.5 811.5,-523.5 811.5,-504.5 702.5,-504.5"/>
<text text-anchor="middle" x="757" y="-511.5" font-family="Helvetica,sans-Serif" font-size="10.00">alge/cs_sles_amgx.h</text>
</a>
</g>
</g>
<!-- Node1&#45;&gt;Node32 -->
<g id="edge76" class="edge">
<title>Node1&#45;&gt;Node32</title>
<path fill="none" stroke="midnightblue" d="M991.79,-560.44C942.71,-550.94 863.49,-535.61 810.84,-525.42"/>
<polygon fill="midnightblue" stroke="midnightblue" points="811.48,-521.98 801,-523.52 810.15,-528.85 811.48,-521.98"/>
</g>
<!-- Node3 -->
<g id="node3" class="node">
<title>Node3</title>
<g id="a_node3"><a xlink:title=" ">
<polygon fill="white" stroke="#bfbfbf" points="545.5,-0.5 545.5,-19.5 636.5,-19.5 636.5,-0.5 545.5,-0.5"/>
<text text-anchor="middle" x="591" y="-7.5" font-family="Helvetica,sans-Serif" font-size="10.00">base/cs_config.h</text>
</a>
</g>
</g>
<!-- Node2&#45;&gt;Node3 -->
<g id="edge2" class="edge">
<title>Node2&#45;&gt;Node3</title>
<path fill="none" stroke="midnightblue" d="M591,-56.08C591,-49.01 591,-38.86 591,-29.99"/>
<polygon fill="midnightblue" stroke="midnightblue" points="594.5,-29.75 591,-19.75 587.5,-29.75 594.5,-29.75"/>
</g>
<!-- Node2&#45;&gt;Node4 -->
<g id="edge3" class="edge">
<title>Node2&#45;&gt;Node4</title>
<path fill="none" stroke="midnightblue" d="M632.82,-59.42C713.14,-48.71 887.61,-25.45 961.66,-15.58"/>
<polygon fill="midnightblue" stroke="midnightblue" points="962.38,-19.01 971.83,-14.22 961.46,-12.07 962.38,-19.01"/>
</g>
<!-- Node11&#45;&gt;Node2 -->
<g id="edge12" class="edge">
<title>Node11&#45;&gt;Node2</title>
<path fill="none" stroke="midnightblue" d="M1045.27,-114.15C1040.48,-113.38 1035.63,-112.64 1031,-112 891.12,-92.77 725.17,-77.95 642.77,-71.12"/>
<polygon fill="midnightblue" stroke="midnightblue" points="642.92,-67.62 632.67,-70.29 642.35,-74.6 642.92,-67.62"/>
</g>
<!-- Node11&#45;&gt;Node5 -->
<g id="edge13" class="edge">
<title>Node11&#45;&gt;Node5</title>
<path fill="none" stroke="midnightblue" d="M1103.12,-112.44C1124.02,-103.56 1156.93,-89.56 1180.72,-79.45"/>
<polygon fill="midnightblue" stroke="midnightblue" points="1182.14,-82.65 1189.97,-75.52 1179.4,-76.21 1182.14,-82.65"/>
</g>
<!-- Node12&#45;&gt;Node2 -->
<g id="edge15" class="edge">
<title>Node12&#45;&gt;Node2</title>
<path fill="none" stroke="midnightblue" d="M1138.28,-113.39C1135.15,-112.88 1132.02,-112.41 1129,-112 951.33,-87.98 738.81,-74.73 642.7,-69.57"/>
<polygon fill="midnightblue" stroke="midnightblue" points="642.84,-66.07 632.67,-69.04 642.47,-73.06 642.84,-66.07"/>
</g>
<!-- Node12&#45;&gt;Node5 -->
<g id="edge16" class="edge">
<title>Node12&#45;&gt;Node5</title>
<path fill="none" stroke="midnightblue" d="M1182.45,-112.08C1187.01,-104.61 1193.67,-93.72 1199.29,-84.52"/>
<polygon fill="midnightblue" stroke="midnightblue" points="1202.42,-86.11 1204.65,-75.75 1196.45,-82.46 1202.42,-86.11"/>
</g>
<!-- Node13&#45;&gt;Node2 -->
<g id="edge18" class="edge">
<title>Node13&#45;&gt;Node2</title>
<path fill="none" stroke="midnightblue" d="M707.87,-224.47C705.86,-211.53 700.82,-186.46 690,-168 669.18,-132.46 633.14,-100.14 610.77,-82.07"/>
<polygon fill="midnightblue" stroke="midnightblue" points="612.66,-79.1 602.65,-75.65 608.32,-84.6 612.66,-79.1"/>
</g>
<!-- Node13&#45;&gt;Node6 -->
<g id="edge19" class="edge">
<title>Node13&#45;&gt;Node6</title>
<path fill="none" stroke="midnightblue" d="M700.58,-224.08C693.15,-216.22 682.15,-204.57 673.19,-195.08"/>
<polygon fill="midnightblue" stroke="midnightblue" points="675.68,-192.62 666.26,-187.75 670.59,-197.42 675.68,-192.62"/>
</g>
<!-- Node14&#45;&gt;Node2 -->
<g id="edge21" class="edge">
<title>Node14&#45;&gt;Node2</title>
<path fill="none" stroke="midnightblue" d="M901.69,-280.42C892.83,-248.17 860.14,-134.97 832,-112 803.65,-88.86 704.68,-76.51 642.73,-70.89"/>
<polygon fill="midnightblue" stroke="midnightblue" points="643.02,-67.4 632.75,-70.01 642.4,-74.37 643.02,-67.4"/>
</g>
<!-- Node14&#45;&gt;Node5 -->
<g id="edge24" class="edge">
<title>Node14&#45;&gt;Node5</title>
<path fill="none" stroke="midnightblue" d="M942.59,-284.19C1014.66,-272.84 1167.59,-236.9 1225,-132 1233.14,-117.12 1227.06,-97.99 1220.36,-84.35"/>
<polygon fill="midnightblue" stroke="midnightblue" points="1223.42,-82.64 1215.57,-75.52 1217.27,-85.98 1223.42,-82.64"/>
</g>
<!-- Node14&#45;&gt;Node15 -->
<g id="edge22" class="edge">
<title>Node14&#45;&gt;Node15</title>
<path fill="none" stroke="midnightblue" d="M919.1,-280.32C933.9,-271.82 956.69,-258.73 973.98,-248.8"/>
<polygon fill="midnightblue" stroke="midnightblue" points="976.01,-251.67 982.93,-243.65 972.52,-245.6 976.01,-251.67"/>
</g>
<!-- Node15&#45;&gt;Node2 -->
<g id="edge23" class="edge">
<title>Node15&#45;&gt;Node2</title>
<path fill="none" stroke="midnightblue" d="M997.32,-224.18C995.9,-210.84 991.62,-185.28 979,-168 952.75,-132.06 937.49,-128.09 896,-112 811.44,-79.2 705.2,-70.11 643.02,-67.71"/>
<polygon fill="midnightblue" stroke="midnightblue" points="642.8,-64.2 632.68,-67.35 642.56,-71.19 642.8,-64.2"/>
</g>
<!-- Node16&#45;&gt;Node2 -->
<g id="edge26" class="edge">
<title>Node16&#45;&gt;Node2</title>
<path fill="none" stroke="midnightblue" d="M1083.64,-448.34C1091.01,-430 1107,-385.74 1107,-347 1107,-347 1107,-347 1107,-233 1107,-139.17 1021.47,-145.96 934,-112 836.02,-73.95 711.69,-66.89 642.84,-66.24"/>
<polygon fill="midnightblue" stroke="midnightblue" points="642.71,-62.74 632.69,-66.18 642.67,-69.74 642.71,-62.74"/>
</g>
<!-- Node17&#45;&gt;Node2 -->
<g id="edge28" class="edge">
<title>Node17&#45;&gt;Node2</title>
<path fill="none" stroke="midnightblue" d="M329.5,-280.41C342.99,-272.6 361.63,-259.88 373,-244 408.91,-193.82 371.01,-154.23 416,-112 449.07,-80.96 500.6,-70.63 539.2,-67.51"/>
<polygon fill="midnightblue" stroke="midnightblue" points="539.47,-71 549.21,-66.84 539,-64.02 539.47,-71"/>
</g>
<!-- Node17&#45;&gt;Node13 -->
<g id="edge29" class="edge">
<title>Node17&#45;&gt;Node13</title>
<path fill="none" stroke="midnightblue" d="M354.65,-284.12C417.58,-276.61 540.93,-261.42 655.87,-244.12"/>
<polygon fill="midnightblue" stroke="midnightblue" points="656.53,-247.56 665.89,-242.6 655.48,-240.64 656.53,-247.56"/>
</g>
<!-- Node18 -->
<g id="node18" class="node">
<title>Node18</title>
<g id="a_node18"><a xlink:href="cs__base__accel_8h.html" target="_top" xlink:title=" ">
<polygon fill="white" stroke="black" points="534,-224.5 534,-243.5 648,-243.5 648,-224.5 534,-224.5"/>
<text text-anchor="middle" x="591" y="-231.5" font-family="Helvetica,sans-Serif" font-size="10.00">base/cs_base_accel.h</text>
</a>
</g>
</g>
<!-- Node17&#45;&gt;Node18 -->
<g id="edge30" class="edge">
<title>Node17&#45;&gt;Node18</title>
<path fill="none" stroke="midnightblue" d="M354.62,-280.92C403.14,-271.49 483.49,-255.88 536.83,-245.52"/>
<polygon fill="midnightblue" stroke="midnightblue" points="537.65,-248.93 546.8,-243.59 536.31,-242.06 537.65,-248.93"/>
</g>
<!-- Node20 -->
<g id="node20" class="node">
<title>Node20</title>
<g id="a_node20"><a xlink:href="cs__interface_8h.html" target="_top" xlink:title=" ">
<polygon fill="white" stroke="black" points="262,-224.5 262,-243.5 364,-243.5 364,-224.5 262,-224.5"/>
<text text-anchor="middle" x="313" y="-231.5" font-family="Helvetica,sans-Serif" font-size="10.00">base/cs_interface.h</text>
</a>
</g>
</g>
<!-- Node17&#45;&gt;Node20 -->
<g id="edge36" class="edge">
<title>Node17&#45;&gt;Node20</title>
<path fill="none" stroke="midnightblue" d="M313,-280.08C313,-273.01 313,-262.86 313,-253.99"/>
<polygon fill="midnightblue" stroke="midnightblue" points="316.5,-253.75 313,-243.75 309.5,-253.75 316.5,-253.75"/>
</g>
<!-- Node22 -->
<g id="node22" class="node">
<title>Node22</title>
<g id="a_node22"><a xlink:href="fvm__periodicity_8h.html" target="_top" xlink:title=" ">
<polygon fill="white" stroke="black" points="216,-168.5 216,-187.5 326,-187.5 326,-168.5 216,-168.5"/>
<text text-anchor="middle" x="271" y="-175.5" font-family="Helvetica,sans-Serif" font-size="10.00">fvm/fvm_periodicity.h</text>
</a>
</g>
</g>
<!-- Node17&#45;&gt;Node22 -->
<g id="edge46" class="edge">
<title>Node17&#45;&gt;Node22</title>
<path fill="none" stroke="midnightblue" d="M293.7,-280.48C279.57,-273.08 261.44,-260.89 253,-244 245.42,-228.83 252.18,-210.02 259.48,-196.54"/>
<polygon fill="midnightblue" stroke="midnightblue" points="262.57,-198.18 264.69,-187.8 256.56,-194.6 262.57,-198.18"/>
</g>
<!-- Node23 -->
<g id="node23" class="node">
<title>Node23</title>
<g id="a_node23"><a xlink:href="cs__rank__neighbors_8h.html" target="_top" xlink:title=" ">
<polygon fill="white" stroke="black" points="66.5,-168.5 66.5,-187.5 197.5,-187.5 197.5,-168.5 66.5,-168.5"/>
<text text-anchor="middle" x="132" y="-175.5" font-family="Helvetica,sans-Serif" font-size="10.00">base/cs_rank_neighbors.h</text>
</a>
</g>
</g>
<!-- Node17&#45;&gt;Node23 -->
<g id="edge42" class="edge">
<title>Node17&#45;&gt;Node23</title>
<path fill="none" stroke="midnightblue" d="M298.8,-280.37C267.61,-261.41 192.88,-216 154.94,-192.94"/>
<polygon fill="midnightblue" stroke="midnightblue" points="156.5,-189.79 146.14,-187.59 152.86,-195.78 156.5,-189.79"/>
</g>
<!-- Node18&#45;&gt;Node2 -->
<g id="edge31" class="edge">
<title>Node18&#45;&gt;Node2</title>
<path fill="none" stroke="midnightblue" d="M591,-224.08C591,-197.95 591,-121.21 591,-85.58"/>
<polygon fill="midnightblue" stroke="midnightblue" points="594.5,-85.57 591,-75.57 587.5,-85.57 594.5,-85.57"/>
</g>
<!-- Node18&#45;&gt;Node6 -->
<g id="edge32" class="edge">
<title>Node18&#45;&gt;Node6</title>
<path fill="none" stroke="midnightblue" d="M601.76,-224.32C611.77,-216.26 626.89,-204.08 638.93,-194.37"/>
<polygon fill="midnightblue" stroke="midnightblue" points="641.45,-196.83 647.04,-187.83 637.06,-191.38 641.45,-196.83"/>
</g>
<!-- Node18&#45;&gt;Node19 -->
<g id="edge33" class="edge">
<title>Node18&#45;&gt;Node19</title>
<path fill="none" stroke="midnightblue" d="M644.24,-224.44C707.08,-214.34 810.95,-197.65 873.78,-187.55"/>
<polygon fill="midnightblue" stroke="midnightblue" points="874.56,-190.97 883.88,-185.93 873.45,-184.06 874.56,-190.97"/>
</g>
<!-- Node19&#45;&gt;Node2 -->
<g id="edge34" class="edge">
<title>Node19&#45;&gt;Node2</title>
<path fill="none" stroke="midnightblue" d="M922.02,-168.11C913.45,-153.7 894.43,-125.52 870,-112 831.92,-90.93 712.65,-77.45 642.99,-71.16"/>
<polygon fill="midnightblue" stroke="midnightblue" points="642.94,-67.65 632.67,-70.25 642.33,-74.62 642.94,-67.65"/>
</g>
<!-- Node19&#45;&gt;Node11 -->
<g id="edge35" class="edge">
<title>Node19&#45;&gt;Node11</title>
<path fill="none" stroke="midnightblue" d="M951.72,-168.44C977.85,-159.4 1019.26,-145.06 1048.58,-134.92"/>
<polygon fill="midnightblue" stroke="midnightblue" points="1050.09,-138.1 1058.4,-131.52 1047.8,-131.48 1050.09,-138.1"/>
</g>
<!-- Node21 -->
<g id="node21" class="node">
<title>Node21</title>
<g id="a_node21"><a xlink:href="fvm__defs_8h.html" target="_top" xlink:title=" ">
<polygon fill="white" stroke="black" points="278.5,-112.5 278.5,-131.5 363.5,-131.5 363.5,-112.5 278.5,-112.5"/>
<text text-anchor="middle" x="321" y="-119.5" font-family="Helvetica,sans-Serif" font-size="10.00">fvm/fvm_defs.h</text>
</a>
</g>
</g>
<!-- Node20&#45;&gt;Node21 -->
<g id="edge37" class="edge">
<title>Node20&#45;&gt;Node21</title>
<path fill="none" stroke="midnightblue" d="M318.64,-224.48C324.05,-215.74 331.86,-201.56 335,-188 338.65,-172.2 334.08,-154.18 329.22,-141.12"/>
<polygon fill="midnightblue" stroke="midnightblue" points="332.44,-139.76 325.4,-131.85 325.97,-142.43 332.44,-139.76"/>
</g>
<!-- Node20&#45;&gt;Node22 -->
<g id="edge39" class="edge">
<title>Node20&#45;&gt;Node22</title>
<path fill="none" stroke="midnightblue" d="M306.06,-224.08C300.07,-216.38 291.25,-205.03 283.95,-195.65"/>
<polygon fill="midnightblue" stroke="midnightblue" points="286.71,-193.5 277.81,-187.75 281.18,-197.79 286.71,-193.5"/>
</g>
<!-- Node21&#45;&gt;Node2 -->
<g id="edge38" class="edge">
<title>Node21&#45;&gt;Node2</title>
<path fill="none" stroke="midnightblue" d="M363.78,-112.44C411.46,-102.91 488.53,-87.49 539.48,-77.3"/>
<polygon fill="midnightblue" stroke="midnightblue" points="540.19,-80.73 549.31,-75.34 538.81,-73.87 540.19,-80.73"/>
</g>
<!-- Node22&#45;&gt;Node2 -->
<g id="edge40" class="edge">
<title>Node22&#45;&gt;Node2</title>
<path fill="none" stroke="midnightblue" d="M267.38,-168.19C262.36,-154.4 255.37,-127.67 269,-112 303.37,-72.49 457.1,-66.61 539.09,-66.37"/>
<polygon fill="midnightblue" stroke="midnightblue" points="539.2,-69.87 549.2,-66.37 539.2,-62.87 539.2,-69.87"/>
</g>
<!-- Node22&#45;&gt;Node21 -->
<g id="edge41" class="edge">
<title>Node22&#45;&gt;Node21</title>
<path fill="none" stroke="midnightblue" d="M279.26,-168.08C286.46,-160.3 297.11,-148.8 305.85,-139.37"/>
<polygon fill="midnightblue" stroke="midnightblue" points="308.67,-141.47 312.9,-131.75 303.53,-136.71 308.67,-141.47"/>
</g>
<!-- Node23&#45;&gt;Node2 -->
<g id="edge43" class="edge">
<title>Node23&#45;&gt;Node2</title>
<path fill="none" stroke="midnightblue" d="M144.96,-168.39C167.1,-154.14 214.1,-125.83 258,-112 354.26,-81.67 472.49,-71.78 539.03,-68.56"/>
<polygon fill="midnightblue" stroke="midnightblue" points="539.43,-72.04 549.26,-68.1 539.11,-65.05 539.43,-72.04"/>
</g>
<!-- Node24 -->
<g id="node24" class="node">
<title>Node24</title>
<g id="a_node24"><a xlink:href="cs__block__dist_8h.html" target="_top" xlink:title=" ">
<polygon fill="white" stroke="black" points="74.5,-112.5 74.5,-131.5 183.5,-131.5 183.5,-112.5 74.5,-112.5"/>
<text text-anchor="middle" x="129" y="-119.5" font-family="Helvetica,sans-Serif" font-size="10.00">base/cs_block_dist.h</text>
</a>
</g>
</g>
<!-- Node23&#45;&gt;Node24 -->
<g id="edge44" class="edge">
<title>Node23&#45;&gt;Node24</title>
<path fill="none" stroke="midnightblue" d="M131.5,-168.08C131.11,-161.01 130.55,-150.86 130.05,-141.99"/>
<polygon fill="midnightblue" stroke="midnightblue" points="133.54,-141.54 129.49,-131.75 126.55,-141.93 133.54,-141.54"/>
</g>
<!-- Node24&#45;&gt;Node2 -->
<g id="edge45" class="edge">
<title>Node24&#45;&gt;Node2</title>
<path fill="none" stroke="midnightblue" d="M183.6,-113.8C188.47,-113.18 193.32,-112.57 198,-112 320.23,-97.03 464.05,-80.95 539.24,-72.66"/>
<polygon fill="midnightblue" stroke="midnightblue" points="539.83,-76.12 549.38,-71.55 539.06,-69.16 539.83,-76.12"/>
</g>
<!-- Node25&#45;&gt;Node2 -->
<g id="edge49" class="edge">
<title>Node25&#45;&gt;Node2</title>
<path fill="none" stroke="midnightblue" d="M539.23,-394.78C496.1,-387.75 435.32,-374.8 421,-356 385.6,-309.51 480,-155.51 519,-112 530.94,-98.67 547.75,-87.87 562.13,-80.19"/>
<polygon fill="midnightblue" stroke="midnightblue" points="563.82,-83.25 571.14,-75.6 560.64,-77.01 563.82,-83.25"/>
</g>
<!-- Node25&#45;&gt;Node17 -->
<g id="edge50" class="edge">
<title>Node25&#45;&gt;Node17</title>
<path fill="none" stroke="midnightblue" d="M539.42,-401.79C458.26,-402.16 291.39,-397.7 255,-356 239.36,-338.07 264.85,-317.63 286.82,-304.54"/>
<polygon fill="midnightblue" stroke="midnightblue" points="288.61,-307.54 295.58,-299.57 285.16,-301.45 288.61,-307.54"/>
</g>
<!-- Node26 -->
<g id="node26" class="node">
<title>Node26</title>
<g id="a_node26"><a xlink:href="cs__numbering_8h.html" target="_top" xlink:title=" ">
<polygon fill="white" stroke="black" points="430,-336.5 430,-355.5 540,-355.5 540,-336.5 430,-336.5"/>
<text text-anchor="middle" x="485" y="-343.5" font-family="Helvetica,sans-Serif" font-size="10.00">base/cs_numbering.h</text>
</a>
</g>
</g>
<!-- Node25&#45;&gt;Node26 -->
<g id="edge51" class="edge">
<title>Node25&#45;&gt;Node26</title>
<path fill="none" stroke="midnightblue" d="M568.09,-392.32C552.36,-383.74 528.06,-370.49 509.79,-360.52"/>
<polygon fill="midnightblue" stroke="midnightblue" points="511.32,-357.37 500.87,-355.65 507.97,-363.52 511.32,-357.37"/>
</g>
<!-- Node27 -->
<g id="node27" class="node">
<title>Node27</title>
<g id="a_node27"><a xlink:href="cs__matrix__assembler_8h.html" target="_top" xlink:title=" ">
<polygon fill="white" stroke="black" points="558.5,-336.5 558.5,-355.5 697.5,-355.5 697.5,-336.5 558.5,-336.5"/>
<text text-anchor="middle" x="628" y="-343.5" font-family="Helvetica,sans-Serif" font-size="10.00">alge/cs_matrix_assembler.h</text>
</a>
</g>
</g>
<!-- Node25&#45;&gt;Node27 -->
<g id="edge55" class="edge">
<title>Node25&#45;&gt;Node27</title>
<path fill="none" stroke="midnightblue" d="M591.27,-392.08C597.54,-384.38 606.79,-373.03 614.43,-363.65"/>
<polygon fill="midnightblue" stroke="midnightblue" points="617.27,-365.71 620.87,-355.75 611.84,-361.29 617.27,-365.71"/>
</g>
<!-- Node26&#45;&gt;Node2 -->
<g id="edge52" class="edge">
<title>Node26&#45;&gt;Node2</title>
<path fill="none" stroke="midnightblue" d="M487.83,-336.27C493.56,-317.79 506,-273.3 506,-235 506,-235 506,-235 506,-177 506,-135.76 543.86,-100.57 569.05,-81.73"/>
<polygon fill="midnightblue" stroke="midnightblue" points="571.27,-84.44 577.34,-75.76 567.18,-78.76 571.27,-84.44"/>
</g>
<!-- Node26&#45;&gt;Node13 -->
<g id="edge53" class="edge">
<title>Node26&#45;&gt;Node13</title>
<path fill="none" stroke="midnightblue" d="M502.58,-336.37C541.67,-317.17 636.01,-270.84 682.38,-248.07"/>
<polygon fill="midnightblue" stroke="midnightblue" points="684.07,-251.14 691.5,-243.59 680.99,-244.86 684.07,-251.14"/>
</g>
<!-- Node26&#45;&gt;Node14 -->
<g id="edge54" class="edge">
<title>Node26&#45;&gt;Node14</title>
<path fill="none" stroke="midnightblue" d="M540.15,-337.2C543.14,-336.79 546.11,-336.39 549,-336 658.38,-321.38 786.89,-305.38 855.31,-296.96"/>
<polygon fill="midnightblue" stroke="midnightblue" points="855.87,-300.42 865.37,-295.72 855.01,-293.47 855.87,-300.42"/>
</g>
<!-- Node27&#45;&gt;Node2 -->
<g id="edge56" class="edge">
<title>Node27&#45;&gt;Node2</title>
<path fill="none" stroke="midnightblue" d="M653.28,-336.41C697.25,-319.83 781.25,-280.08 761,-224 739.03,-163.14 717.35,-153.85 668,-112 653.04,-99.31 634.02,-88.16 618.63,-80.13"/>
<polygon fill="midnightblue" stroke="midnightblue" points="620.09,-76.95 609.59,-75.55 616.93,-83.19 620.09,-76.95"/>
</g>
<!-- Node27&#45;&gt;Node14 -->
<g id="edge58" class="edge">
<title>Node27&#45;&gt;Node14</title>
<path fill="none" stroke="midnightblue" d="M671.73,-336.44C721.75,-326.66 803.42,-310.68 855.39,-300.51"/>
<polygon fill="midnightblue" stroke="midnightblue" points="856.23,-303.91 865.37,-298.56 854.88,-297.04 856.23,-303.91"/>
</g>
<!-- Node27&#45;&gt;Node17 -->
<g id="edge57" class="edge">
<title>Node27&#45;&gt;Node17</title>
<path fill="none" stroke="midnightblue" d="M578.09,-336.44C519.71,-326.44 423.55,-309.95 364.49,-299.83"/>
<polygon fill="midnightblue" stroke="midnightblue" points="365.08,-296.38 354.63,-298.14 363.9,-303.28 365.08,-296.38"/>
</g>
<!-- Node28&#45;&gt;Node2 -->
<g id="edge60" class="edge">
<title>Node28&#45;&gt;Node2</title>
<path fill="none" stroke="midnightblue" d="M257.39,-454.26C183.1,-449.81 63.86,-438.64 29,-412 3.87,-392.79 0,-378.63 0,-347 0,-347 0,-347 0,-177 0,-142.61 12.49,-129.67 42,-112 84.04,-86.83 410.64,-73.12 539.23,-68.65"/>
<polygon fill="midnightblue" stroke="midnightblue" points="539.35,-72.15 549.23,-68.31 539.11,-65.15 539.35,-72.15"/>
</g>
<!-- Node28&#45;&gt;Node17 -->
<g id="edge63" class="edge">
<title>Node28&#45;&gt;Node17</title>
<path fill="none" stroke="midnightblue" d="M309.86,-448.35C293.44,-432.12 259.53,-395.17 247,-356 244.29,-347.53 242.85,-343.86 247,-336 254.42,-321.95 268.42,-311.47 281.62,-304.17"/>
<polygon fill="midnightblue" stroke="midnightblue" points="283.22,-307.28 290.54,-299.62 280.04,-301.04 283.22,-307.28"/>
</g>
<!-- Node28&#45;&gt;Node25 -->
<g id="edge64" class="edge">
<title>Node28&#45;&gt;Node25</title>
<path fill="none" stroke="midnightblue" d="M360.99,-448.44C407.41,-438.98 482.23,-423.74 532.24,-413.55"/>
<polygon fill="midnightblue" stroke="midnightblue" points="533.11,-416.94 542.21,-411.52 531.71,-410.08 533.11,-416.94"/>
</g>
<!-- Node28&#45;&gt;Node26 -->
<g id="edge65" class="edge">
<title>Node28&#45;&gt;Node26</title>
<path fill="none" stroke="midnightblue" d="M332.03,-448.37C360.51,-429.49 428.58,-384.38 463.52,-361.24"/>
<polygon fill="midnightblue" stroke="midnightblue" points="465.63,-364.03 472.03,-355.59 461.77,-358.2 465.63,-364.03"/>
</g>
<!-- Node29 -->
<g id="node29" class="node">
<title>Node29</title>
<g id="a_node29"><a xlink:href="cs__field_8h.html" target="_top" xlink:title=" ">
<polygon fill="white" stroke="black" points="38.5,-392.5 38.5,-411.5 121.5,-411.5 121.5,-392.5 38.5,-392.5"/>
<text text-anchor="middle" x="80" y="-399.5" font-family="Helvetica,sans-Serif" font-size="10.00">base/cs_field.h</text>
</a>
</g>
</g>
<!-- Node28&#45;&gt;Node29 -->
<g id="edge61" class="edge">
<title>Node28&#45;&gt;Node29</title>
<path fill="none" stroke="midnightblue" d="M281.13,-448.44C239.52,-439.04 172.63,-423.93 127.53,-413.74"/>
<polygon fill="midnightblue" stroke="midnightblue" points="128.22,-410.31 117.69,-411.52 126.68,-417.13 128.22,-410.31"/>
</g>
<!-- Node30 -->
<g id="node30" class="node">
<title>Node30</title>
<g id="a_node30"><a xlink:href="cs__halo__perio_8h.html" target="_top" xlink:title=" ">
<polygon fill="white" stroke="black" points="264.5,-336.5 264.5,-355.5 373.5,-355.5 373.5,-336.5 264.5,-336.5"/>
<text text-anchor="middle" x="319" y="-343.5" font-family="Helvetica,sans-Serif" font-size="10.00">base/cs_halo_perio.h</text>
</a>
</g>
</g>
<!-- Node28&#45;&gt;Node30 -->
<g id="edge66" class="edge">
<title>Node28&#45;&gt;Node30</title>
<path fill="none" stroke="midnightblue" d="M319,-448.37C319,-430.62 319,-389.67 319,-365.6"/>
<polygon fill="midnightblue" stroke="midnightblue" points="322.5,-365.59 319,-355.59 315.5,-365.59 322.5,-365.59"/>
</g>
<!-- Node29&#45;&gt;Node2 -->
<g id="edge62" class="edge">
<title>Node29&#45;&gt;Node2</title>
<path fill="none" stroke="midnightblue" d="M74.16,-392.31C62.62,-374.26 38,-331.07 38,-291 38,-291 38,-291 38,-177 38,-145.72 39.75,-130.46 65,-112 102.74,-84.41 414.39,-72.22 539.41,-68.4"/>
<polygon fill="midnightblue" stroke="midnightblue" points="539.61,-71.9 549.5,-68.1 539.4,-64.9 539.61,-71.9"/>
</g>
<!-- Node30&#45;&gt;Node2 -->
<g id="edge67" class="edge">
<title>Node30&#45;&gt;Node2</title>
<path fill="none" stroke="midnightblue" d="M328.92,-336.38C338.42,-327.8 352.79,-313.92 363,-300 379.7,-277.23 380.41,-269.27 393,-244 421.83,-186.16 405.74,-154.98 454,-112 477.64,-90.94 511.36,-79.71 539.43,-73.73"/>
<polygon fill="midnightblue" stroke="midnightblue" points="540.35,-77.12 549.49,-71.76 539,-70.25 540.35,-77.12"/>
</g>
<!-- Node30&#45;&gt;Node13 -->
<g id="edge68" class="edge">
<title>Node30&#45;&gt;Node13</title>
<path fill="none" stroke="midnightblue" d="M349.28,-336.46C418.9,-316.82 590.4,-268.45 668.77,-246.35"/>
<polygon fill="midnightblue" stroke="midnightblue" points="670.07,-249.62 678.74,-243.53 668.17,-242.88 670.07,-249.62"/>
</g>
<!-- Node30&#45;&gt;Node17 -->
<g id="edge69" class="edge">
<title>Node30&#45;&gt;Node17</title>
<path fill="none" stroke="midnightblue" d="M318.01,-336.08C317.21,-328.93 316.07,-318.64 315.08,-309.69"/>
<polygon fill="midnightblue" stroke="midnightblue" points="318.56,-309.3 313.97,-299.75 311.6,-310.08 318.56,-309.3"/>
</g>
<!-- Node31&#45;&gt;Node13 -->
<g id="edge72" class="edge">
<title>Node31&#45;&gt;Node13</title>
<path fill="none" stroke="midnightblue" d="M720.09,-448.16C717.67,-424.3 711.16,-356.55 709,-300 708.41,-284.48 708.45,-266.85 708.62,-253.87"/>
<polygon fill="midnightblue" stroke="midnightblue" points="712.12,-253.89 708.79,-243.84 705.12,-253.78 712.12,-253.89"/>
</g>
<!-- Node31&#45;&gt;Node14 -->
<g id="edge73" class="edge">
<title>Node31&#45;&gt;Node14</title>
<path fill="none" stroke="midnightblue" d="M730.58,-448.31C759.98,-421.64 849.19,-340.72 886.89,-306.52"/>
<polygon fill="midnightblue" stroke="midnightblue" points="889.46,-308.92 894.51,-299.61 884.76,-303.73 889.46,-308.92"/>
</g>
<!-- Node31&#45;&gt;Node25 -->
<g id="edge75" class="edge">
<title>Node31&#45;&gt;Node25</title>
<path fill="none" stroke="midnightblue" d="M699.29,-448.44C676.65,-439.52 640.93,-425.44 615.25,-415.32"/>
<polygon fill="midnightblue" stroke="midnightblue" points="616.19,-411.93 605.61,-411.52 613.63,-418.44 616.19,-411.93"/>
</g>
<!-- Node31&#45;&gt;Node30 -->
<g id="edge74" class="edge">
<title>Node31&#45;&gt;Node30</title>
<path fill="none" stroke="midnightblue" d="M712.68,-448.07C698.62,-433.61 668.6,-405.34 637,-392 614.18,-382.36 469.8,-364.42 383.62,-354.35"/>
<polygon fill="midnightblue" stroke="midnightblue" points="384.01,-350.87 373.67,-353.19 383.2,-357.82 384.01,-350.87"/>
</g>
<!-- Node32&#45;&gt;Node13 -->
<g id="edge77" class="edge">
<title>Node32&#45;&gt;Node13</title>
<path fill="none" stroke="midnightblue" d="M760.68,-504.22C765.45,-491.79 772.85,-468.29 770,-448 759.63,-374.12 729.96,-289.94 716.19,-253.46"/>
<polygon fill="midnightblue" stroke="midnightblue" points="719.31,-251.82 712.46,-243.74 712.77,-254.33 719.31,-251.82"/>
</g>
<!-- Node32&#45;&gt;Node25 -->
<g id="edge78" class="edge">
<title>Node32&#45;&gt;Node25</title>
<path fill="none" stroke="midnightblue" d="M738.99,-504.44C721.48,-495.9 694.33,-482.05 672,-468 647.08,-452.32 620.08,-431.81 602.65,-418.05"/>
<polygon fill="midnightblue" stroke="midnightblue" points="604.48,-415.03 594.47,-411.54 600.12,-420.51 604.48,-415.03"/>
</g>
<!-- Node32&#45;&gt;Node31 -->
<g id="edge79" class="edge">
<title>Node32&#45;&gt;Node31</title>
<path fill="none" stroke="midnightblue" d="M751.06,-504.08C746.02,-496.53 738.66,-485.49 732.49,-476.23"/>
<polygon fill="midnightblue" stroke="midnightblue" points="735.29,-474.13 726.83,-467.75 729.47,-478.01 735.29,-474.13"/>
</g>
</g>
</svg>
