<?xml version="1.0" encoding="UTF-8" standalone="no"?>
<!DOCTYPE svg PUBLIC "-//W3C//DTD SVG 1.1//EN"
 "http://www.w3.org/Graphics/SVG/1.1/DTD/svg11.dtd">
<!-- Generated by graphviz version 2.43.0 (0)
 -->
<!-- Title: src/alge/cs_param_saddle.cpp Pages: 1 -->
<svg width="1518pt" height="532pt"
 viewBox="0.00 0.00 1517.50 532.00" xmlns="http://www.w3.org/2000/svg" xmlns:xlink="http://www.w3.org/1999/xlink">
<g id="graph0" class="graph" transform="scale(1 1) rotate(0) translate(4 528)">
<title>src/alge/cs_param_saddle.cpp</title>
<polygon fill="white" stroke="transparent" points="-4,4 -4,-528 1513.5,-528 1513.5,4 -4,4"/>
<!-- Node1 -->
<g id="node1" class="node">
<title>Node1</title>
<g id="a_node1"><a xlink:title="Handle the settings of saddle&#45;point systems. These systems arise from the monolithic coupling of the ...">
<polygon fill="#bfbfbf" stroke="black" points="946.5,-504.5 946.5,-523.5 1095.5,-523.5 1095.5,-504.5 946.5,-504.5"/>
<text text-anchor="middle" x="1021" y="-511.5" font-family="Helvetica,sans-Serif" font-size="10.00">src/alge/cs_param_saddle.cpp</text>
</a>
</g>
</g>
<!-- Node2 -->
<g id="node2" class="node">
<title>Node2</title>
<g id="a_node2"><a xlink:href="cs__defs_8h.html" target="_top" xlink:title=" ">
<polygon fill="white" stroke="black" points="522.5,-56.5 522.5,-75.5 605.5,-75.5 605.5,-56.5 522.5,-56.5"/>
<text text-anchor="middle" x="564" y="-63.5" font-family="Helvetica,sans-Serif" font-size="10.00">base/cs_defs.h</text>
</a>
</g>
</g>
<!-- Node1&#45;&gt;Node2 -->
<g id="edge1" class="edge">
<title>Node1&#45;&gt;Node2</title>
<path fill="none" stroke="midnightblue" d="M1095.65,-509C1165.45,-500.75 1259,-476.06 1259,-403 1259,-403 1259,-403 1259,-177 1259,-111.89 776.99,-78.94 615.8,-69.74"/>
<polygon fill="midnightblue" stroke="midnightblue" points="615.83,-66.23 605.65,-69.17 615.44,-73.22 615.83,-66.23"/>
</g>
<!-- Node4 -->
<g id="node4" class="node">
<title>Node4</title>
<g id="a_node4"><a xlink:title=" ">
<polygon fill="white" stroke="#bfbfbf" points="935,-0.5 935,-19.5 983,-19.5 983,-0.5 935,-0.5"/>
<text text-anchor="middle" x="959" y="-7.5" font-family="Helvetica,sans-Serif" font-size="10.00">stdlib.h</text>
</a>
</g>
</g>
<!-- Node1&#45;&gt;Node4 -->
<g id="edge7" class="edge">
<title>Node1&#45;&gt;Node4</title>
<path fill="none" stroke="midnightblue" d="M1095.72,-511.55C1142.56,-507.56 1202.48,-496.56 1248,-468 1278.65,-448.77 1297,-439.18 1297,-403 1297,-403 1297,-403 1297,-121 1297,-57.54 1078.83,-25.05 993.05,-14.72"/>
<polygon fill="midnightblue" stroke="midnightblue" points="993.38,-11.24 983.04,-13.55 992.56,-18.19 993.38,-11.24"/>
</g>
<!-- Node5 -->
<g id="node5" class="node">
<title>Node5</title>
<g id="a_node5"><a xlink:title=" ">
<polygon fill="white" stroke="#bfbfbf" points="1325,-448.5 1325,-467.5 1377,-467.5 1377,-448.5 1325,-448.5"/>
<text text-anchor="middle" x="1351" y="-455.5" font-family="Helvetica,sans-Serif" font-size="10.00">assert.h</text>
</a>
</g>
</g>
<!-- Node1&#45;&gt;Node5 -->
<g id="edge4" class="edge">
<title>Node1&#45;&gt;Node5</title>
<path fill="none" stroke="midnightblue" d="M1084,-504.47C1142.89,-496.21 1233.16,-482.78 1311,-468 1312.26,-467.76 1313.54,-467.51 1314.83,-467.25"/>
<polygon fill="midnightblue" stroke="midnightblue" points="1315.73,-470.64 1324.8,-465.16 1314.3,-463.79 1315.73,-470.64"/>
</g>
<!-- Node6 -->
<g id="node6" class="node">
<title>Node6</title>
<g id="a_node6"><a xlink:title=" ">
<polygon fill="white" stroke="#bfbfbf" points="1395.5,-448.5 1395.5,-467.5 1442.5,-467.5 1442.5,-448.5 1395.5,-448.5"/>
<text text-anchor="middle" x="1419" y="-455.5" font-family="Helvetica,sans-Serif" font-size="10.00">math.h</text>
</a>
</g>
</g>
<!-- Node1&#45;&gt;Node6 -->
<g id="edge5" class="edge">
<title>Node1&#45;&gt;Node6</title>
<path fill="none" stroke="midnightblue" d="M1095.6,-506.96C1167.47,-500.43 1279.37,-488.38 1385.39,-467.85"/>
<polygon fill="midnightblue" stroke="midnightblue" points="1386.17,-471.26 1395.3,-465.9 1384.82,-464.39 1386.17,-471.26"/>
</g>
<!-- Node7 -->
<g id="node7" class="node">
<title>Node7</title>
<g id="a_node7"><a xlink:title=" ">
<polygon fill="white" stroke="#bfbfbf" points="839,-168.5 839,-187.5 885,-187.5 885,-168.5 839,-168.5"/>
<text text-anchor="middle" x="862" y="-175.5" font-family="Helvetica,sans-Serif" font-size="10.00">stdio.h</text>
</a>
</g>
</g>
<!-- Node1&#45;&gt;Node7 -->
<g id="edge6" class="edge">
<title>Node1&#45;&gt;Node7</title>
<path fill="none" stroke="midnightblue" d="M975.35,-504.43C954.76,-498.04 932.33,-487 920,-468 860.94,-377.03 973.26,-320.63 924,-224 917,-210.27 903.63,-199.75 891.1,-192.35"/>
<polygon fill="midnightblue" stroke="midnightblue" points="892.68,-189.22 882.22,-187.51 889.33,-195.37 892.68,-189.22"/>
</g>
<!-- Node8 -->
<g id="node8" class="node">
<title>Node8</title>
<g id="a_node8"><a xlink:title=" ">
<polygon fill="white" stroke="#bfbfbf" points="1460.5,-448.5 1460.5,-467.5 1509.5,-467.5 1509.5,-448.5 1460.5,-448.5"/>
<text text-anchor="middle" x="1485" y="-455.5" font-family="Helvetica,sans-Serif" font-size="10.00">string.h</text>
</a>
</g>
</g>
<!-- Node1&#45;&gt;Node8 -->
<g id="edge8" class="edge">
<title>Node1&#45;&gt;Node8</title>
<path fill="none" stroke="midnightblue" d="M1095.51,-508.9C1179.66,-503.45 1320.75,-491.81 1450.15,-468.1"/>
<polygon fill="midnightblue" stroke="midnightblue" points="1451.04,-471.49 1460.23,-466.22 1449.76,-464.61 1451.04,-471.49"/>
</g>
<!-- Node9 -->
<g id="node9" class="node">
<title>Node9</title>
<g id="a_node9"><a xlink:href="bft__error_8h.html" target="_top" xlink:title=" ">
<polygon fill="white" stroke="black" points="21.5,-112.5 21.5,-131.5 96.5,-131.5 96.5,-112.5 21.5,-112.5"/>
<text text-anchor="middle" x="59" y="-119.5" font-family="Helvetica,sans-Serif" font-size="10.00">bft/bft_error.h</text>
</a>
</g>
</g>
<!-- Node1&#45;&gt;Node9 -->
<g id="edge9" class="edge">
<title>Node1&#45;&gt;Node9</title>
<path fill="none" stroke="midnightblue" d="M946.3,-511.27C750.26,-506.43 231.08,-491.53 157,-468 105.41,-451.62 54,-457.13 54,-403 54,-403 54,-403 54,-233 54,-200.91 56.15,-163.62 57.63,-141.74"/>
<polygon fill="midnightblue" stroke="midnightblue" points="61.14,-141.77 58.35,-131.55 54.15,-141.28 61.14,-141.77"/>
</g>
<!-- Node11 -->
<g id="node11" class="node">
<title>Node11</title>
<g id="a_node11"><a xlink:href="cs__sles_8h.html" target="_top" xlink:title=" ">
<polygon fill="white" stroke="black" points="708,-448.5 708,-467.5 788,-467.5 788,-448.5 708,-448.5"/>
<text text-anchor="middle" x="748" y="-455.5" font-family="Helvetica,sans-Serif" font-size="10.00">alge/cs_sles.h</text>
</a>
</g>
</g>
<!-- Node1&#45;&gt;Node11 -->
<g id="edge12" class="edge">
<title>Node1&#45;&gt;Node11</title>
<path fill="none" stroke="midnightblue" d="M977.74,-504.44C928.97,-494.8 849.78,-479.13 798.3,-468.95"/>
<polygon fill="midnightblue" stroke="midnightblue" points="798.87,-465.5 788.39,-466.99 797.52,-472.36 798.87,-465.5"/>
</g>
<!-- Node12 -->
<g id="node12" class="node">
<title>Node12</title>
<g id="a_node12"><a xlink:href="cs__base_8h.html" target="_top" xlink:title=" ">
<polygon fill="white" stroke="black" points="829,-224.5 829,-243.5 915,-243.5 915,-224.5 829,-224.5"/>
<text text-anchor="middle" x="872" y="-231.5" font-family="Helvetica,sans-Serif" font-size="10.00">base/cs_base.h</text>
</a>
</g>
</g>
<!-- Node1&#45;&gt;Node12 -->
<g id="edge55" class="edge">
<title>Node1&#45;&gt;Node12</title>
<path fill="none" stroke="midnightblue" d="M1000.36,-504.42C967.5,-489.23 907,-454.29 907,-403 907,-403 907,-403 907,-345 907,-311.07 891.69,-273.91 881.32,-252.63"/>
<polygon fill="midnightblue" stroke="midnightblue" points="884.36,-250.88 876.72,-243.54 878.12,-254.05 884.36,-250.88"/>
</g>
<!-- Node13 -->
<g id="node13" class="node">
<title>Node13</title>
<g id="a_node13"><a xlink:href="cs__log_8h.html" target="_top" xlink:title=" ">
<polygon fill="white" stroke="black" points="173.5,-224.5 173.5,-243.5 250.5,-243.5 250.5,-224.5 173.5,-224.5"/>
<text text-anchor="middle" x="212" y="-231.5" font-family="Helvetica,sans-Serif" font-size="10.00">base/cs_log.h</text>
</a>
</g>
</g>
<!-- Node1&#45;&gt;Node13 -->
<g id="edge56" class="edge">
<title>Node1&#45;&gt;Node13</title>
<path fill="none" stroke="midnightblue" d="M946.21,-511.08C739.22,-504.8 174,-480.52 174,-403 174,-403 174,-403 174,-345 174,-310.81 190.6,-273.76 201.86,-252.57"/>
<polygon fill="midnightblue" stroke="midnightblue" points="204.95,-254.22 206.72,-243.77 198.82,-250.83 204.95,-254.22"/>
</g>
<!-- Node18 -->
<g id="node18" class="node">
<title>Node18</title>
<g id="a_node18"><a xlink:href="cs__mem_8h.html" target="_top" xlink:title=" ">
<polygon fill="white" stroke="black" points="82,-168.5 82,-187.5 168,-187.5 168,-168.5 82,-168.5"/>
<text text-anchor="middle" x="125" y="-175.5" font-family="Helvetica,sans-Serif" font-size="10.00">base/cs_mem.h</text>
</a>
</g>
</g>
<!-- Node1&#45;&gt;Node18 -->
<g id="edge57" class="edge">
<title>Node1&#45;&gt;Node18</title>
<path fill="none" stroke="midnightblue" d="M946.21,-512.55C780.47,-510.9 386.83,-503.27 259,-468 198.64,-451.34 134,-465.62 134,-403 134,-403 134,-403 134,-289 134,-256.84 130.13,-219.57 127.47,-197.71"/>
<polygon fill="midnightblue" stroke="midnightblue" points="130.91,-197.02 126.18,-187.54 123.96,-197.9 130.91,-197.02"/>
</g>
<!-- Node27 -->
<g id="node27" class="node">
<title>Node27</title>
<g id="a_node27"><a xlink:href="cs__param__saddle_8h.html" target="_top" xlink:title="Handle the settings of saddle&#45;point systems. These systems arise from the monolithic coupling of the ...">
<polygon fill="white" stroke="black" points="989,-448.5 989,-467.5 1111,-467.5 1111,-448.5 989,-448.5"/>
<text text-anchor="middle" x="1050" y="-455.5" font-family="Helvetica,sans-Serif" font-size="10.00">alge/cs_param_saddle.h</text>
</a>
</g>
</g>
<!-- Node1&#45;&gt;Node27 -->
<g id="edge58" class="edge">
<title>Node1&#45;&gt;Node27</title>
<path fill="none" stroke="midnightblue" d="M1025.79,-504.08C1029.76,-496.69 1035.53,-485.95 1040.43,-476.81"/>
<polygon fill="midnightblue" stroke="midnightblue" points="1043.65,-478.22 1045.3,-467.75 1037.49,-474.91 1043.65,-478.22"/>
</g>
<!-- Node3 -->
<g id="node3" class="node">
<title>Node3</title>
<g id="a_node3"><a xlink:title=" ">
<polygon fill="white" stroke="#bfbfbf" points="518.5,-0.5 518.5,-19.5 609.5,-19.5 609.5,-0.5 518.5,-0.5"/>
<text text-anchor="middle" x="564" y="-7.5" font-family="Helvetica,sans-Serif" font-size="10.00">base/cs_config.h</text>
</a>
</g>
</g>
<!-- Node2&#45;&gt;Node3 -->
<g id="edge2" class="edge">
<title>Node2&#45;&gt;Node3</title>
<path fill="none" stroke="midnightblue" d="M564,-56.08C564,-49.01 564,-38.86 564,-29.99"/>
<polygon fill="midnightblue" stroke="midnightblue" points="567.5,-29.75 564,-19.75 560.5,-29.75 567.5,-29.75"/>
</g>
<!-- Node2&#45;&gt;Node4 -->
<g id="edge3" class="edge">
<title>Node2&#45;&gt;Node4</title>
<path fill="none" stroke="midnightblue" d="M605.53,-59.32C683.87,-48.61 852.13,-25.61 924.62,-15.7"/>
<polygon fill="midnightblue" stroke="midnightblue" points="925.16,-19.16 934.6,-14.34 924.22,-12.22 925.16,-19.16"/>
</g>
<!-- Node9&#45;&gt;Node2 -->
<g id="edge10" class="edge">
<title>Node9&#45;&gt;Node2</title>
<path fill="none" stroke="midnightblue" d="M96.72,-114.14C101.52,-113.37 106.37,-112.63 111,-112 255.9,-92.29 427.99,-77.56 512.27,-70.91"/>
<polygon fill="midnightblue" stroke="midnightblue" points="512.65,-74.39 522.35,-70.12 512.11,-67.42 512.65,-74.39"/>
</g>
<!-- Node10 -->
<g id="node10" class="node">
<title>Node10</title>
<g id="a_node10"><a xlink:title=" ">
<polygon fill="white" stroke="#bfbfbf" points="0,-56.5 0,-75.5 52,-75.5 52,-56.5 0,-56.5"/>
<text text-anchor="middle" x="26" y="-63.5" font-family="Helvetica,sans-Serif" font-size="10.00">stdarg.h</text>
</a>
</g>
</g>
<!-- Node9&#45;&gt;Node10 -->
<g id="edge11" class="edge">
<title>Node9&#45;&gt;Node10</title>
<path fill="none" stroke="midnightblue" d="M53.55,-112.08C48.99,-104.61 42.33,-93.72 36.71,-84.52"/>
<polygon fill="midnightblue" stroke="midnightblue" points="39.55,-82.46 31.35,-75.75 33.58,-86.11 39.55,-82.46"/>
</g>
<!-- Node11&#45;&gt;Node12 -->
<g id="edge13" class="edge">
<title>Node11&#45;&gt;Node12</title>
<path fill="none" stroke="midnightblue" d="M753.84,-448.25C765.3,-430.93 791.35,-390.94 811,-356 831.19,-320.1 852.3,-276.7 863.62,-252.86"/>
<polygon fill="midnightblue" stroke="midnightblue" points="866.87,-254.19 867.97,-243.65 860.54,-251.2 866.87,-254.19"/>
</g>
<!-- Node11&#45;&gt;Node13 -->
<g id="edge16" class="edge">
<title>Node11&#45;&gt;Node13</title>
<path fill="none" stroke="midnightblue" d="M707.81,-454.86C627.2,-449.1 441.98,-428.38 307,-356 263.8,-332.83 233.71,-280.68 220.14,-253.02"/>
<polygon fill="midnightblue" stroke="midnightblue" points="223.19,-251.28 215.75,-243.73 216.86,-254.27 223.19,-251.28"/>
</g>
<!-- Node15 -->
<g id="node15" class="node">
<title>Node15</title>
<g id="a_node15"><a xlink:href="cs__halo__perio_8h.html" target="_top" xlink:title=" ">
<polygon fill="white" stroke="black" points="693.5,-336.5 693.5,-355.5 802.5,-355.5 802.5,-336.5 693.5,-336.5"/>
<text text-anchor="middle" x="748" y="-343.5" font-family="Helvetica,sans-Serif" font-size="10.00">base/cs_halo_perio.h</text>
</a>
</g>
</g>
<!-- Node11&#45;&gt;Node15 -->
<g id="edge21" class="edge">
<title>Node11&#45;&gt;Node15</title>
<path fill="none" stroke="midnightblue" d="M748,-448.37C748,-430.62 748,-389.67 748,-365.6"/>
<polygon fill="midnightblue" stroke="midnightblue" points="751.5,-365.59 748,-355.59 744.5,-365.59 751.5,-365.59"/>
</g>
<!-- Node24 -->
<g id="node24" class="node">
<title>Node24</title>
<g id="a_node24"><a xlink:href="cs__matrix_8h.html" target="_top" xlink:title=" ">
<polygon fill="white" stroke="black" points="582.5,-392.5 582.5,-411.5 671.5,-411.5 671.5,-392.5 582.5,-392.5"/>
<text text-anchor="middle" x="627" y="-399.5" font-family="Helvetica,sans-Serif" font-size="10.00">alge/cs_matrix.h</text>
</a>
</g>
</g>
<!-- Node11&#45;&gt;Node24 -->
<g id="edge44" class="edge">
<title>Node11&#45;&gt;Node24</title>
<path fill="none" stroke="midnightblue" d="M728.83,-448.44C709.09,-439.64 678.11,-425.81 655.51,-415.72"/>
<polygon fill="midnightblue" stroke="midnightblue" points="656.64,-412.4 646.08,-411.52 653.79,-418.79 656.64,-412.4"/>
</g>
<!-- Node12&#45;&gt;Node2 -->
<g id="edge14" class="edge">
<title>Node12&#45;&gt;Node2</title>
<path fill="none" stroke="midnightblue" d="M879.1,-224.33C888.6,-211.63 903.22,-187.36 894,-168 877.02,-132.34 860.96,-128.33 825,-112 756.96,-81.1 670.11,-71.3 615.77,-68.26"/>
<polygon fill="midnightblue" stroke="midnightblue" points="615.84,-64.76 605.68,-67.75 615.49,-71.75 615.84,-64.76"/>
</g>
<!-- Node12&#45;&gt;Node7 -->
<g id="edge15" class="edge">
<title>Node12&#45;&gt;Node7</title>
<path fill="none" stroke="midnightblue" d="M870.35,-224.08C869.02,-216.93 867.12,-206.64 865.46,-197.69"/>
<polygon fill="midnightblue" stroke="midnightblue" points="868.88,-196.95 863.62,-187.75 862,-198.22 868.88,-196.95"/>
</g>
<!-- Node13&#45;&gt;Node2 -->
<g id="edge17" class="edge">
<title>Node13&#45;&gt;Node2</title>
<path fill="none" stroke="midnightblue" d="M207.98,-224.33C196.76,-199.53 166.9,-128.98 182,-112 203.59,-87.72 413.12,-74.35 512.36,-69.33"/>
<polygon fill="midnightblue" stroke="midnightblue" points="512.66,-72.82 522.47,-68.83 512.31,-65.83 512.66,-72.82"/>
</g>
<!-- Node13&#45;&gt;Node10 -->
<g id="edge20" class="edge">
<title>Node13&#45;&gt;Node10</title>
<path fill="none" stroke="midnightblue" d="M173.28,-225.19C144.31,-218.25 104.44,-206.33 73,-188 41.21,-169.46 26.81,-165.69 12,-132 5.34,-116.84 10.54,-98.26 16.4,-84.86"/>
<polygon fill="midnightblue" stroke="midnightblue" points="19.6,-86.28 20.82,-75.76 13.3,-83.22 19.6,-86.28"/>
</g>
<!-- Node14 -->
<g id="node14" class="node">
<title>Node14</title>
<g id="a_node14"><a xlink:href="cs__timer_8h.html" target="_top" xlink:title=" ">
<polygon fill="white" stroke="black" points="191,-112.5 191,-131.5 277,-131.5 277,-112.5 191,-112.5"/>
<text text-anchor="middle" x="234" y="-119.5" font-family="Helvetica,sans-Serif" font-size="10.00">base/cs_timer.h</text>
</a>
</g>
</g>
<!-- Node13&#45;&gt;Node14 -->
<g id="edge18" class="edge">
<title>Node13&#45;&gt;Node14</title>
<path fill="none" stroke="midnightblue" d="M213.73,-224.37C217.28,-206.62 225.47,-165.67 230.28,-141.6"/>
<polygon fill="midnightblue" stroke="midnightblue" points="233.75,-142.08 232.28,-131.59 226.89,-140.71 233.75,-142.08"/>
</g>
<!-- Node14&#45;&gt;Node2 -->
<g id="edge19" class="edge">
<title>Node14&#45;&gt;Node2</title>
<path fill="none" stroke="midnightblue" d="M277.14,-113.94C337.67,-104.04 447.64,-86.04 512.41,-75.44"/>
<polygon fill="midnightblue" stroke="midnightblue" points="513.11,-78.87 522.41,-73.81 511.98,-71.97 513.11,-78.87"/>
</g>
<!-- Node15&#45;&gt;Node2 -->
<g id="edge22" class="edge">
<title>Node15&#45;&gt;Node2</title>
<path fill="none" stroke="midnightblue" d="M754.81,-336.3C761.13,-327.64 770.12,-313.72 774,-300 796.73,-219.56 825.87,-173.25 769,-112 748.56,-89.99 669.42,-77.66 615.66,-71.68"/>
<polygon fill="midnightblue" stroke="midnightblue" points="615.93,-68.19 605.61,-70.6 615.18,-75.15 615.93,-68.19"/>
</g>
<!-- Node15&#45;&gt;Node12 -->
<g id="edge23" class="edge">
<title>Node15&#45;&gt;Node12</title>
<path fill="none" stroke="midnightblue" d="M760.12,-336.49C772.32,-327.75 791.48,-313.57 807,-300 824.91,-284.34 844,-264.88 856.82,-251.35"/>
<polygon fill="midnightblue" stroke="midnightblue" points="859.64,-253.47 863.93,-243.79 854.54,-248.68 859.64,-253.47"/>
</g>
<!-- Node16 -->
<g id="node16" class="node">
<title>Node16</title>
<g id="a_node16"><a xlink:href="cs__halo_8h.html" target="_top" xlink:title=" ">
<polygon fill="white" stroke="black" points="515.5,-280.5 515.5,-299.5 598.5,-299.5 598.5,-280.5 515.5,-280.5"/>
<text text-anchor="middle" x="557" y="-287.5" font-family="Helvetica,sans-Serif" font-size="10.00">base/cs_halo.h</text>
</a>
</g>
</g>
<!-- Node15&#45;&gt;Node16 -->
<g id="edge24" class="edge">
<title>Node15&#45;&gt;Node16</title>
<path fill="none" stroke="midnightblue" d="M717.74,-336.44C685.04,-327.2 632.82,-312.44 596.82,-302.26"/>
<polygon fill="midnightblue" stroke="midnightblue" points="597.7,-298.87 587.12,-299.52 595.79,-305.61 597.7,-298.87"/>
</g>
<!-- Node16&#45;&gt;Node2 -->
<g id="edge25" class="edge">
<title>Node16&#45;&gt;Node2</title>
<path fill="none" stroke="midnightblue" d="M534.09,-280.41C515.7,-272.76 489.91,-260.26 471,-244 420.5,-200.56 359.61,-164.97 400,-112 413.67,-94.07 469.42,-81.51 512.16,-74.3"/>
<polygon fill="midnightblue" stroke="midnightblue" points="512.86,-77.74 522.16,-72.67 511.73,-70.83 512.86,-77.74"/>
</g>
<!-- Node16&#45;&gt;Node12 -->
<g id="edge26" class="edge">
<title>Node16&#45;&gt;Node12</title>
<path fill="none" stroke="midnightblue" d="M598.5,-281.88C655.16,-272.17 756.75,-254.76 818.89,-244.1"/>
<polygon fill="midnightblue" stroke="midnightblue" points="819.62,-247.53 828.89,-242.39 818.44,-240.63 819.62,-247.53"/>
</g>
<!-- Node17 -->
<g id="node17" class="node">
<title>Node17</title>
<g id="a_node17"><a xlink:href="cs__base__accel_8h.html" target="_top" xlink:title=" ">
<polygon fill="white" stroke="black" points="310,-224.5 310,-243.5 424,-243.5 424,-224.5 310,-224.5"/>
<text text-anchor="middle" x="367" y="-231.5" font-family="Helvetica,sans-Serif" font-size="10.00">base/cs_base_accel.h</text>
</a>
</g>
</g>
<!-- Node16&#45;&gt;Node17 -->
<g id="edge27" class="edge">
<title>Node16&#45;&gt;Node17</title>
<path fill="none" stroke="midnightblue" d="M526.89,-280.44C494.37,-271.2 442.42,-256.44 406.61,-246.26"/>
<polygon fill="midnightblue" stroke="midnightblue" points="407.54,-242.88 396.97,-243.52 405.63,-249.62 407.54,-242.88"/>
</g>
<!-- Node19 -->
<g id="node19" class="node">
<title>Node19</title>
<g id="a_node19"><a xlink:href="cs__interface_8h.html" target="_top" xlink:title=" ">
<polygon fill="white" stroke="black" points="480,-224.5 480,-243.5 582,-243.5 582,-224.5 480,-224.5"/>
<text text-anchor="middle" x="531" y="-231.5" font-family="Helvetica,sans-Serif" font-size="10.00">base/cs_interface.h</text>
</a>
</g>
</g>
<!-- Node16&#45;&gt;Node19 -->
<g id="edge33" class="edge">
<title>Node16&#45;&gt;Node19</title>
<path fill="none" stroke="midnightblue" d="M552.71,-280.08C549.15,-272.69 543.98,-261.95 539.58,-252.81"/>
<polygon fill="midnightblue" stroke="midnightblue" points="542.71,-251.24 535.21,-243.75 536.4,-254.28 542.71,-251.24"/>
</g>
<!-- Node21 -->
<g id="node21" class="node">
<title>Node21</title>
<g id="a_node21"><a xlink:href="fvm__periodicity_8h.html" target="_top" xlink:title=" ">
<polygon fill="white" stroke="black" points="447,-168.5 447,-187.5 557,-187.5 557,-168.5 447,-168.5"/>
<text text-anchor="middle" x="502" y="-175.5" font-family="Helvetica,sans-Serif" font-size="10.00">fvm/fvm_periodicity.h</text>
</a>
</g>
</g>
<!-- Node16&#45;&gt;Node21 -->
<g id="edge43" class="edge">
<title>Node16&#45;&gt;Node21</title>
<path fill="none" stroke="midnightblue" d="M567.39,-280.38C581.32,-267.73 603.01,-243.53 591,-224 581.45,-208.47 564.69,-198.1 548.27,-191.27"/>
<polygon fill="midnightblue" stroke="midnightblue" points="549.29,-187.92 538.7,-187.65 546.82,-194.46 549.29,-187.92"/>
</g>
<!-- Node22 -->
<g id="node22" class="node">
<title>Node22</title>
<g id="a_node22"><a xlink:href="cs__rank__neighbors_8h.html" target="_top" xlink:title=" ">
<polygon fill="white" stroke="black" points="575.5,-168.5 575.5,-187.5 706.5,-187.5 706.5,-168.5 575.5,-168.5"/>
<text text-anchor="middle" x="641" y="-175.5" font-family="Helvetica,sans-Serif" font-size="10.00">base/cs_rank_neighbors.h</text>
</a>
</g>
</g>
<!-- Node16&#45;&gt;Node22 -->
<g id="edge39" class="edge">
<title>Node16&#45;&gt;Node22</title>
<path fill="none" stroke="midnightblue" d="M568.81,-280.35C579.71,-271.95 595.83,-258.39 607,-244 618.32,-229.41 627.73,-210.49 633.76,-196.83"/>
<polygon fill="midnightblue" stroke="midnightblue" points="637,-198.14 637.68,-187.56 630.56,-195.41 637,-198.14"/>
</g>
<!-- Node17&#45;&gt;Node2 -->
<g id="edge28" class="edge">
<title>Node17&#45;&gt;Node2</title>
<path fill="none" stroke="midnightblue" d="M363.69,-224.2C356.15,-202.45 340.28,-145.51 367,-112 384.84,-89.63 459.93,-77.5 512.07,-71.64"/>
<polygon fill="midnightblue" stroke="midnightblue" points="512.6,-75.1 522.17,-70.55 511.85,-68.14 512.6,-75.1"/>
</g>
<!-- Node17&#45;&gt;Node7 -->
<g id="edge29" class="edge">
<title>Node17&#45;&gt;Node7</title>
<path fill="none" stroke="midnightblue" d="M424.27,-226.75C528.37,-215.4 745.55,-191.7 828.66,-182.64"/>
<polygon fill="midnightblue" stroke="midnightblue" points="829.24,-186.1 838.8,-181.53 828.48,-179.14 829.24,-186.1"/>
</g>
<!-- Node17&#45;&gt;Node18 -->
<g id="edge30" class="edge">
<title>Node17&#45;&gt;Node18</title>
<path fill="none" stroke="midnightblue" d="M328.65,-224.44C286.53,-215.04 218.79,-199.93 173.13,-189.74"/>
<polygon fill="midnightblue" stroke="midnightblue" points="173.69,-186.28 163.17,-187.52 172.16,-193.11 173.69,-186.28"/>
</g>
<!-- Node18&#45;&gt;Node2 -->
<g id="edge31" class="edge">
<title>Node18&#45;&gt;Node2</title>
<path fill="none" stroke="midnightblue" d="M125.45,-168.17C126.68,-153.84 131.36,-125.76 149,-112 177.13,-90.05 407.59,-75.24 512.42,-69.58"/>
<polygon fill="midnightblue" stroke="midnightblue" points="512.67,-73.07 522.47,-69.04 512.29,-66.08 512.67,-73.07"/>
</g>
<!-- Node18&#45;&gt;Node9 -->
<g id="edge32" class="edge">
<title>Node18&#45;&gt;Node9</title>
<path fill="none" stroke="midnightblue" d="M114.4,-168.32C104.54,-160.26 89.65,-148.08 77.78,-138.37"/>
<polygon fill="midnightblue" stroke="midnightblue" points="79.75,-135.46 69.8,-131.83 75.32,-140.88 79.75,-135.46"/>
</g>
<!-- Node20 -->
<g id="node20" class="node">
<title>Node20</title>
<g id="a_node20"><a xlink:href="fvm__defs_8h.html" target="_top" xlink:title=" ">
<polygon fill="white" stroke="black" points="409.5,-112.5 409.5,-131.5 494.5,-131.5 494.5,-112.5 409.5,-112.5"/>
<text text-anchor="middle" x="452" y="-119.5" font-family="Helvetica,sans-Serif" font-size="10.00">fvm/fvm_defs.h</text>
</a>
</g>
</g>
<!-- Node19&#45;&gt;Node20 -->
<g id="edge34" class="edge">
<title>Node19&#45;&gt;Node20</title>
<path fill="none" stroke="midnightblue" d="M491.75,-224.48C472,-217.99 449.82,-206.84 438,-188 429.02,-173.68 434.9,-154.47 441.57,-140.65"/>
<polygon fill="midnightblue" stroke="midnightblue" points="444.73,-142.16 446.37,-131.69 438.56,-138.85 444.73,-142.16"/>
</g>
<!-- Node19&#45;&gt;Node21 -->
<g id="edge36" class="edge">
<title>Node19&#45;&gt;Node21</title>
<path fill="none" stroke="midnightblue" d="M526.21,-224.08C522.24,-216.69 516.47,-205.95 511.57,-196.81"/>
<polygon fill="midnightblue" stroke="midnightblue" points="514.51,-194.91 506.7,-187.75 508.35,-198.22 514.51,-194.91"/>
</g>
<!-- Node20&#45;&gt;Node2 -->
<g id="edge35" class="edge">
<title>Node20&#45;&gt;Node2</title>
<path fill="none" stroke="midnightblue" d="M469.99,-112.32C488.04,-103.62 516.05,-90.12 536.8,-80.11"/>
<polygon fill="midnightblue" stroke="midnightblue" points="538.56,-83.15 546.05,-75.65 535.52,-76.84 538.56,-83.15"/>
</g>
<!-- Node21&#45;&gt;Node2 -->
<g id="edge37" class="edge">
<title>Node21&#45;&gt;Node2</title>
<path fill="none" stroke="midnightblue" d="M506.87,-168.37C517.05,-150.3 540.79,-108.18 554.24,-84.31"/>
<polygon fill="midnightblue" stroke="midnightblue" points="557.3,-86.02 559.16,-75.59 551.2,-82.58 557.3,-86.02"/>
</g>
<!-- Node21&#45;&gt;Node20 -->
<g id="edge38" class="edge">
<title>Node21&#45;&gt;Node20</title>
<path fill="none" stroke="midnightblue" d="M493.74,-168.08C486.54,-160.3 475.89,-148.8 467.15,-139.37"/>
<polygon fill="midnightblue" stroke="midnightblue" points="469.47,-136.71 460.1,-131.75 464.33,-141.47 469.47,-136.71"/>
</g>
<!-- Node22&#45;&gt;Node2 -->
<g id="edge40" class="edge">
<title>Node22&#45;&gt;Node2</title>
<path fill="none" stroke="midnightblue" d="M650.16,-168.1C662.39,-155.1 681.18,-130.46 669,-112 656.94,-93.72 635.75,-82.83 615.55,-76.37"/>
<polygon fill="midnightblue" stroke="midnightblue" points="616.33,-72.95 605.75,-73.54 614.39,-79.68 616.33,-72.95"/>
</g>
<!-- Node23 -->
<g id="node23" class="node">
<title>Node23</title>
<g id="a_node23"><a xlink:href="cs__block__dist_8h.html" target="_top" xlink:title=" ">
<polygon fill="white" stroke="black" points="551.5,-112.5 551.5,-131.5 660.5,-131.5 660.5,-112.5 551.5,-112.5"/>
<text text-anchor="middle" x="606" y="-119.5" font-family="Helvetica,sans-Serif" font-size="10.00">base/cs_block_dist.h</text>
</a>
</g>
</g>
<!-- Node22&#45;&gt;Node23 -->
<g id="edge41" class="edge">
<title>Node22&#45;&gt;Node23</title>
<path fill="none" stroke="midnightblue" d="M635.22,-168.08C630.33,-160.53 623.17,-149.49 617.17,-140.23"/>
<polygon fill="midnightblue" stroke="midnightblue" points="620.05,-138.24 611.67,-131.75 614.17,-142.05 620.05,-138.24"/>
</g>
<!-- Node23&#45;&gt;Node2 -->
<g id="edge42" class="edge">
<title>Node23&#45;&gt;Node2</title>
<path fill="none" stroke="midnightblue" d="M599.06,-112.08C593.07,-104.38 584.25,-93.03 576.95,-83.65"/>
<polygon fill="midnightblue" stroke="midnightblue" points="579.71,-81.5 570.81,-75.75 574.18,-85.79 579.71,-81.5"/>
</g>
<!-- Node24&#45;&gt;Node2 -->
<g id="edge45" class="edge">
<title>Node24&#45;&gt;Node2</title>
<path fill="none" stroke="midnightblue" d="M626.95,-392.4C627.12,-372.03 629.29,-319.57 646,-280 668.75,-226.14 729.23,-224.71 715,-168 708.13,-140.61 706.27,-130.57 685,-112 665.42,-94.91 638.76,-84.07 615.45,-77.33"/>
<polygon fill="midnightblue" stroke="midnightblue" points="616.26,-73.92 605.69,-74.68 614.42,-80.68 616.26,-73.92"/>
</g>
<!-- Node24&#45;&gt;Node16 -->
<g id="edge46" class="edge">
<title>Node24&#45;&gt;Node16</title>
<path fill="none" stroke="midnightblue" d="M621.51,-392.37C610.01,-374.3 583.2,-332.18 568.01,-308.31"/>
<polygon fill="midnightblue" stroke="midnightblue" points="570.79,-306.15 562.47,-299.59 564.88,-309.91 570.79,-306.15"/>
</g>
<!-- Node25 -->
<g id="node25" class="node">
<title>Node25</title>
<g id="a_node25"><a xlink:href="cs__numbering_8h.html" target="_top" xlink:title=" ">
<polygon fill="white" stroke="black" points="655,-280.5 655,-299.5 765,-299.5 765,-280.5 655,-280.5"/>
<text text-anchor="middle" x="710" y="-287.5" font-family="Helvetica,sans-Serif" font-size="10.00">base/cs_numbering.h</text>
</a>
</g>
</g>
<!-- Node24&#45;&gt;Node25 -->
<g id="edge47" class="edge">
<title>Node24&#45;&gt;Node25</title>
<path fill="none" stroke="midnightblue" d="M633.51,-392.37C647.27,-374.14 679.5,-331.43 697.42,-307.68"/>
<polygon fill="midnightblue" stroke="midnightblue" points="700.29,-309.68 703.52,-299.59 694.7,-305.47 700.29,-309.68"/>
</g>
<!-- Node26 -->
<g id="node26" class="node">
<title>Node26</title>
<g id="a_node26"><a xlink:href="cs__matrix__assembler_8h.html" target="_top" xlink:title=" ">
<polygon fill="white" stroke="black" points="316.5,-336.5 316.5,-355.5 455.5,-355.5 455.5,-336.5 316.5,-336.5"/>
<text text-anchor="middle" x="386" y="-343.5" font-family="Helvetica,sans-Serif" font-size="10.00">alge/cs_matrix_assembler.h</text>
</a>
</g>
</g>
<!-- Node24&#45;&gt;Node26 -->
<g id="edge51" class="edge">
<title>Node24&#45;&gt;Node26</title>
<path fill="none" stroke="midnightblue" d="M588.81,-392.44C546.86,-383.04 479.41,-367.93 433.93,-357.74"/>
<polygon fill="midnightblue" stroke="midnightblue" points="434.53,-354.29 424.01,-355.52 433,-361.12 434.53,-354.29"/>
</g>
<!-- Node25&#45;&gt;Node2 -->
<g id="edge48" class="edge">
<title>Node25&#45;&gt;Node2</title>
<path fill="none" stroke="midnightblue" d="M716.44,-280.16C735.91,-252.24 790.41,-164.7 749,-112 732.7,-91.26 664.78,-78.88 615.97,-72.51"/>
<polygon fill="midnightblue" stroke="midnightblue" points="616.22,-69.01 605.87,-71.24 615.35,-75.96 616.22,-69.01"/>
</g>
<!-- Node25&#45;&gt;Node12 -->
<g id="edge49" class="edge">
<title>Node25&#45;&gt;Node12</title>
<path fill="none" stroke="midnightblue" d="M735.67,-280.44C762.92,-271.36 806.18,-256.94 836.65,-246.78"/>
<polygon fill="midnightblue" stroke="midnightblue" points="838.07,-250 846.45,-243.52 835.86,-243.36 838.07,-250"/>
</g>
<!-- Node25&#45;&gt;Node13 -->
<g id="edge50" class="edge">
<title>Node25&#45;&gt;Node13</title>
<path fill="none" stroke="midnightblue" d="M654.8,-283.01C556.8,-272.39 353.97,-250.39 260.77,-240.29"/>
<polygon fill="midnightblue" stroke="midnightblue" points="261.08,-236.8 250.76,-239.2 260.33,-243.76 261.08,-236.8"/>
</g>
<!-- Node26&#45;&gt;Node2 -->
<g id="edge52" class="edge">
<title>Node26&#45;&gt;Node2</title>
<path fill="none" stroke="midnightblue" d="M374.94,-336.48C355.52,-320.73 315.92,-284.91 301,-244 282.49,-193.26 311.81,-144.85 353,-112 377.14,-92.75 457.71,-79.63 512,-72.73"/>
<polygon fill="midnightblue" stroke="midnightblue" points="512.66,-76.17 522.15,-71.47 511.8,-69.23 512.66,-76.17"/>
</g>
<!-- Node26&#45;&gt;Node13 -->
<g id="edge54" class="edge">
<title>Node26&#45;&gt;Node13</title>
<path fill="none" stroke="midnightblue" d="M354.79,-336.42C331.3,-329.05 298.98,-316.93 274,-300 254.33,-286.67 236.11,-266.18 224.58,-251.78"/>
<polygon fill="midnightblue" stroke="midnightblue" points="227.22,-249.46 218.32,-243.71 221.69,-253.76 227.22,-249.46"/>
</g>
<!-- Node26&#45;&gt;Node16 -->
<g id="edge53" class="edge">
<title>Node26&#45;&gt;Node16</title>
<path fill="none" stroke="midnightblue" d="M413.1,-336.44C441.99,-327.32 487.92,-312.81 520.11,-302.65"/>
<polygon fill="midnightblue" stroke="midnightblue" points="521.55,-305.87 530.03,-299.52 519.44,-299.19 521.55,-305.87"/>
</g>
<!-- Node28 -->
<g id="node28" class="node">
<title>Node28</title>
<g id="a_node28"><a xlink:href="cs__param__sles_8h.html" target="_top" xlink:title="Structure and routines handling the SLES ((Sparse Linear Equation Solver) settings stored inside a cs...">
<polygon fill="white" stroke="black" points="1023,-392.5 1023,-411.5 1135,-411.5 1135,-392.5 1023,-392.5"/>
<text text-anchor="middle" x="1079" y="-399.5" font-family="Helvetica,sans-Serif" font-size="10.00">alge/cs_param_sles.h</text>
</a>
</g>
</g>
<!-- Node27&#45;&gt;Node28 -->
<g id="edge59" class="edge">
<title>Node27&#45;&gt;Node28</title>
<path fill="none" stroke="midnightblue" d="M1054.79,-448.08C1058.76,-440.69 1064.53,-429.95 1069.43,-420.81"/>
<polygon fill="midnightblue" stroke="midnightblue" points="1072.65,-422.22 1074.3,-411.75 1066.49,-418.91 1072.65,-422.22"/>
</g>
<!-- Node29 -->
<g id="node29" class="node">
<title>Node29</title>
<g id="a_node29"><a xlink:href="cs__param__amg_8h.html" target="_top" xlink:title="Routines to handle the set of parameters for algebraic multigrids (AMG) like boomerAMG of the HYPRE l...">
<polygon fill="white" stroke="black" points="1079.5,-336.5 1079.5,-355.5 1192.5,-355.5 1192.5,-336.5 1079.5,-336.5"/>
<text text-anchor="middle" x="1136" y="-343.5" font-family="Helvetica,sans-Serif" font-size="10.00">alge/cs_param_amg.h</text>
</a>
</g>
</g>
<!-- Node28&#45;&gt;Node29 -->
<g id="edge60" class="edge">
<title>Node28&#45;&gt;Node29</title>
<path fill="none" stroke="midnightblue" d="M1088.16,-392.32C1096.5,-384.42 1109.03,-372.55 1119.18,-362.94"/>
<polygon fill="midnightblue" stroke="midnightblue" points="1121.82,-365.25 1126.68,-355.83 1117.01,-360.17 1121.82,-365.25"/>
</g>
<!-- Node30 -->
<g id="node30" class="node">
<title>Node30</title>
<g id="a_node30"><a xlink:href="cs__param__types_8h.html" target="_top" xlink:title=" ">
<polygon fill="white" stroke="black" points="1075.5,-280.5 1075.5,-299.5 1196.5,-299.5 1196.5,-280.5 1075.5,-280.5"/>
<text text-anchor="middle" x="1136" y="-287.5" font-family="Helvetica,sans-Serif" font-size="10.00">base/cs_param_types.h</text>
</a>
</g>
</g>
<!-- Node28&#45;&gt;Node30 -->
<g id="edge64" class="edge">
<title>Node28&#45;&gt;Node30</title>
<path fill="none" stroke="midnightblue" d="M1135.12,-394.62C1159.57,-388.74 1186.03,-377.48 1201,-356 1215.1,-335.77 1188.51,-316.29 1165.2,-304.01"/>
<polygon fill="midnightblue" stroke="midnightblue" points="1166.71,-300.85 1156.2,-299.52 1163.59,-307.12 1166.71,-300.85"/>
</g>
<!-- Node31 -->
<g id="node31" class="node">
<title>Node31</title>
<g id="a_node31"><a xlink:href="cs__param__mumps_8h.html" target="_top" xlink:title="Routines and structure to handle the MUMPS setup. The structure is used as a context structure of a c...">
<polygon fill="white" stroke="black" points="935,-336.5 935,-355.5 1061,-355.5 1061,-336.5 935,-336.5"/>
<text text-anchor="middle" x="998" y="-343.5" font-family="Helvetica,sans-Serif" font-size="10.00">alge/cs_param_mumps.h</text>
</a>
</g>
</g>
<!-- Node28&#45;&gt;Node31 -->
<g id="edge63" class="edge">
<title>Node28&#45;&gt;Node31</title>
<path fill="none" stroke="midnightblue" d="M1065.99,-392.32C1053.47,-383.98 1034.32,-371.21 1019.53,-361.35"/>
<polygon fill="midnightblue" stroke="midnightblue" points="1021.24,-358.29 1010.98,-355.65 1017.36,-364.11 1021.24,-358.29"/>
</g>
<!-- Node29&#45;&gt;Node30 -->
<g id="edge61" class="edge">
<title>Node29&#45;&gt;Node30</title>
<path fill="none" stroke="midnightblue" d="M1136,-336.08C1136,-329.01 1136,-318.86 1136,-309.99"/>
<polygon fill="midnightblue" stroke="midnightblue" points="1139.5,-309.75 1136,-299.75 1132.5,-309.75 1139.5,-309.75"/>
</g>
<!-- Node30&#45;&gt;Node2 -->
<g id="edge62" class="edge">
<title>Node30&#45;&gt;Node2</title>
<path fill="none" stroke="midnightblue" d="M1125.8,-280.16C1091.16,-250.69 973.84,-155.22 859,-112 777.64,-81.38 676.2,-71.57 615.96,-68.44"/>
<polygon fill="midnightblue" stroke="midnightblue" points="616.08,-64.94 605.93,-67.96 615.75,-71.93 616.08,-64.94"/>
</g>
</g>
</svg>
