<?xml version="1.0" encoding="UTF-8" standalone="no"?>
<!DOCTYPE svg PUBLIC "-//W3C//DTD SVG 1.1//EN"
 "http://www.w3.org/Graphics/SVG/1.1/DTD/svg11.dtd">
<!-- Generated by graphviz version 2.43.0 (0)
 -->
<!-- Title: General module for specific physics Pages: 1 -->
<svg width="254pt" height="284pt"
 viewBox="0.00 0.00 254.00 284.00" xmlns="http://www.w3.org/2000/svg" xmlns:xlink="http://www.w3.org/1999/xlink">
<g id="graph0" class="graph" transform="scale(1 1) rotate(0) translate(4 280)">
<title>General module for specific physics</title>
<polygon fill="white" stroke="transparent" points="-4,4 -4,-280 250,-280 250,4 -4,4"/>
<!-- Node7 -->
<g id="node1" class="node">
<title>Node7</title>
<g id="a_node1"><a xlink:href="group__boundary__conditions.html" target="_top" xlink:title=" ">
<polygon fill="white" stroke="black" points="243,-276 138,-276 138,-257 243,-257 243,-276"/>
<text text-anchor="middle" x="190.5" y="-264" font-family="Helvetica,sans-Serif" font-size="10.00">Boundary conditions</text>
</a>
</g>
</g>
<!-- Node2 -->
<g id="node2" class="node">
<title>Node2</title>
<g id="a_node2"><a xlink:href="group__choice.html" target="_top" xlink:title=" ">
<polygon fill="white" stroke="black" points="236.5,-238.5 144.5,-238.5 144.5,-208.5 236.5,-208.5 236.5,-238.5"/>
<text text-anchor="start" x="152.5" y="-226.5" font-family="Helvetica,sans-Serif" font-size="10.00">Indicator table for</text>
<text text-anchor="middle" x="190.5" y="-215.5" font-family="Helvetica,sans-Serif" font-size="10.00"> specific physics</text>
</a>
</g>
</g>
<!-- Node5 -->
<g id="node3" class="node">
<title>Node5</title>
<g id="a_node3"><a xlink:href="group__common.html" target="_top" xlink:title=" ">
<polygon fill="white" stroke="black" points="218.5,-190 162.5,-190 162.5,-171 218.5,-171 218.5,-190"/>
<text text-anchor="middle" x="190.5" y="-178" font-family="Helvetica,sans-Serif" font-size="10.00">Common</text>
</a>
</g>
</g>
<!-- Node4 -->
<g id="node4" class="node">
<title>Node4</title>
<g id="a_node4"><a xlink:href="group__compressible.html" target="_top" xlink:title=" ">
<polygon fill="white" stroke="black" points="246,-152.5 135,-152.5 135,-122.5 246,-122.5 246,-152.5"/>
<text text-anchor="start" x="143" y="-140.5" font-family="Helvetica,sans-Serif" font-size="10.00">Compressible models</text>
<text text-anchor="middle" x="190.5" y="-129.5" font-family="Helvetica,sans-Serif" font-size="10.00"> options</text>
</a>
</g>
</g>
<!-- Node6 -->
<g id="node5" class="node">
<title>Node6</title>
<g id="a_node5"><a xlink:href="group__enthalpy.html" target="_top" xlink:title=" ">
<polygon fill="white" stroke="black" points="240,-104.5 141,-104.5 141,-74.5 240,-74.5 240,-104.5"/>
<text text-anchor="start" x="149" y="-92.5" font-family="Helvetica,sans-Serif" font-size="10.00">Enthalpic variables</text>
<text text-anchor="middle" x="190.5" y="-81.5" font-family="Helvetica,sans-Serif" font-size="10.00"> pointers</text>
</a>
</g>
</g>
<!-- Node8 -->
<g id="node6" class="node">
<title>Node8</title>
<g id="a_node6"><a xlink:href="group__gas__mixture.html" target="_top" xlink:title=" ">
<polygon fill="white" stroke="black" points="226.5,-56 154.5,-56 154.5,-37 226.5,-37 226.5,-56"/>
<text text-anchor="middle" x="190.5" y="-44" font-family="Helvetica,sans-Serif" font-size="10.00">Gas_mixture</text>
</a>
</g>
</g>
<!-- Node3 -->
<g id="node7" class="node">
<title>Node3</title>
<g id="a_node7"><a xlink:href="group__modelling.html" target="_top" xlink:title=" ">
<polygon fill="white" stroke="black" points="240.5,-19 140.5,-19 140.5,0 240.5,0 240.5,-19"/>
<text text-anchor="middle" x="190.5" y="-7" font-family="Helvetica,sans-Serif" font-size="10.00">chosen by the user</text>
</a>
</g>
</g>
<!-- Node1 -->
<g id="node8" class="node">
<title>Node1</title>
<g id="a_node8"><a xlink:title=" ">
<polygon fill="#bfbfbf" stroke="black" points="99,-152.5 0,-152.5 0,-122.5 99,-122.5 99,-152.5"/>
<text text-anchor="start" x="8" y="-140.5" font-family="Helvetica,sans-Serif" font-size="10.00">General module for</text>
<text text-anchor="middle" x="49.5" y="-129.5" font-family="Helvetica,sans-Serif" font-size="10.00"> specific physics</text>
</a>
</g>
</g>
<!-- Node1&#45;&gt;Node7 -->
<g id="edge6" class="edge">
<title>Node1&#45;&gt;Node7</title>
<path fill="none" stroke="black" d="M63.21,-161.33C77.58,-186.13 103.15,-224.49 135,-247.5 140.28,-251.31 146.39,-254.42 152.57,-256.92"/>
<polygon fill="black" stroke="black" points="66.23,-159.55 58.27,-152.55 60.13,-162.98 66.23,-159.55"/>
</g>
<!-- Node1&#45;&gt;Node2 -->
<g id="edge1" class="edge">
<title>Node1&#45;&gt;Node2</title>
<path fill="none" stroke="black" d="M76.45,-158.84C92.67,-171.59 114.34,-187.56 135,-199.5 140.46,-202.65 146.41,-205.67 152.31,-208.43"/>
<polygon fill="black" stroke="black" points="78.5,-156 68.5,-152.51 74.14,-161.48 78.5,-156"/>
</g>
<!-- Node1&#45;&gt;Node5 -->
<g id="edge4" class="edge">
<title>Node1&#45;&gt;Node5</title>
<path fill="none" stroke="black" d="M108.69,-155.5C127.24,-161.24 146.9,-167.32 162.18,-172.05"/>
<polygon fill="black" stroke="black" points="109.7,-152.15 99.12,-152.54 107.63,-158.84 109.7,-152.15"/>
</g>
<!-- Node1&#45;&gt;Node4 -->
<g id="edge3" class="edge">
<title>Node1&#45;&gt;Node4</title>
<path fill="none" stroke="black" d="M109.34,-137.5C117.84,-137.5 126.56,-137.5 134.97,-137.5"/>
<polygon fill="black" stroke="black" points="109.12,-134 99.12,-137.5 109.12,-141 109.12,-134"/>
</g>
<!-- Node1&#45;&gt;Node6 -->
<g id="edge5" class="edge">
<title>Node1&#45;&gt;Node6</title>
<path fill="none" stroke="black" d="M103.63,-119.15C117.65,-114.31 132.61,-109.14 146.06,-104.5"/>
<polygon fill="black" stroke="black" points="102.41,-115.87 94.1,-122.44 104.69,-122.49 102.41,-115.87"/>
</g>
<!-- Node1&#45;&gt;Node8 -->
<g id="edge7" class="edge">
<title>Node1&#45;&gt;Node8</title>
<path fill="none" stroke="black" d="M72.08,-115.13C88.21,-99.47 111.43,-79.01 135,-65.5 141.43,-61.81 148.7,-58.67 155.78,-56.06"/>
<polygon fill="black" stroke="black" points="69.41,-112.85 64.77,-122.38 74.34,-117.82 69.41,-112.85"/>
</g>
<!-- Node1&#45;&gt;Node3 -->
<g id="edge2" class="edge">
<title>Node1&#45;&gt;Node3</title>
<path fill="none" stroke="black" d="M63.5,-113.49C77.95,-88.9 103.45,-51.18 135,-28.5 140.29,-24.7 146.4,-21.6 152.59,-19.1"/>
<polygon fill="black" stroke="black" points="60.44,-111.79 58.52,-122.21 66.52,-115.26 60.44,-111.79"/>
</g>
</g>
</svg>
