<?xml version="1.0" encoding="UTF-8" standalone="no"?>
<!DOCTYPE svg PUBLIC "-//W3C//DTD SVG 1.1//EN"
 "http://www.w3.org/Graphics/SVG/1.1/DTD/svg11.dtd">
<!-- Generated by graphviz version 2.43.0 (0)
 -->
<!-- Title: cs_cdo_connect_t Pages: 1 -->
<svg width="199pt" height="661pt"
 viewBox="0.00 0.00 198.50 661.00" xmlns="http://www.w3.org/2000/svg" xmlns:xlink="http://www.w3.org/1999/xlink">
<g id="graph0" class="graph" transform="scale(1 1) rotate(0) translate(4 657)">
<title>cs_cdo_connect_t</title>
<polygon fill="white" stroke="transparent" points="-4,4 -4,-657 194.5,-657 194.5,4 -4,4"/>
<!-- Node1 -->
<g id="node1" class="node">
<title>Node1</title>
<g id="a_node1"><a xlink:title=" ">
<polygon fill="#bfbfbf" stroke="black" points="53,-0.5 53,-167.5 167,-167.5 167,-0.5 53,-0.5"/>
<text text-anchor="middle" x="110" y="-155.5" font-family="Helvetica,sans-Serif" font-size="10.00">cs_cdo_connect_t</text>
<polyline fill="none" stroke="black" points="53,-148.5 167,-148.5 "/>
<text text-anchor="start" x="61" y="-136.5" font-family="Helvetica,sans-Serif" font-size="10.00">+ n_vertices</text>
<text text-anchor="start" x="61" y="-125.5" font-family="Helvetica,sans-Serif" font-size="10.00">+ vtx_ifs</text>
<text text-anchor="start" x="61" y="-114.5" font-family="Helvetica,sans-Serif" font-size="10.00">+ n_edges</text>
<text text-anchor="start" x="61" y="-103.5" font-family="Helvetica,sans-Serif" font-size="10.00">+ n_g_edges</text>
<text text-anchor="start" x="61" y="-92.5" font-family="Helvetica,sans-Serif" font-size="10.00">+ edge_ifs</text>
<text text-anchor="start" x="61" y="-81.5" font-family="Helvetica,sans-Serif" font-size="10.00">+ n_faces</text>
<text text-anchor="start" x="61" y="-70.5" font-family="Helvetica,sans-Serif" font-size="10.00">+ if2v</text>
<text text-anchor="start" x="61" y="-59.5" font-family="Helvetica,sans-Serif" font-size="10.00">+ face_ifs</text>
<text text-anchor="start" x="61" y="-48.5" font-family="Helvetica,sans-Serif" font-size="10.00">+ n_cells</text>
<text text-anchor="start" x="61" y="-37.5" font-family="Helvetica,sans-Serif" font-size="10.00">+ n_cells_with_ghosts</text>
<text text-anchor="start" x="61" y="-26.5" font-family="Helvetica,sans-Serif" font-size="10.00">and 13 more...</text>
<polyline fill="none" stroke="black" points="53,-19.5 167,-19.5 "/>
<text text-anchor="middle" x="110" y="-7.5" font-family="Helvetica,sans-Serif" font-size="10.00"> </text>
</a>
</g>
</g>
<!-- Node2 -->
<g id="node2" class="node">
<title>Node2</title>
<g id="a_node2"><a xlink:href="structcs__range__set__t.html" target="_top" xlink:title=" ">
<polygon fill="white" stroke="black" points="4.5,-331 4.5,-432 87.5,-432 87.5,-331 4.5,-331"/>
<text text-anchor="middle" x="46" y="-420" font-family="Helvetica,sans-Serif" font-size="10.00">cs_range_set_t</text>
<polyline fill="none" stroke="black" points="4.5,-413 87.5,-413 "/>
<text text-anchor="start" x="12.5" y="-401" font-family="Helvetica,sans-Serif" font-size="10.00">+ n_elts</text>
<text text-anchor="start" x="12.5" y="-390" font-family="Helvetica,sans-Serif" font-size="10.00">+ l_range</text>
<text text-anchor="start" x="12.5" y="-379" font-family="Helvetica,sans-Serif" font-size="10.00">+ g_id</text>
<text text-anchor="start" x="12.5" y="-368" font-family="Helvetica,sans-Serif" font-size="10.00">+ _g_id</text>
<text text-anchor="start" x="12.5" y="-357" font-family="Helvetica,sans-Serif" font-size="10.00">+ ifs</text>
<polyline fill="none" stroke="black" points="4.5,-350 87.5,-350 "/>
<text text-anchor="middle" x="46" y="-338" font-family="Helvetica,sans-Serif" font-size="10.00"> </text>
</a>
</g>
</g>
<!-- Node2&#45;&gt;Node1 -->
<g id="edge1" class="edge">
<title>Node2&#45;&gt;Node1</title>
<path fill="none" stroke="#404040" d="M47.35,-330.61C49.38,-290.88 54.45,-234.15 67,-186 67.59,-183.72 68.23,-181.42 68.91,-179.11"/>
<polygon fill="none" stroke="#404040" points="68.95,-178.98 66.95,-172.06 72.57,-167.54 74.57,-174.47 68.95,-178.98"/>
<text text-anchor="middle" x="93" y="-255" font-family="Helvetica,sans-Serif" font-size="10.00"> +edge_rset</text>
<text text-anchor="middle" x="93" y="-244" font-family="Helvetica,sans-Serif" font-size="10.00">+face_rset</text>
<text text-anchor="middle" x="93" y="-233" font-family="Helvetica,sans-Serif" font-size="10.00">+vtx_rset</text>
</g>
<!-- Node3 -->
<g id="node3" class="node">
<title>Node3</title>
<g id="a_node3"><a xlink:href="structcs__halo__t.html" target="_top" xlink:title=" ">
<polygon fill="white" stroke="black" points="0,-485.5 0,-652.5 92,-652.5 92,-485.5 0,-485.5"/>
<text text-anchor="middle" x="46" y="-640.5" font-family="Helvetica,sans-Serif" font-size="10.00">cs_halo_t</text>
<polyline fill="none" stroke="black" points="0,-633.5 92,-633.5 "/>
<text text-anchor="start" x="8" y="-621.5" font-family="Helvetica,sans-Serif" font-size="10.00">+ n_c_domains</text>
<text text-anchor="start" x="8" y="-610.5" font-family="Helvetica,sans-Serif" font-size="10.00">+ n_transforms</text>
<text text-anchor="start" x="8" y="-599.5" font-family="Helvetica,sans-Serif" font-size="10.00">+ c_domain_rank</text>
<text text-anchor="start" x="8" y="-588.5" font-family="Helvetica,sans-Serif" font-size="10.00">+ periodicity</text>
<text text-anchor="start" x="8" y="-577.5" font-family="Helvetica,sans-Serif" font-size="10.00">+ n_rotations</text>
<text text-anchor="start" x="8" y="-566.5" font-family="Helvetica,sans-Serif" font-size="10.00">+ n_local_elts</text>
<text text-anchor="start" x="8" y="-555.5" font-family="Helvetica,sans-Serif" font-size="10.00">+ n_send_elts</text>
<text text-anchor="start" x="8" y="-544.5" font-family="Helvetica,sans-Serif" font-size="10.00">+ send_list</text>
<text text-anchor="start" x="8" y="-533.5" font-family="Helvetica,sans-Serif" font-size="10.00">+ send_index</text>
<text text-anchor="start" x="8" y="-522.5" font-family="Helvetica,sans-Serif" font-size="10.00">+ send_perio_lst</text>
<text text-anchor="start" x="8" y="-511.5" font-family="Helvetica,sans-Serif" font-size="10.00">and 6 more...</text>
<polyline fill="none" stroke="black" points="0,-504.5 92,-504.5 "/>
<text text-anchor="middle" x="46" y="-492.5" font-family="Helvetica,sans-Serif" font-size="10.00"> </text>
</a>
</g>
</g>
<!-- Node3&#45;&gt;Node2 -->
<g id="edge2" class="edge">
<title>Node3&#45;&gt;Node2</title>
<path fill="none" stroke="#404040" d="M46,-485.29C46,-471.52 46,-457.46 46,-444.33"/>
<polygon fill="none" stroke="#404040" points="46,-444.07 42,-438.07 46,-432.07 50,-438.07 46,-444.07"/>
<text text-anchor="middle" x="60" y="-459" font-family="Helvetica,sans-Serif" font-size="10.00"> +halo</text>
</g>
<!-- Node4 -->
<g id="node4" class="node">
<title>Node4</title>
<g id="a_node4"><a xlink:href="structcs__adjacency__t.html" target="_top" xlink:title=" ">
<polygon fill="white" stroke="black" points="105.5,-325.5 105.5,-437.5 190.5,-437.5 190.5,-325.5 105.5,-325.5"/>
<text text-anchor="middle" x="148" y="-425.5" font-family="Helvetica,sans-Serif" font-size="10.00">cs_adjacency_t</text>
<polyline fill="none" stroke="black" points="105.5,-418.5 190.5,-418.5 "/>
<text text-anchor="start" x="113.5" y="-406.5" font-family="Helvetica,sans-Serif" font-size="10.00">+ flag</text>
<text text-anchor="start" x="113.5" y="-395.5" font-family="Helvetica,sans-Serif" font-size="10.00">+ stride</text>
<text text-anchor="start" x="113.5" y="-384.5" font-family="Helvetica,sans-Serif" font-size="10.00">+ n_elts</text>
<text text-anchor="start" x="113.5" y="-373.5" font-family="Helvetica,sans-Serif" font-size="10.00">+ idx</text>
<text text-anchor="start" x="113.5" y="-362.5" font-family="Helvetica,sans-Serif" font-size="10.00">+ ids</text>
<text text-anchor="start" x="113.5" y="-351.5" font-family="Helvetica,sans-Serif" font-size="10.00">+ sgn</text>
<polyline fill="none" stroke="black" points="105.5,-344.5 190.5,-344.5 "/>
<text text-anchor="middle" x="148" y="-332.5" font-family="Helvetica,sans-Serif" font-size="10.00"> </text>
</a>
</g>
</g>
<!-- Node4&#45;&gt;Node1 -->
<g id="edge3" class="edge">
<title>Node4&#45;&gt;Node1</title>
<path fill="none" stroke="#404040" d="M140.9,-325.27C135.64,-284.38 128.35,-227.68 122.17,-179.62"/>
<polygon fill="none" stroke="#404040" points="122.15,-179.51 117.42,-174.07 120.62,-167.61 125.36,-173.05 122.15,-179.51"/>
<text text-anchor="middle" x="151" y="-299" font-family="Helvetica,sans-Serif" font-size="10.00"> +bf2v</text>
<text text-anchor="middle" x="151" y="-288" font-family="Helvetica,sans-Serif" font-size="10.00">+c2e</text>
<text text-anchor="middle" x="151" y="-277" font-family="Helvetica,sans-Serif" font-size="10.00">+c2f</text>
<text text-anchor="middle" x="151" y="-266" font-family="Helvetica,sans-Serif" font-size="10.00">+c2v</text>
<text text-anchor="middle" x="151" y="-255" font-family="Helvetica,sans-Serif" font-size="10.00">+e2e</text>
<text text-anchor="middle" x="151" y="-244" font-family="Helvetica,sans-Serif" font-size="10.00">+e2f</text>
<text text-anchor="middle" x="151" y="-233" font-family="Helvetica,sans-Serif" font-size="10.00">+e2v</text>
<text text-anchor="middle" x="151" y="-222" font-family="Helvetica,sans-Serif" font-size="10.00">+f2c</text>
<text text-anchor="middle" x="151" y="-211" font-family="Helvetica,sans-Serif" font-size="10.00">+f2e</text>
<text text-anchor="middle" x="151" y="-200" font-family="Helvetica,sans-Serif" font-size="10.00">+f2f</text>
<text text-anchor="middle" x="151" y="-189" font-family="Helvetica,sans-Serif" font-size="10.00">...</text>
</g>
</g>
</svg>
