<?xml version="1.0" encoding="UTF-8" standalone="no"?>
<!DOCTYPE svg PUBLIC "-//W3C//DTD SVG 1.1//EN"
 "http://www.w3.org/Graphics/SVG/1.1/DTD/svg11.dtd">
<!-- Generated by graphviz version 2.43.0 (0)
 -->
<!-- Title: cs_turbulence_t Pages: 1 -->
<!--zoomable 661 -->
<svg id="main" version="1.1" xmlns="http://www.w3.org/2000/svg" xmlns:xlink="http://www.w3.org/1999/xlink" xml:space="preserve" onload="init(evt)">
<style type="text/css"><![CDATA[
.edge:hover path { stroke: red; }
.edge:hover polygon { stroke: red; fill: red; }
]]></style>
<script type="text/javascript"><![CDATA[
var edges = document.getElementsByTagName('g');
if (edges && edges.length) {
  for (var i=0;i<edges.length;i++) {
    if (edges[i].id.substr(0,4)=='edge') {
      edges[i].setAttribute('class','edge');
    }
  }
}
]]></script>
        <defs>
                <circle id="rim" cx="0" cy="0" r="7"/>
                <circle id="rim2" cx="0" cy="0" r="3.5"/>
                <g id="zoomPlus">
                        <use xlink:href="#rim" fill="#404040">
                                <set attributeName="fill" to="#808080" begin="zoomplus.mouseover" end="zoomplus.mouseout"/>
                        </use>
                        <path d="M-4,0h8M0,-4v8" fill="none" stroke="white" stroke-width="1.5" pointer-events="none"/>
                </g>
                <g id="zoomMin">
                        <use xlink:href="#rim" fill="#404040">
                                <set attributeName="fill" to="#808080" begin="zoomminus.mouseover" end="zoomminus.mouseout"/>
                        </use>
                        <path d="M-4,0h8" fill="none" stroke="white" stroke-width="1.5" pointer-events="none"/>
                </g>
                <g id="dirArrow">
                        <path fill="none" stroke="white" stroke-width="1.5" d="M0,-3.0v7 M-2.5,-0.5L0,-3.0L2.5,-0.5"/>
                </g>
               <g id="resetDef">
                       <use xlink:href="#rim2" fill="#404040">
                               <set attributeName="fill" to="#808080" begin="reset.mouseover" end="reset.mouseout"/>
                       </use>
               </g>
        </defs>

<script type="text/javascript">
var viewWidth = 631;
var viewHeight = 661;
var sectionId = 'dynsection-0';
</script>
<script xlink:href="svgpan.js"/>
<svg id="graph" class="graph">
<g id="viewport">
<title>cs_turbulence_t</title>
<polygon fill="white" stroke="transparent" points="-4,4 -4,-657 626.5,-657 626.5,4 -4,4"/>
<!-- Node1 -->
<g id="node1" class="node">
<title>Node1</title>
<g id="a_node1"><a xlink:title=" ">
<polygon fill="#bfbfbf" stroke="black" points="377.5,-0.5 377.5,-189.5 475.5,-189.5 475.5,-0.5 377.5,-0.5"/>
<text text-anchor="middle" x="426.5" y="-177.5" font-family="Helvetica,sans-Serif" font-size="10.00">cs_turbulence_t</text>
<polyline fill="none" stroke="black" points="377.5,-170.5 475.5,-170.5 "/>
<text text-anchor="start" x="385.5" y="-158.5" font-family="Helvetica,sans-Serif" font-size="10.00">+ mu_tot_array</text>
<text text-anchor="start" x="385.5" y="-147.5" font-family="Helvetica,sans-Serif" font-size="10.00">+ context</text>
<text text-anchor="start" x="385.5" y="-136.5" font-family="Helvetica,sans-Serif" font-size="10.00">+ init_context</text>
<text text-anchor="start" x="385.5" y="-125.5" font-family="Helvetica,sans-Serif" font-size="10.00">+ free_context</text>
<text text-anchor="start" x="385.5" y="-114.5" font-family="Helvetica,sans-Serif" font-size="10.00">+ compute</text>
<text text-anchor="start" x="385.5" y="-103.5" font-family="Helvetica,sans-Serif" font-size="10.00">+ compute_steady</text>
<text text-anchor="start" x="385.5" y="-92.5" font-family="Helvetica,sans-Serif" font-size="10.00">+ update</text>
<polyline fill="none" stroke="black" points="377.5,-85.5 475.5,-85.5 "/>
<text text-anchor="start" x="385.5" y="-73.5" font-family="Helvetica,sans-Serif" font-size="10.00">* mu_tot_array</text>
<text text-anchor="start" x="385.5" y="-62.5" font-family="Helvetica,sans-Serif" font-size="10.00">* context</text>
<text text-anchor="start" x="385.5" y="-51.5" font-family="Helvetica,sans-Serif" font-size="10.00">* init_context</text>
<text text-anchor="start" x="385.5" y="-40.5" font-family="Helvetica,sans-Serif" font-size="10.00">* free_context</text>
<text text-anchor="start" x="385.5" y="-29.5" font-family="Helvetica,sans-Serif" font-size="10.00">* compute</text>
<text text-anchor="start" x="385.5" y="-18.5" font-family="Helvetica,sans-Serif" font-size="10.00">* compute_steady</text>
<text text-anchor="start" x="385.5" y="-7.5" font-family="Helvetica,sans-Serif" font-size="10.00">* update</text>
</a>
</g>
</g>
<!-- Node2 -->
<g id="node2" class="node">
<title>Node2</title>
<g id="a_node2"><a xlink:href="structcs__turbulence__param__t.html" target="_top" xlink:title="Structure storing the parameters related to the resolution of the turbulence modelling....">
<polygon fill="white" stroke="black" points="204.5,-325.5 204.5,-382.5 322.5,-382.5 322.5,-325.5 204.5,-325.5"/>
<text text-anchor="middle" x="263.5" y="-370.5" font-family="Helvetica,sans-Serif" font-size="10.00">cs_turbulence_param_t</text>
<polyline fill="none" stroke="black" points="204.5,-363.5 322.5,-363.5 "/>
<text text-anchor="middle" x="263.5" y="-351.5" font-family="Helvetica,sans-Serif" font-size="10.00"> </text>
<polyline fill="none" stroke="black" points="204.5,-344.5 322.5,-344.5 "/>
<text text-anchor="middle" x="263.5" y="-332.5" font-family="Helvetica,sans-Serif" font-size="10.00"> </text>
</a>
</g>
</g>
<!-- Node2&#45;&gt;Node1 -->
<g id="edge1" class="edge">
<title>Node2&#45;&gt;Node1</title>
<path fill="none" stroke="#404040" d="M280.94,-325.5C302.26,-291.89 339.37,-233.38 370.78,-183.86"/>
<polygon fill="none" stroke="#404040" points="370.96,-183.57 370.8,-176.36 377.39,-173.44 377.55,-180.64 370.96,-183.57"/>
<text text-anchor="middle" x="374" y="-227.5" font-family="Helvetica,sans-Serif" font-size="10.00"> +param</text>
</g>
<!-- Node3 -->
<g id="node3" class="node">
<title>Node3</title>
<g id="a_node3"><a xlink:href="structcs__turb__model__t.html" target="_top" xlink:title="Turbulence model general options descriptor.">
<polygon fill="white" stroke="black" points="0,-502 0,-636 89,-636 89,-502 0,-502"/>
<text text-anchor="middle" x="44.5" y="-624" font-family="Helvetica,sans-Serif" font-size="10.00">cs_turb_model_t</text>
<polyline fill="none" stroke="black" points="0,-617 89,-617 "/>
<text text-anchor="start" x="8" y="-605" font-family="Helvetica,sans-Serif" font-size="10.00">+ model</text>
<text text-anchor="start" x="8" y="-594" font-family="Helvetica,sans-Serif" font-size="10.00">+ iturb</text>
<text text-anchor="start" x="8" y="-583" font-family="Helvetica,sans-Serif" font-size="10.00">+ @34</text>
<text text-anchor="start" x="8" y="-572" font-family="Helvetica,sans-Serif" font-size="10.00">+ itytur</text>
<text text-anchor="start" x="8" y="-561" font-family="Helvetica,sans-Serif" font-size="10.00">+ hybrid_turb</text>
<text text-anchor="start" x="8" y="-550" font-family="Helvetica,sans-Serif" font-size="10.00">+ type</text>
<text text-anchor="start" x="8" y="-539" font-family="Helvetica,sans-Serif" font-size="10.00">+ order</text>
<text text-anchor="start" x="8" y="-528" font-family="Helvetica,sans-Serif" font-size="10.00">+ high_low_re</text>
<polyline fill="none" stroke="black" points="0,-521 89,-521 "/>
<text text-anchor="middle" x="44.5" y="-509" font-family="Helvetica,sans-Serif" font-size="10.00"> </text>
</a>
</g>
</g>
<!-- Node3&#45;&gt;Node2 -->
<g id="edge2" class="edge">
<title>Node3&#45;&gt;Node2</title>
<path fill="none" stroke="#404040" d="M83.88,-501.68C88.22,-495.84 92.79,-490.19 97.5,-485 131.1,-448.01 176.07,-413.5 210.73,-389.34"/>
<polygon fill="none" stroke="#404040" points="210.79,-389.3 213.47,-382.61 220.68,-382.5 218,-389.2 210.79,-389.3"/>
<text text-anchor="middle" x="144.5" y="-459" font-family="Helvetica,sans-Serif" font-size="10.00"> +model</text>
</g>
<!-- Node4 -->
<g id="node4" class="node">
<title>Node4</title>
<g id="a_node4"><a xlink:href="structcs__turb__rans__model__t.html" target="_top" xlink:title="RANS turbulence model descriptor.">
<polygon fill="white" stroke="black" points="107,-485.5 107,-652.5 220,-652.5 220,-485.5 107,-485.5"/>
<text text-anchor="middle" x="163.5" y="-640.5" font-family="Helvetica,sans-Serif" font-size="10.00">cs_turb_rans_model_t</text>
<polyline fill="none" stroke="black" points="107,-633.5 220,-633.5 "/>
<text text-anchor="start" x="115" y="-621.5" font-family="Helvetica,sans-Serif" font-size="10.00">+ irccor</text>
<text text-anchor="start" x="115" y="-610.5" font-family="Helvetica,sans-Serif" font-size="10.00">+ itycor</text>
<text text-anchor="start" x="115" y="-599.5" font-family="Helvetica,sans-Serif" font-size="10.00">+ idirsm</text>
<text text-anchor="start" x="115" y="-588.5" font-family="Helvetica,sans-Serif" font-size="10.00">+ iclkep</text>
<text text-anchor="start" x="115" y="-577.5" font-family="Helvetica,sans-Serif" font-size="10.00">+ igrhok</text>
<text text-anchor="start" x="115" y="-566.5" font-family="Helvetica,sans-Serif" font-size="10.00">+ has_buoyant_term</text>
<text text-anchor="start" x="115" y="-555.5" font-family="Helvetica,sans-Serif" font-size="10.00">+ ikecou</text>
<text text-anchor="start" x="115" y="-544.5" font-family="Helvetica,sans-Serif" font-size="10.00">+ reinit_turb</text>
<text text-anchor="start" x="115" y="-533.5" font-family="Helvetica,sans-Serif" font-size="10.00">+ irijco</text>
<text text-anchor="start" x="115" y="-522.5" font-family="Helvetica,sans-Serif" font-size="10.00">+ irijnu</text>
<text text-anchor="start" x="115" y="-511.5" font-family="Helvetica,sans-Serif" font-size="10.00">and 7 more...</text>
<polyline fill="none" stroke="black" points="107,-504.5 220,-504.5 "/>
<text text-anchor="middle" x="163.5" y="-492.5" font-family="Helvetica,sans-Serif" font-size="10.00"> </text>
</a>
</g>
</g>
<!-- Node4&#45;&gt;Node2 -->
<g id="edge3" class="edge">
<title>Node4&#45;&gt;Node2</title>
<path fill="none" stroke="#404040" d="M198.98,-485.5C203.45,-475.52 208.03,-465.51 212.5,-456 222.32,-435.15 233.85,-412.2 243.46,-393.45"/>
<polygon fill="none" stroke="#404040" points="243.52,-393.33 242.71,-386.17 249.01,-382.66 249.82,-389.83 243.52,-393.33"/>
<text text-anchor="middle" x="243" y="-459" font-family="Helvetica,sans-Serif" font-size="10.00"> +rans_param</text>
</g>
<!-- Node5 -->
<g id="node5" class="node">
<title>Node5</title>
<g id="a_node5"><a xlink:href="structcs__turb__les__model__t.html" target="_top" xlink:title="LES turbulence model descriptor.">
<polygon fill="white" stroke="black" points="238,-540.5 238,-597.5 345,-597.5 345,-540.5 238,-540.5"/>
<text text-anchor="middle" x="291.5" y="-585.5" font-family="Helvetica,sans-Serif" font-size="10.00">cs_turb_les_model_t</text>
<polyline fill="none" stroke="black" points="238,-578.5 345,-578.5 "/>
<text text-anchor="start" x="246" y="-566.5" font-family="Helvetica,sans-Serif" font-size="10.00">+ idries</text>
<polyline fill="none" stroke="black" points="238,-559.5 345,-559.5 "/>
<text text-anchor="middle" x="291.5" y="-547.5" font-family="Helvetica,sans-Serif" font-size="10.00"> </text>
</a>
</g>
</g>
<!-- Node5&#45;&gt;Node2 -->
<g id="edge4" class="edge">
<title>Node5&#45;&gt;Node2</title>
<path fill="none" stroke="#404040" d="M287.84,-540.15C282.95,-502.98 274.27,-436.91 268.7,-394.57"/>
<polygon fill="none" stroke="#404040" points="268.68,-394.41 263.93,-388.99 267.12,-382.52 271.86,-387.94 268.68,-394.41"/>
<text text-anchor="middle" x="305" y="-459" font-family="Helvetica,sans-Serif" font-size="10.00"> +les_param</text>
</g>
<!-- Node6 -->
<g id="node6" class="node">
<title>Node6</title>
<g id="a_node6"><a xlink:href="structcs__turb__ref__values__t.html" target="_top" xlink:title=" ">
<polygon fill="white" stroke="black" points="363,-535 363,-603 470,-603 470,-535 363,-535"/>
<text text-anchor="middle" x="416.5" y="-591" font-family="Helvetica,sans-Serif" font-size="10.00">cs_turb_ref_values_t</text>
<polyline fill="none" stroke="black" points="363,-584 470,-584 "/>
<text text-anchor="start" x="371" y="-572" font-family="Helvetica,sans-Serif" font-size="10.00">+ almax</text>
<text text-anchor="start" x="371" y="-561" font-family="Helvetica,sans-Serif" font-size="10.00">+ uref</text>
<polyline fill="none" stroke="black" points="363,-554 470,-554 "/>
<text text-anchor="middle" x="416.5" y="-542" font-family="Helvetica,sans-Serif" font-size="10.00"> </text>
</a>
</g>
</g>
<!-- Node6&#45;&gt;Node2 -->
<g id="edge5" class="edge">
<title>Node6&#45;&gt;Node2</title>
<path fill="none" stroke="#404040" d="M392.75,-534.64C376.86,-512.35 355.46,-482.39 336.5,-456 321.41,-435 304.5,-411.59 290.76,-392.61"/>
<polygon fill="none" stroke="#404040" points="290.72,-392.55 283.96,-390.04 283.68,-382.84 290.44,-385.35 290.72,-392.55"/>
<text text-anchor="middle" x="385.5" y="-459" font-family="Helvetica,sans-Serif" font-size="10.00"> +reference_values</text>
</g>
<!-- Node7 -->
<g id="node7" class="node">
<title>Node7</title>
<g id="a_node7"><a xlink:href="structcs__equation__t.html" target="_top" xlink:title="Main structure to handle the discretization and the resolution of an equation.">
<polygon fill="white" stroke="black" points="341,-325.5 341,-382.5 418,-382.5 418,-325.5 341,-325.5"/>
<text text-anchor="middle" x="379.5" y="-370.5" font-family="Helvetica,sans-Serif" font-size="10.00">cs_equation_t</text>
<polyline fill="none" stroke="black" points="341,-363.5 418,-363.5 "/>
<text text-anchor="middle" x="379.5" y="-351.5" font-family="Helvetica,sans-Serif" font-size="10.00"> </text>
<polyline fill="none" stroke="black" points="341,-344.5 418,-344.5 "/>
<text text-anchor="middle" x="379.5" y="-332.5" font-family="Helvetica,sans-Serif" font-size="10.00"> </text>
</a>
</g>
</g>
<!-- Node7&#45;&gt;Node1 -->
<g id="edge6" class="edge">
<title>Node7&#45;&gt;Node1</title>
<path fill="none" stroke="#404040" d="M384.37,-325.46C389.55,-296.28 398,-248.88 405.5,-208 405.87,-205.96 406.25,-203.9 406.64,-201.82"/>
<polygon fill="none" stroke="#404040" points="406.68,-201.59 403.83,-194.97 408.86,-189.79 411.7,-196.42 406.68,-201.59"/>
<text text-anchor="middle" x="429" y="-227.5" font-family="Helvetica,sans-Serif" font-size="10.00"> +mom_eq</text>
</g>
<!-- Node8 -->
<g id="node8" class="node">
<title>Node8</title>
<g id="a_node8"><a xlink:href="structcs__property__t.html" target="_top" xlink:title="Structure associated to the definition of a property relying on the cs_xdef_t structure.">
<polygon fill="white" stroke="black" points="436.5,-325.5 436.5,-382.5 512.5,-382.5 512.5,-325.5 436.5,-325.5"/>
<text text-anchor="middle" x="474.5" y="-370.5" font-family="Helvetica,sans-Serif" font-size="10.00">cs_property_t</text>
<polyline fill="none" stroke="black" points="436.5,-363.5 512.5,-363.5 "/>
<text text-anchor="middle" x="474.5" y="-351.5" font-family="Helvetica,sans-Serif" font-size="10.00"> </text>
<polyline fill="none" stroke="black" points="436.5,-344.5 512.5,-344.5 "/>
<text text-anchor="middle" x="474.5" y="-332.5" font-family="Helvetica,sans-Serif" font-size="10.00"> </text>
</a>
</g>
</g>
<!-- Node8&#45;&gt;Node1 -->
<g id="edge7" class="edge">
<title>Node8&#45;&gt;Node1</title>
<path fill="none" stroke="#404040" d="M470.96,-325.36C467.05,-296.11 460.29,-248.64 452.5,-208 452.09,-205.85 451.66,-203.68 451.23,-201.5"/>
<polygon fill="none" stroke="#404040" points="451.22,-201.45 446.1,-196.37 448.81,-189.69 453.94,-194.77 451.22,-201.45"/>
<text text-anchor="middle" x="479" y="-244" font-family="Helvetica,sans-Serif" font-size="10.00"> +mu_l</text>
<text text-anchor="middle" x="479" y="-233" font-family="Helvetica,sans-Serif" font-size="10.00">+mu_t</text>
<text text-anchor="middle" x="479" y="-222" font-family="Helvetica,sans-Serif" font-size="10.00">+mu_tot</text>
<text text-anchor="middle" x="479" y="-211" font-family="Helvetica,sans-Serif" font-size="10.00">+rho</text>
</g>
<!-- Node9 -->
<g id="node9" class="node">
<title>Node9</title>
<g id="a_node9"><a xlink:href="structcs__field__t.html" target="_top" xlink:title="Field descriptor.">
<polygon fill="white" stroke="black" points="530.5,-270.5 530.5,-437.5 608.5,-437.5 608.5,-270.5 530.5,-270.5"/>
<text text-anchor="middle" x="569.5" y="-425.5" font-family="Helvetica,sans-Serif" font-size="10.00">cs_field_t</text>
<polyline fill="none" stroke="black" points="530.5,-418.5 608.5,-418.5 "/>
<text text-anchor="start" x="538.5" y="-406.5" font-family="Helvetica,sans-Serif" font-size="10.00">+ name</text>
<text text-anchor="start" x="538.5" y="-395.5" font-family="Helvetica,sans-Serif" font-size="10.00">+ id</text>
<text text-anchor="start" x="538.5" y="-384.5" font-family="Helvetica,sans-Serif" font-size="10.00">+ type</text>
<text text-anchor="start" x="538.5" y="-373.5" font-family="Helvetica,sans-Serif" font-size="10.00">+ dim</text>
<text text-anchor="start" x="538.5" y="-362.5" font-family="Helvetica,sans-Serif" font-size="10.00">+ location_id</text>
<text text-anchor="start" x="538.5" y="-351.5" font-family="Helvetica,sans-Serif" font-size="10.00">+ n_time_vals</text>
<text text-anchor="start" x="538.5" y="-340.5" font-family="Helvetica,sans-Serif" font-size="10.00">+ vals</text>
<text text-anchor="start" x="538.5" y="-329.5" font-family="Helvetica,sans-Serif" font-size="10.00">+ val</text>
<text text-anchor="start" x="538.5" y="-318.5" font-family="Helvetica,sans-Serif" font-size="10.00">+ val_pre</text>
<text text-anchor="start" x="538.5" y="-307.5" font-family="Helvetica,sans-Serif" font-size="10.00">+ grad</text>
<text text-anchor="start" x="538.5" y="-296.5" font-family="Helvetica,sans-Serif" font-size="10.00">+ is_owner</text>
<polyline fill="none" stroke="black" points="530.5,-289.5 608.5,-289.5 "/>
<text text-anchor="middle" x="569.5" y="-277.5" font-family="Helvetica,sans-Serif" font-size="10.00"> </text>
</a>
</g>
</g>
<!-- Node9&#45;&gt;Node1 -->
<g id="edge8" class="edge">
<title>Node9&#45;&gt;Node1</title>
<path fill="none" stroke="#404040" d="M533.33,-270.23C523.59,-249.59 512.65,-227.73 501.5,-208 495.52,-197.42 488.89,-186.53 482.11,-175.89"/>
<polygon fill="none" stroke="#404040" points="482.08,-175.85 475.47,-172.98 475.57,-165.77 482.19,-168.64 482.08,-175.85"/>
<text text-anchor="middle" x="552" y="-233" font-family="Helvetica,sans-Serif" font-size="10.00"> +mu_t_field</text>
<text text-anchor="middle" x="552" y="-222" font-family="Helvetica,sans-Serif" font-size="10.00">+rij</text>
</g>
<!-- Node10 -->
<g id="node10" class="node">
<title>Node10</title>
<g id="a_node10"><a xlink:href="structcs__field__bc__coeffs__t.html" target="_top" xlink:title="Field boundary condition descriptor (for variables)">
<polygon fill="white" stroke="black" points="516.5,-485.5 516.5,-652.5 622.5,-652.5 622.5,-485.5 516.5,-485.5"/>
<text text-anchor="middle" x="569.5" y="-640.5" font-family="Helvetica,sans-Serif" font-size="10.00">cs_field_bc_coeffs_t</text>
<polyline fill="none" stroke="black" points="516.5,-633.5 622.5,-633.5 "/>
<text text-anchor="start" x="524.5" y="-621.5" font-family="Helvetica,sans-Serif" font-size="10.00">+ location_id</text>
<text text-anchor="start" x="524.5" y="-610.5" font-family="Helvetica,sans-Serif" font-size="10.00">+ icodcl</text>
<text text-anchor="start" x="524.5" y="-599.5" font-family="Helvetica,sans-Serif" font-size="10.00">+ rcodcl1</text>
<text text-anchor="start" x="524.5" y="-588.5" font-family="Helvetica,sans-Serif" font-size="10.00">+ rcodcl2</text>
<text text-anchor="start" x="524.5" y="-577.5" font-family="Helvetica,sans-Serif" font-size="10.00">+ rcodcl3</text>
<text text-anchor="start" x="524.5" y="-566.5" font-family="Helvetica,sans-Serif" font-size="10.00">+ a</text>
<text text-anchor="start" x="524.5" y="-555.5" font-family="Helvetica,sans-Serif" font-size="10.00">+ b</text>
<text text-anchor="start" x="524.5" y="-544.5" font-family="Helvetica,sans-Serif" font-size="10.00">+ af</text>
<text text-anchor="start" x="524.5" y="-533.5" font-family="Helvetica,sans-Serif" font-size="10.00">+ bf</text>
<text text-anchor="start" x="524.5" y="-522.5" font-family="Helvetica,sans-Serif" font-size="10.00">+ ad</text>
<text text-anchor="start" x="524.5" y="-511.5" font-family="Helvetica,sans-Serif" font-size="10.00">and 10 more...</text>
<polyline fill="none" stroke="black" points="516.5,-504.5 622.5,-504.5 "/>
<text text-anchor="middle" x="569.5" y="-492.5" font-family="Helvetica,sans-Serif" font-size="10.00"> </text>
</a>
</g>
</g>
<!-- Node10&#45;&gt;Node9 -->
<g id="edge9" class="edge">
<title>Node10&#45;&gt;Node9</title>
<path fill="none" stroke="#404040" d="M569.5,-485.34C569.5,-473.71 569.5,-461.68 569.5,-449.85"/>
<polygon fill="none" stroke="#404040" points="569.5,-449.61 565.5,-443.61 569.5,-437.61 573.5,-443.61 569.5,-449.61"/>
<text text-anchor="middle" x="595.5" y="-459" font-family="Helvetica,sans-Serif" font-size="10.00"> +bc_coeffs</text>
</g>
</g>
</svg>
        <g id="navigator" transform="translate(0 0)" fill="#404254">
                <rect fill="#f2f5e9" fill-opacity="0.5" stroke="#606060" stroke-width=".5" x="0" y="0" width="60" height="60"/>
                <use id="zoomplus" xlink:href="#zoomPlus" x="17" y="9" onmousedown="handleZoom(evt,'in')"/>
                <use id="zoomminus" xlink:href="#zoomMin" x="42" y="9" onmousedown="handleZoom(evt,'out')"/>
                <use id="reset" xlink:href="#resetDef" x="30" y="36" onmousedown="handleReset()"/>
                <g id="arrowUp" xlink:href="#dirArrow" transform="translate(30 24)" onmousedown="handlePan(0,-1)">
                  <use xlink:href="#rim" fill="#404040">
                        <set attributeName="fill" to="#808080" begin="arrowUp.mouseover" end="arrowUp.mouseout"/>
                  </use>
                  <path fill="none" stroke="white" stroke-width="1.5" d="M0,-3.0v7 M-2.5,-0.5L0,-3.0L2.5,-0.5"/>
                </g>
                <g id="arrowRight" xlink:href="#dirArrow" transform="rotate(90) translate(36 -43)" onmousedown="handlePan(1,0)">
                  <use xlink:href="#rim" fill="#404040">
                        <set attributeName="fill" to="#808080" begin="arrowRight.mouseover" end="arrowRight.mouseout"/>
                  </use>
                  <path fill="none" stroke="white" stroke-width="1.5" d="M0,-3.0v7 M-2.5,-0.5L0,-3.0L2.5,-0.5"/>
                </g>
                <g id="arrowDown" xlink:href="#dirArrow" transform="rotate(180) translate(-30 -48)" onmousedown="handlePan(0,1)">
                  <use xlink:href="#rim" fill="#404040">
                        <set attributeName="fill" to="#808080" begin="arrowDown.mouseover" end="arrowDown.mouseout"/>
                  </use>
                  <path fill="none" stroke="white" stroke-width="1.5" d="M0,-3.0v7 M-2.5,-0.5L0,-3.0L2.5,-0.5"/>
                </g>
                <g id="arrowLeft" xlink:href="#dirArrow" transform="rotate(270) translate(-36 17)" onmousedown="handlePan(-1,0)">
                  <use xlink:href="#rim" fill="#404040">
                        <set attributeName="fill" to="#808080" begin="arrowLeft.mouseover" end="arrowLeft.mouseout"/>
                  </use>
                  <path fill="none" stroke="white" stroke-width="1.5" d="M0,-3.0v7 M-2.5,-0.5L0,-3.0L2.5,-0.5"/>
                </g>
        </g>
        <svg viewBox="0 0 15 15" width="100%" height="30px" preserveAspectRatio="xMaxYMin meet">
         <g id="arrow_out" transform="scale(0.3 0.3)">
          <a xlink:href="struct__cs__turbulence__t__coll__graph_org.svg" target="_base">
           <rect id="button" ry="5" rx="5" y="6" x="6" height="38" width="38"
                fill="#f2f5e9" fill-opacity="0.5" stroke="#606060" stroke-width="1.0"/>
           <path id="arrow"
             d="M 11.500037,31.436501 C 11.940474,20.09759 22.043105,11.32322 32.158766,21.979434 L 37.068811,17.246167 C 37.068811,17.246167 37.088388,32 37.088388,32 L 22.160133,31.978069 C 22.160133,31.978069 26.997745,27.140456 26.997745,27.140456 C 18.528582,18.264221 13.291696,25.230495 11.500037,31.436501 z"
             style="fill:#404040;"/>
          </a>
         </g>
        </svg>
</svg>
