<?xml version="1.0" encoding="UTF-8" standalone="no"?>
<!DOCTYPE svg PUBLIC "-//W3C//DTD SVG 1.1//EN"
 "http://www.w3.org/Graphics/SVG/1.1/DTD/svg11.dtd">
<!-- Generated by graphviz version 2.43.0 (0)
 -->
<!-- Title: cs_navsto_projection_t Pages: 1 -->
<!--zoomable 529 -->
<svg id="main" version="1.1" xmlns="http://www.w3.org/2000/svg" xmlns:xlink="http://www.w3.org/1999/xlink" xml:space="preserve" onload="init(evt)">
<style type="text/css"><![CDATA[
.edge:hover path { stroke: red; }
.edge:hover polygon { stroke: red; fill: red; }
]]></style>
<script type="text/javascript"><![CDATA[
var edges = document.getElementsByTagName('g');
if (edges && edges.length) {
  for (var i=0;i<edges.length;i++) {
    if (edges[i].id.substr(0,4)=='edge') {
      edges[i].setAttribute('class','edge');
    }
  }
}
]]></script>
        <defs>
                <circle id="rim" cx="0" cy="0" r="7"/>
                <circle id="rim2" cx="0" cy="0" r="3.5"/>
                <g id="zoomPlus">
                        <use xlink:href="#rim" fill="#404040">
                                <set attributeName="fill" to="#808080" begin="zoomplus.mouseover" end="zoomplus.mouseout"/>
                        </use>
                        <path d="M-4,0h8M0,-4v8" fill="none" stroke="white" stroke-width="1.5" pointer-events="none"/>
                </g>
                <g id="zoomMin">
                        <use xlink:href="#rim" fill="#404040">
                                <set attributeName="fill" to="#808080" begin="zoomminus.mouseover" end="zoomminus.mouseout"/>
                        </use>
                        <path d="M-4,0h8" fill="none" stroke="white" stroke-width="1.5" pointer-events="none"/>
                </g>
                <g id="dirArrow">
                        <path fill="none" stroke="white" stroke-width="1.5" d="M0,-3.0v7 M-2.5,-0.5L0,-3.0L2.5,-0.5"/>
                </g>
               <g id="resetDef">
                       <use xlink:href="#rim2" fill="#404040">
                               <set attributeName="fill" to="#808080" begin="reset.mouseover" end="reset.mouseout"/>
                       </use>
               </g>
        </defs>

<script type="text/javascript">
var viewWidth = 226;
var viewHeight = 529;
var sectionId = 'dynsection-0';
</script>
<script xlink:href="svgpan.js"/>
<svg id="graph" class="graph">
<g id="viewport">
<title>cs_navsto_projection_t</title>
<polygon fill="white" stroke="transparent" points="-4,4 -4,-525 221.5,-525 221.5,4 -4,4"/>
<!-- Node1 -->
<g id="node1" class="node">
<title>Node1</title>
<g id="a_node1"><a xlink:title="Set of parameters specific for solving the Navier&#45;Stokes system with an incremental projection algori...">
<polygon fill="#bfbfbf" stroke="black" points="17,-0.5 17,-68.5 134,-68.5 134,-0.5 17,-0.5"/>
<text text-anchor="middle" x="75.5" y="-56.5" font-family="Helvetica,sans-Serif" font-size="10.00">cs_navsto_projection_t</text>
<polyline fill="none" stroke="black" points="17,-49.5 134,-49.5 "/>
<text text-anchor="start" x="25" y="-37.5" font-family="Helvetica,sans-Serif" font-size="10.00">+ div_st</text>
<text text-anchor="start" x="25" y="-26.5" font-family="Helvetica,sans-Serif" font-size="10.00">+ bdy_pressure_incr</text>
<polyline fill="none" stroke="black" points="17,-19.5 134,-19.5 "/>
<text text-anchor="middle" x="75.5" y="-7.5" font-family="Helvetica,sans-Serif" font-size="10.00"> </text>
</a>
</g>
</g>
<!-- Node2 -->
<g id="node2" class="node">
<title>Node2</title>
<g id="a_node2"><a xlink:href="structcs__equation__t.html" target="_top" xlink:title="Main structure to handle the discretization and the resolution of an equation.">
<polygon fill="white" stroke="black" points="0,-193.5 0,-250.5 77,-250.5 77,-193.5 0,-193.5"/>
<text text-anchor="middle" x="38.5" y="-238.5" font-family="Helvetica,sans-Serif" font-size="10.00">cs_equation_t</text>
<polyline fill="none" stroke="black" points="0,-231.5 77,-231.5 "/>
<text text-anchor="middle" x="38.5" y="-219.5" font-family="Helvetica,sans-Serif" font-size="10.00"> </text>
<polyline fill="none" stroke="black" points="0,-212.5 77,-212.5 "/>
<text text-anchor="middle" x="38.5" y="-200.5" font-family="Helvetica,sans-Serif" font-size="10.00"> </text>
</a>
</g>
</g>
<!-- Node2&#45;&gt;Node1 -->
<g id="edge1" class="edge">
<title>Node2&#45;&gt;Node1</title>
<path fill="none" stroke="#404040" d="M37.7,-193.25C37.63,-165.76 39.43,-122.72 49.5,-87 50.18,-84.59 50.97,-82.16 51.85,-79.74"/>
<polygon fill="none" stroke="#404040" points="51.9,-79.63 50.5,-72.55 56.5,-68.54 57.89,-75.62 51.9,-79.63"/>
<text text-anchor="middle" x="75.5" y="-106.5" font-family="Helvetica,sans-Serif" font-size="10.00"> +correction</text>
<text text-anchor="middle" x="75.5" y="-95.5" font-family="Helvetica,sans-Serif" font-size="10.00">+prediction</text>
</g>
<!-- Node3 -->
<g id="node3" class="node">
<title>Node3</title>
<g id="a_node3"><a xlink:href="structcs__field__t.html" target="_top" xlink:title="Field descriptor.">
<polygon fill="white" stroke="black" points="95.5,-138.5 95.5,-305.5 173.5,-305.5 173.5,-138.5 95.5,-138.5"/>
<text text-anchor="middle" x="134.5" y="-293.5" font-family="Helvetica,sans-Serif" font-size="10.00">cs_field_t</text>
<polyline fill="none" stroke="black" points="95.5,-286.5 173.5,-286.5 "/>
<text text-anchor="start" x="103.5" y="-274.5" font-family="Helvetica,sans-Serif" font-size="10.00">+ name</text>
<text text-anchor="start" x="103.5" y="-263.5" font-family="Helvetica,sans-Serif" font-size="10.00">+ id</text>
<text text-anchor="start" x="103.5" y="-252.5" font-family="Helvetica,sans-Serif" font-size="10.00">+ type</text>
<text text-anchor="start" x="103.5" y="-241.5" font-family="Helvetica,sans-Serif" font-size="10.00">+ dim</text>
<text text-anchor="start" x="103.5" y="-230.5" font-family="Helvetica,sans-Serif" font-size="10.00">+ location_id</text>
<text text-anchor="start" x="103.5" y="-219.5" font-family="Helvetica,sans-Serif" font-size="10.00">+ n_time_vals</text>
<text text-anchor="start" x="103.5" y="-208.5" font-family="Helvetica,sans-Serif" font-size="10.00">+ vals</text>
<text text-anchor="start" x="103.5" y="-197.5" font-family="Helvetica,sans-Serif" font-size="10.00">+ val</text>
<text text-anchor="start" x="103.5" y="-186.5" font-family="Helvetica,sans-Serif" font-size="10.00">+ val_pre</text>
<text text-anchor="start" x="103.5" y="-175.5" font-family="Helvetica,sans-Serif" font-size="10.00">+ grad</text>
<text text-anchor="start" x="103.5" y="-164.5" font-family="Helvetica,sans-Serif" font-size="10.00">+ is_owner</text>
<polyline fill="none" stroke="black" points="95.5,-157.5 173.5,-157.5 "/>
<text text-anchor="middle" x="134.5" y="-145.5" font-family="Helvetica,sans-Serif" font-size="10.00"> </text>
</a>
</g>
</g>
<!-- Node3&#45;&gt;Node1 -->
<g id="edge2" class="edge">
<title>Node3&#45;&gt;Node1</title>
<path fill="none" stroke="#404040" d="M117.23,-138.26C112.79,-121.1 107.53,-103.29 101.5,-87 100.58,-84.52 99.58,-82 98.51,-79.48"/>
<polygon fill="none" stroke="#404040" points="98.5,-79.46 92.38,-75.65 93.55,-68.53 99.67,-72.34 98.5,-79.46"/>
<text text-anchor="middle" x="165" y="-112" font-family="Helvetica,sans-Serif" font-size="10.00"> +phi</text>
<text text-anchor="middle" x="165" y="-101" font-family="Helvetica,sans-Serif" font-size="10.00">+predicted_velocity</text>
<text text-anchor="middle" x="165" y="-90" font-family="Helvetica,sans-Serif" font-size="10.00">+pressure_incr_gradient</text>
</g>
<!-- Node4 -->
<g id="node4" class="node">
<title>Node4</title>
<g id="a_node4"><a xlink:href="structcs__field__bc__coeffs__t.html" target="_top" xlink:title="Field boundary condition descriptor (for variables)">
<polygon fill="white" stroke="black" points="81.5,-353.5 81.5,-520.5 187.5,-520.5 187.5,-353.5 81.5,-353.5"/>
<text text-anchor="middle" x="134.5" y="-508.5" font-family="Helvetica,sans-Serif" font-size="10.00">cs_field_bc_coeffs_t</text>
<polyline fill="none" stroke="black" points="81.5,-501.5 187.5,-501.5 "/>
<text text-anchor="start" x="89.5" y="-489.5" font-family="Helvetica,sans-Serif" font-size="10.00">+ location_id</text>
<text text-anchor="start" x="89.5" y="-478.5" font-family="Helvetica,sans-Serif" font-size="10.00">+ icodcl</text>
<text text-anchor="start" x="89.5" y="-467.5" font-family="Helvetica,sans-Serif" font-size="10.00">+ rcodcl1</text>
<text text-anchor="start" x="89.5" y="-456.5" font-family="Helvetica,sans-Serif" font-size="10.00">+ rcodcl2</text>
<text text-anchor="start" x="89.5" y="-445.5" font-family="Helvetica,sans-Serif" font-size="10.00">+ rcodcl3</text>
<text text-anchor="start" x="89.5" y="-434.5" font-family="Helvetica,sans-Serif" font-size="10.00">+ a</text>
<text text-anchor="start" x="89.5" y="-423.5" font-family="Helvetica,sans-Serif" font-size="10.00">+ b</text>
<text text-anchor="start" x="89.5" y="-412.5" font-family="Helvetica,sans-Serif" font-size="10.00">+ af</text>
<text text-anchor="start" x="89.5" y="-401.5" font-family="Helvetica,sans-Serif" font-size="10.00">+ bf</text>
<text text-anchor="start" x="89.5" y="-390.5" font-family="Helvetica,sans-Serif" font-size="10.00">+ ad</text>
<text text-anchor="start" x="89.5" y="-379.5" font-family="Helvetica,sans-Serif" font-size="10.00">and 10 more...</text>
<polyline fill="none" stroke="black" points="81.5,-372.5 187.5,-372.5 "/>
<text text-anchor="middle" x="134.5" y="-360.5" font-family="Helvetica,sans-Serif" font-size="10.00"> </text>
</a>
</g>
</g>
<!-- Node4&#45;&gt;Node3 -->
<g id="edge3" class="edge">
<title>Node4&#45;&gt;Node3</title>
<path fill="none" stroke="#404040" d="M134.5,-353.34C134.5,-341.71 134.5,-329.68 134.5,-317.85"/>
<polygon fill="none" stroke="#404040" points="134.5,-317.61 130.5,-311.61 134.5,-305.61 138.5,-311.61 134.5,-317.61"/>
<text text-anchor="middle" x="160.5" y="-327" font-family="Helvetica,sans-Serif" font-size="10.00"> +bc_coeffs</text>
</g>
</g>
</svg>
        <g id="navigator" transform="translate(0 0)" fill="#404254">
                <rect fill="#f2f5e9" fill-opacity="0.5" stroke="#606060" stroke-width=".5" x="0" y="0" width="60" height="60"/>
                <use id="zoomplus" xlink:href="#zoomPlus" x="17" y="9" onmousedown="handleZoom(evt,'in')"/>
                <use id="zoomminus" xlink:href="#zoomMin" x="42" y="9" onmousedown="handleZoom(evt,'out')"/>
                <use id="reset" xlink:href="#resetDef" x="30" y="36" onmousedown="handleReset()"/>
                <g id="arrowUp" xlink:href="#dirArrow" transform="translate(30 24)" onmousedown="handlePan(0,-1)">
                  <use xlink:href="#rim" fill="#404040">
                        <set attributeName="fill" to="#808080" begin="arrowUp.mouseover" end="arrowUp.mouseout"/>
                  </use>
                  <path fill="none" stroke="white" stroke-width="1.5" d="M0,-3.0v7 M-2.5,-0.5L0,-3.0L2.5,-0.5"/>
                </g>
                <g id="arrowRight" xlink:href="#dirArrow" transform="rotate(90) translate(36 -43)" onmousedown="handlePan(1,0)">
                  <use xlink:href="#rim" fill="#404040">
                        <set attributeName="fill" to="#808080" begin="arrowRight.mouseover" end="arrowRight.mouseout"/>
                  </use>
                  <path fill="none" stroke="white" stroke-width="1.5" d="M0,-3.0v7 M-2.5,-0.5L0,-3.0L2.5,-0.5"/>
                </g>
                <g id="arrowDown" xlink:href="#dirArrow" transform="rotate(180) translate(-30 -48)" onmousedown="handlePan(0,1)">
                  <use xlink:href="#rim" fill="#404040">
                        <set attributeName="fill" to="#808080" begin="arrowDown.mouseover" end="arrowDown.mouseout"/>
                  </use>
                  <path fill="none" stroke="white" stroke-width="1.5" d="M0,-3.0v7 M-2.5,-0.5L0,-3.0L2.5,-0.5"/>
                </g>
                <g id="arrowLeft" xlink:href="#dirArrow" transform="rotate(270) translate(-36 17)" onmousedown="handlePan(-1,0)">
                  <use xlink:href="#rim" fill="#404040">
                        <set attributeName="fill" to="#808080" begin="arrowLeft.mouseover" end="arrowLeft.mouseout"/>
                  </use>
                  <path fill="none" stroke="white" stroke-width="1.5" d="M0,-3.0v7 M-2.5,-0.5L0,-3.0L2.5,-0.5"/>
                </g>
        </g>
        <svg viewBox="0 0 15 15" width="100%" height="30px" preserveAspectRatio="xMaxYMin meet">
         <g id="arrow_out" transform="scale(0.3 0.3)">
          <a xlink:href="structcs__navsto__projection__t__coll__graph_org.svg" target="_base">
           <rect id="button" ry="5" rx="5" y="6" x="6" height="38" width="38"
                fill="#f2f5e9" fill-opacity="0.5" stroke="#606060" stroke-width="1.0"/>
           <path id="arrow"
             d="M 11.500037,31.436501 C 11.940474,20.09759 22.043105,11.32322 32.158766,21.979434 L 37.068811,17.246167 C 37.068811,17.246167 37.088388,32 37.088388,32 L 22.160133,31.978069 C 22.160133,31.978069 26.997745,27.140456 26.997745,27.140456 C 18.528582,18.264221 13.291696,25.230495 11.500037,31.436501 z"
             style="fill:#404040;"/>
          </a>
         </g>
        </svg>
</svg>
